  0
SECTION
  2
HEADER
  9
$ACADVER
  1
AC1027
  9
$ACADMAINTVER
 70
105
  9
$DWGCODEPAGE
  3
ANSI_1252
  9
$LASTSAVEDBY
  1
ezdxf
  9
$REQUIREDVERSIONS
160
0
  9
$INSBASE
 10
0.0
 20
0.0
 30
0.0
  9
$EXTMIN
 10
1e+20
 20
1e+20
 30
1e+20
  9
$EXTMAX
 10
-1e+20
 20
-1e+20
 30
-1e+20
  9
$LIMMIN
 10
0.0
 20
0.0
  9
$LIMMAX
 10
420.0
 20
297.0
  9
$ORTHOMODE
 70
0
  9
$REGENMODE
 70
1
  9
$FILLMODE
 70
1
  9
$QTEXTMODE
 70
0
  9
$MIRRTEXT
 70
1
  9
$LTSCALE
 40
1.0
  9
$ATTMODE
 70
1
  9
$TEXTSIZE
 40
2.5
  9
$TRACEWID
 40
1.0
  9
$TEXTSTYLE
  7
Standard
  9
$CLAYER
  8
0
  9
$CELTYPE
  6
ByLayer
  9
$CECOLOR
 62
256
  9
$CELTSCALE
 40
1.0
  9
$DISPSILH
 70
0
  9
$DIMSCALE
 40
1.0
  9
$DIMASZ
 40
2.5
  9
$DIMEXO
 40
0.625
  9
$DIMDLI
 40
3.75
  9
$DIMRND
 40
0.0
  9
$DIMDLE
 40
0.0
  9
$DIMEXE
 40
1.25
  9
$DIMTP
 40
0.0
  9
$DIMTM
 40
0.0
  9
$DIMTXT
 40
2.5
  9
$DIMCEN
 40
2.5
  9
$DIMTSZ
 40
0.0
  9
$DIMTOL
 70
0
  9
$DIMLIM
 70
0
  9
$DIMTIH
 70
0
  9
$DIMTOH
 70
0
  9
$DIMSE1
 70
0
  9
$DIMSE2
 70
0
  9
$DIMTAD
 70
1
  9
$DIMZIN
 70
8
  9
$DIMBLK
  1

  9
$DIMASO
 70
1
  9
$DIMSHO
 70
1
  9
$DIMPOST
  1

  9
$DIMAPOST
  1

  9
$DIMALT
 70
0
  9
$DIMALTD
 70
3
  9
$DIMALTF
 40
0.03937007874
  9
$DIMLFAC
 40
1.0
  9
$DIMTOFL
 70
1
  9
$DIMTVP
 40
0.0
  9
$DIMTIX
 70
0
  9
$DIMSOXD
 70
0
  9
$DIMSAH
 70
0
  9
$DIMBLK1
  1

  9
$DIMBLK2
  1

  9
$DIMSTYLE
  2
ISO-25
  9
$DIMCLRD
 70
0
  9
$DIMCLRE
 70
0
  9
$DIMCLRT
 70
0
  9
$DIMTFAC
 40
1.0
  9
$DIMGAP
 40
0.625
  9
$DIMJUST
 70
0
  9
$DIMSD1
 70
0
  9
$DIMSD2
 70
0
  9
$DIMTOLJ
 70
0
  9
$DIMTZIN
 70
8
  9
$DIMALTZ
 70
0
  9
$DIMALTTZ
 70
0
  9
$DIMUPT
 70
0
  9
$DIMDEC
 70
2
  9
$DIMTDEC
 70
2
  9
$DIMALTU
 70
2
  9
$DIMALTTD
 70
3
  9
$DIMTXSTY
  7
Standard
  9
$DIMAUNIT
 70
0
  9
$DIMADEC
 70
0
  9
$DIMALTRND
 40
0.0
  9
$DIMAZIN
 70
0
  9
$DIMDSEP
 70
44
  9
$DIMATFIT
 70
3
  9
$DIMFRAC
 70
0
  9
$DIMLDRBLK
  1

  9
$DIMLUNIT
 70
2
  9
$DIMLWD
 70
-2
  9
$DIMLWE
 70
-2
  9
$DIMTMOVE
 70
0
  9
$DIMFXL
 40
1.0
  9
$DIMFXLON
 70
0
  9
$DIMJOGANG
 40
0.785398163397
  9
$DIMTFILL
 70
0
  9
$DIMTFILLCLR
 70
0
  9
$DIMARCSYM
 70
0
  9
$DIMLTYPE
  6

  9
$DIMLTEX1
  6

  9
$DIMLTEX2
  6

  9
$DIMTXTDIRECTION
 70
0
  9
$LUNITS
 70
2
  9
$LUPREC
 70
4
  9
$SKETCHINC
 40
1.0
  9
$FILLETRAD
 40
10.0
  9
$AUNITS
 70
0
  9
$AUPREC
 70
2
  9
$MENU
  1
.
  9
$ELEVATION
 40
0.0
  9
$PELEVATION
 40
0.0
  9
$THICKNESS
 40
0.0
  9
$LIMCHECK
 70
0
  9
$CHAMFERA
 40
0.0
  9
$CHAMFERB
 40
0.0
  9
$CHAMFERC
 40
0.0
  9
$CHAMFERD
 40
0.0
  9
$SKPOLY
 70
0
  9
$TDCREATE
 40
2460819.0479166666
  9
$TDUCREATE
 40
2458532.153996898
  9
$TDUPDATE
 40
2460819.0479166666
  9
$TDUUPDATE
 40
2458532.1544311
  9
$TDINDWG
 40
0.0
  9
$TDUSRTIMER
 40
0.0
  9
$USRTIMER
 70
1
  9
$ANGBASE
 50
0.0
  9
$ANGDIR
 70
0
  9
$PDMODE
 70
0
  9
$PDSIZE
 40
0.0
  9
$PLINEWID
 40
0.0
  9
$SPLFRAME
 70
0
  9
$SPLINETYPE
 70
6
  9
$SPLINESEGS
 70
8
  9
$HANDSEED
  5
11F
  9
$SURFTAB1
 70
6
  9
$SURFTAB2
 70
6
  9
$SURFTYPE
 70
6
  9
$SURFU
 70
6
  9
$SURFV
 70
6
  9
$UCSBASE
  2

  9
$UCSNAME
  2

  9
$UCSORG
 10
0.0
 20
0.0
 30
0.0
  9
$UCSXDIR
 10
1.0
 20
0.0
 30
0.0
  9
$UCSYDIR
 10
0.0
 20
1.0
 30
0.0
  9
$UCSORTHOREF
  2

  9
$UCSORTHOVIEW
 70
0
  9
$UCSORGTOP
 10
0.0
 20
0.0
 30
0.0
  9
$UCSORGBOTTOM
 10
0.0
 20
0.0
 30
0.0
  9
$UCSORGLEFT
 10
0.0
 20
0.0
 30
0.0
  9
$UCSORGRIGHT
 10
0.0
 20
0.0
 30
0.0
  9
$UCSORGFRONT
 10
0.0
 20
0.0
 30
0.0
  9
$UCSORGBACK
 10
0.0
 20
0.0
 30
0.0
  9
$PUCSBASE
  2

  9
$PUCSNAME
  2

  9
$PUCSORG
 10
0.0
 20
0.0
 30
0.0
  9
$PUCSXDIR
 10
1.0
 20
0.0
 30
0.0
  9
$PUCSYDIR
 10
0.0
 20
1.0
 30
0.0
  9
$PUCSORTHOREF
  2

  9
$PUCSORTHOVIEW
 70
0
  9
$PUCSORGTOP
 10
0.0
 20
0.0
 30
0.0
  9
$PUCSORGBOTTOM
 10
0.0
 20
0.0
 30
0.0
  9
$PUCSORGLEFT
 10
0.0
 20
0.0
 30
0.0
  9
$PUCSORGRIGHT
 10
0.0
 20
0.0
 30
0.0
  9
$PUCSORGFRONT
 10
0.0
 20
0.0
 30
0.0
  9
$PUCSORGBACK
 10
0.0
 20
0.0
 30
0.0
  9
$USERI1
 70
0
  9
$USERI2
 70
0
  9
$USERI3
 70
0
  9
$USERI4
 70
0
  9
$USERI5
 70
0
  9
$USERR1
 40
0.0
  9
$USERR2
 40
0.0
  9
$USERR3
 40
0.0
  9
$USERR4
 40
0.0
  9
$USERR5
 40
0.0
  9
$WORLDVIEW
 70
1
  9
$SHADEDGE
 70
3
  9
$SHADEDIF
 70
70
  9
$TILEMODE
 70
1
  9
$MAXACTVP
 70
64
  9
$PINSBASE
 10
0.0
 20
0.0
 30
0.0
  9
$PLIMCHECK
 70
0
  9
$PEXTMIN
 10
1e+20
 20
1e+20
 30
1e+20
  9
$PEXTMAX
 10
-1e+20
 20
-1e+20
 30
-1e+20
  9
$PLIMMIN
 10
0.0
 20
0.0
  9
$PLIMMAX
 10
420.0
 20
297.0
  9
$UNITMODE
 70
0
  9
$VISRETAIN
 70
1
  9
$PLINEGEN
 70
0
  9
$PSLTSCALE
 70
1
  9
$TREEDEPTH
 70
3020
  9
$CMLSTYLE
  2
Standard
  9
$CMLJUST
 70
0
  9
$CMLSCALE
 40
20.0
  9
$PROXYGRAPHICS
 70
1
  9
$MEASUREMENT
 70
1
  9
$CELWEIGHT
370
-1
  9
$ENDCAPS
280
0
  9
$JOINSTYLE
280
0
  9
$LWDISPLAY
290
0
  9
$INSUNITS
 70
6
  9
$HYPERLINKBASE
  1

  9
$STYLESHEET
  1

  9
$XEDIT
290
1
  9
$CEPSNTYPE
380
0
  9
$PSTYLEMODE
290
1
  9
$FINGERPRINTGUID
  2
{96398EB1-84BB-46EA-ADFE-85860DEAB901}
  9
$VERSIONGUID
  2
{37D71CC8-46EC-4E6C-838A-7DE18BC6B551}
  9
$EXTNAMES
290
1
  9
$PSVPSCALE
 40
0.0
  9
$OLESTARTUP
290
0
  9
$SORTENTS
280
127
  9
$INDEXCTL
280
0
  9
$HIDETEXT
280
1
  9
$XCLIPFRAME
280
1
  9
$HALOGAP
280
0
  9
$OBSCOLOR
 70
257
  9
$OBSLTYPE
280
0
  9
$INTERSECTIONDISPLAY
280
0
  9
$INTERSECTIONCOLOR
 70
257
  9
$DIMASSOC
280
2
  9
$PROJECTNAME
  1

  9
$CAMERADISPLAY
290
0
  9
$LENSLENGTH
 40
50.0
  9
$CAMERAHEIGHT
 40
0.0
  9
$STEPSPERSEC
 40
24.0
  9
$STEPSIZE
 40
100.0
  9
$3DDWFPREC
 40
2.0
  9
$PSOLWIDTH
 40
0.005
  9
$PSOLHEIGHT
 40
0.08
  9
$LOFTANG1
 40
1.570796326795
  9
$LOFTANG2
 40
1.570796326795
  9
$LOFTMAG1
 40
0.0
  9
$LOFTMAG2
 40
0.0
  9
$LOFTPARAM
 70
7
  9
$LOFTNORMALS
280
1
  9
$LATITUDE
 40
37.795
  9
$LONGITUDE
 40
-122.394
  9
$NORTHDIRECTION
 40
0.0
  9
$TIMEZONE
 70
-8000
  9
$LIGHTGLYPHDISPLAY
280
1
  9
$TILEMODELIGHTSYNCH
280
1
  9
$CMATERIAL
347
20
  9
$SOLIDHIST
280
0
  9
$SHOWHIST
280
1
  9
$DWFFRAME
280
2
  9
$DGNFRAME
280
2
  9
$REALWORLDSCALE
290
1
  9
$INTERFERECOLOR
 62
256
  9
$CSHADOW
280
0
  9
$SHADOWPLANELOCATION
 40
0.0
  0
ENDSEC
  0
SECTION
  2
CLASSES
  0
CLASS
  1
ACDBDICTIONARYWDFLT
  2
AcDbDictionaryWithDefault
  3
ObjectDBX Classes
 90
0
 91
0
280
0
281
0
  0
CLASS
  1
SUN
  2
AcDbSun
  3
SCENEOE
 90
1153
 91
0
280
0
281
0
  0
CLASS
  1
VISUALSTYLE
  2
AcDbVisualStyle
  3
ObjectDBX Classes
 90
4095
 91
0
280
0
281
0
  0
CLASS
  1
MATERIAL
  2
AcDbMaterial
  3
ObjectDBX Classes
 90
1153
 91
0
280
0
281
0
  0
CLASS
  1
SCALE
  2
AcDbScale
  3
ObjectDBX Classes
 90
1153
 91
0
280
0
281
0
  0
CLASS
  1
TABLESTYLE
  2
AcDbTableStyle
  3
ObjectDBX Classes
 90
4095
 91
0
280
0
281
0
  0
CLASS
  1
MLEADERSTYLE
  2
AcDbMLeaderStyle
  3
ACDB_MLEADERSTYLE_CLASS
 90
4095
 91
0
280
0
281
0
  0
CLASS
  1
DICTIONARYVAR
  2
AcDbDictionaryVar
  3
ObjectDBX Classes
 90
0
 91
0
280
0
281
0
  0
CLASS
  1
CELLSTYLEMAP
  2
AcDbCellStyleMap
  3
ObjectDBX Classes
 90
1152
 91
0
280
0
281
0
  0
CLASS
  1
MENTALRAYRENDERSETTINGS
  2
AcDbMentalRayRenderSettings
  3
SCENEOE
 90
1024
 91
0
280
0
281
0
  0
CLASS
  1
ACDBDETAILVIEWSTYLE
  2
AcDbDetailViewStyle
  3
ObjectDBX Classes
 90
1025
 91
0
280
0
281
0
  0
CLASS
  1
ACDBSECTIONVIEWSTYLE
  2
AcDbSectionViewStyle
  3
ObjectDBX Classes
 90
1025
 91
0
280
0
281
0
  0
CLASS
  1
RASTERVARIABLES
  2
AcDbRasterVariables
  3
ISM
 90
0
 91
0
280
0
281
0
  0
CLASS
  1
LAYOUT
  2
AcDbLayout
  3
ObjectDBX Classes
 90
0
 91
0
280
0
281
0
  0
CLASS
  1
ACDBPLACEHOLDER
  2
AcDbPlaceHolder
  3
ObjectDBX Classes
 90
0
 91
0
280
0
281
0
  0
ENDSEC
  0
SECTION
  2
TABLES
  0
TABLE
  2
VPORT
  5
8
330
0
100
AcDbSymbolTable
 70
1
  0
VPORT
  5
23
330
8
100
AcDbSymbolTableRecord
100
AcDbViewportTableRecord
  2
*Active
 70
0
 10
0.0
 20
0.0
 11
1.0
 21
1.0
 12
0.0
 22
0.0
 13
0.0
 23
0.0
 14
0.5
 24
0.5
 15
0.5
 25
0.5
 16
0.0
 26
0.0
 36
1.0
 17
0.0
 27
0.0
 37
0.0
 40
1000.0
 41
1.34
 42
50.0
 43
0.0
 44
0.0
 50
0.0
 51
0.0
 71
0
 72
1000
 73
1
 74
3
 75
0
 76
0
 77
0
 78
0
281
0
 65
0
146
0.0
  0
ENDTAB
  0
TABLE
  2
LTYPE
  5
2
330
0
100
AcDbSymbolTable
 70
3
  0
LTYPE
  5
24
330
2
100
AcDbSymbolTableRecord
100
AcDbLinetypeTableRecord
  2
ByBlock
 70
0
  3

 72
65
 73
0
 40
0.0
  0
LTYPE
  5
25
330
2
100
AcDbSymbolTableRecord
100
AcDbLinetypeTableRecord
  2
ByLayer
 70
0
  3

 72
65
 73
0
 40
0.0
  0
LTYPE
  5
26
330
2
100
AcDbSymbolTableRecord
100
AcDbLinetypeTableRecord
  2
Continuous
 70
0
  3

 72
65
 73
0
 40
0.0
  0
ENDTAB
  0
TABLE
  2
LAYER
  5
1
330
0
100
AcDbSymbolTable
 70
2
  0
LAYER
  5
27
330
1
100
AcDbSymbolTableRecord
100
AcDbLayerTableRecord
  2
0
 70
0
 62
7
  6
Continuous
370
-3
390
13
347
21
  0
LAYER
  5
28
330
1
100
AcDbSymbolTableRecord
100
AcDbLayerTableRecord
  2
Defpoints
 70
0
 62
7
  6
Continuous
290
0
370
-3
390
13
347
21
  0
ENDTAB
  0
TABLE
  2
STYLE
  5
5
330
0
100
AcDbSymbolTable
 70
1
  0
STYLE
  5
29
330
5
100
AcDbSymbolTableRecord
100
AcDbTextStyleTableRecord
  2
Standard
 70
0
 40
0.0
 41
1.0
 50
0.0
 71
0
 42
2.5
  3
txt
  4

  0
ENDTAB
  0
TABLE
  2
VIEW
  5
7
330
0
100
AcDbSymbolTable
 70
0
  0
ENDTAB
  0
TABLE
  2
UCS
  5
6
330
0
100
AcDbSymbolTable
 70
0
  0
ENDTAB
  0
TABLE
  2
APPID
  5
3
330
0
100
AcDbSymbolTable
 70
3
  0
APPID
  5
2A
330
3
100
AcDbSymbolTableRecord
100
AcDbRegAppTableRecord
  2
ACAD
 70
0
  0
APPID
  5
11C
330
3
100
AcDbSymbolTableRecord
100
AcDbRegAppTableRecord
  2
HATCHBACKGROUNDCOLOR
 70
0
  0
APPID
  5
11D
330
3
100
AcDbSymbolTableRecord
100
AcDbRegAppTableRecord
  2
EZDXF
 70
0
  0
ENDTAB
  0
TABLE
  2
DIMSTYLE
  5
4
330
0
100
AcDbSymbolTable
 70
1
100
AcDbDimStyleTable
  0
DIMSTYLE
105
2B
330
4
100
AcDbSymbolTableRecord
100
AcDbDimStyleTableRecord
  2
Standard
 70
0
 40
1.0
 41
2.5
 42
0.625
 43
3.75
 44
1.25
 45
0.0
 46
0.0
 47
0.0
 48
0.0
 49
2.5
140
2.5
141
2.5
142
0.0
143
0.03937007874
144
1.0
145
0.0
146
1.0
147
0.625
148
0.0
 69
0
 70
0
 71
0
 72
0
 73
0
 74
0
 75
0
 76
0
 77
1
 78
8
 79
3
170
0
171
3
172
1
173
0
174
0
175
0
176
0
177
0
178
0
179
2
271
2
272
2
273
2
274
3
275
0
276
0
277
2
278
44
279
0
280
0
281
0
282
0
283
0
284
8
285
0
286
0
288
0
289
3
290
0
371
-2
372
-2
  0
ENDTAB
  0
TABLE
  2
BLOCK_RECORD
  5
9
330
0
100
AcDbSymbolTable
 70
2
  0
BLOCK_RECORD
  5
17
330
9
100
AcDbSymbolTableRecord
100
AcDbBlockTableRecord
  2
*Model_Space
340
1A
 70
0
280
1
281
0
  0
BLOCK_RECORD
  5
1B
330
9
100
AcDbSymbolTableRecord
100
AcDbBlockTableRecord
  2
*Paper_Space
340
1E
 70
0
280
1
281
0
  0
ENDTAB
  0
ENDSEC
  0
SECTION
  2
BLOCKS
  0
BLOCK
  5
18
330
17
100
AcDbEntity
  8
0
100
AcDbBlockBegin
  2
*Model_Space
 70
0
 10
0.0
 20
0.0
 30
0.0
  3
*Model_Space
  1

  0
ENDBLK
  5
19
330
17
100
AcDbEntity
  8
0
100
AcDbBlockEnd
  0
BLOCK
  5
1C
330
1B
100
AcDbEntity
  8
0
100
AcDbBlockBegin
  2
*Paper_Space
 70
0
 10
0.0
 20
0.0
 30
0.0
  3
*Paper_Space
  1

  0
ENDBLK
  5
1D
330
1B
100
AcDbEntity
  8
0
100
AcDbBlockEnd
  0
ENDSEC
  0
SECTION
  2
ENTITIES
  0
LWPOLYLINE
  5
2F
330
17
100
AcDbEntity
  8
0
 62
7
100
AcDbPolyline
 90
4
 70
1
 10
0.0
 20
0.0
 10
249.0
 20
0.0
 10
249.0
 20
249.0
 10
0.0
 20
249.0
  0
LWPOLYLINE
  5
30
330
17
100
AcDbEntity
  8
0
 62
1
100
AcDbPolyline
 90
7
 70
1
 10
-5.992199999993318
 20
73.25
 10
-5.875
 20
73.125
 10
0.24219999999331776
 20
78.9375
 10
-5.039099999994505
 20
84.3125
 10
-11.156199999997625
 20
78.375
 10
-6.101599999994505
 20
73.15629999997327
 10
-5.992199999993318
 20
73.25
  0
LWPOLYLINE
  5
31
330
17
100
AcDbEntity
  8
0
 62
1
100
AcDbPolyline
 90
5
 70
1
 10
22.6875
 20
83.8125
 10
28.046900000001187
 20
78.28129999997327
 10
34.17969999999332
 20
84.1875
 10
28.835900000005495
 20
89.71879999997327
 10
22.6875
 20
83.8125
  0
LWPOLYLINE
  5
32
330
17
100
AcDbEntity
  8
0
 62
1
100
AcDbPolyline
 90
8
 70
1
 10
6.195300000006682
 20
164.96879999997327
 10
-1.4844000000011874
 20
172.875
 10
-5.148400000005495
 20
169.3125
 10
-6.632800000006682
 20
170.84379999997327
 10
-7.054699999993318
 20
170.4375
 10
0.6015999999945052
 20
162.5625
 10
2.164099999994505
 20
161.0
 10
6.195300000006682
 20
164.96879999997327
  0
LWPOLYLINE
  5
33
330
17
100
AcDbEntity
  8
0
 62
1
100
AcDbPolyline
 90
7
 70
1
 10
21.203099999998813
 20
-5.5
 10
21.101599999994505
 20
-5.625
 10
24.093800000002375
 20
-8.718700000026729
 10
29.570300000006682
 20
-3.4375
 10
26.414099999994505
 20
-0.15620000002672896
 10
21.039099999994505
 20
-5.343700000026729
 10
21.203099999998813
 20
-5.5
  0
LWPOLYLINE
  5
34
330
17
100
AcDbEntity
  8
0
 62
1
100
AcDbPolyline
 90
22
 70
1
 10
105.85940000000119
 20
-1.718700000026729
 10
105.54690000000119
 20
-1.718700000026729
 10
105.44530000000668
 20
-1.8125
 10
112.55469999999332
 20
-9.1875
 10
117.59380000000237
 20
-4.3125
 10
118.61719999999332
 20
-5.375
 10
123.3984000000055
 20
-0.25
 10
115.42190000000119
 20
7.968799999973271
 10
115.40630000000237
 20
7.468799999973271
 10
115.3359000000055
 20
7.406299999973271
 10
114.53130000000237
 20
7.531299999973271
 10
113.01559999999881
 20
6.0625
 10
113.1015999999945
 20
5.25
 10
111.75780000000668
 20
3.968799999973271
 10
111.30469999999332
 20
4.4375
 10
109.0859000000055
 20
2.281299999973271
 10
109.5390999999945
 20
1.8125
 10
108.1875
 20
0.531299999973271
 10
107.375
 20
0.656299999973271
 10
105.8515999999945
 20
-0.843700000026729
 10
105.94530000000668
 20
-1.656200000026729
 10
105.85940000000119
 20
-1.718700000026729
  0
LWPOLYLINE
  5
35
330
17
100
AcDbEntity
  8
0
 62
1
100
AcDbPolyline
 90
7
 70
1
 10
118.61719999999332
 20
-5.375
 10
119.98440000000119
 20
-6.8125
 10
120.09380000000237
 20
-6.6875
 10
120.39059999999881
 20
-7.0
 10
125.32809999999881
 20
-2.25
 10
123.3984000000055
 20
-0.25
 10
118.61719999999332
 20
-5.375
  0
LWPOLYLINE
  5
36
330
17
100
AcDbEntity
  8
0
 62
1
100
AcDbPolyline
 90
5
 70
1
 10
25.468800000002375
 20
168.5625
 10
23.4375
 20
170.65629999997327
 10
21.445300000006682
 20
168.71879999997327
 10
23.476599999994505
 20
166.625
 10
25.468800000002375
 20
168.5625
  0
LWPOLYLINE
  5
37
330
17
100
AcDbEntity
  8
0
 62
1
100
AcDbPolyline
 90
5
 70
1
 10
17.453099999998813
 20
164.84379999997327
 10
15.460900000005495
 20
162.90629999997327
 10
17.492199999993318
 20
160.8125
 10
19.484400000001187
 20
162.75
 10
17.453099999998813
 20
164.84379999997327
  0
LWPOLYLINE
  5
38
330
17
100
AcDbEntity
  8
0
 62
1
100
AcDbPolyline
 90
5
 70
1
 10
28.046900000001187
 20
78.28129999997327
 10
33.398400000005495
 20
72.75
 10
39.523400000005495
 20
78.65629999997327
 10
34.17969999999332
 20
84.1875
 10
28.046900000001187
 20
78.28129999997327
  0
LWPOLYLINE
  5
39
330
17
100
AcDbEntity
  8
0
 62
1
100
AcDbPolyline
 90
7
 70
1
 10
17.648400000005495
 20
89.15629999997327
 10
17.578099999998813
 20
89.09379999997327
 10
22.6875
 20
83.8125
 10
28.835900000005495
 20
89.71879999997327
 10
23.492199999993318
 20
95.28129999997327
 10
17.406300000002375
 20
89.40629999997327
 10
17.648400000005495
 20
89.15629999997327
  0
LWPOLYLINE
  5
3A
330
17
100
AcDbEntity
  8
0
 62
1
100
AcDbPolyline
 90
5
 70
1
 10
35.0
 20
177.84379999997327
 10
37.00780000000668
 20
179.78129999997327
 10
34.98440000000119
 20
181.875
 10
32.976599999994505
 20
179.9375
 10
35.0
 20
177.84379999997327
  0
LWPOLYLINE
  5
3B
330
17
100
AcDbEntity
  8
0
 62
1
100
AcDbPolyline
 90
5
 70
1
 10
-11.281199999997625
 20
40.28129999997327
 10
-5.984400000001187
 20
34.78129999997327
 10
0.11719999999331776
 20
40.65629999997327
 10
-5.1875
 20
46.15629999997327
 10
-11.281199999997625
 20
40.28129999997327
  0
LWPOLYLINE
  5
3C
330
17
100
AcDbEntity
  8
0
 62
1
100
AcDbPolyline
 90
11
 70
1
 10
33.031300000002375
 20
179.875
 10
32.875
 20
179.6875
 10
32.8125
 20
179.75
 10
31.148400000005495
 20
178.15629999997327
 10
31.390599999998813
 20
177.9375
 10
31.203099999998813
 20
177.75
 10
32.898400000005495
 20
175.96879999997327
 10
33.351599999994505
 20
176.34379999997327
 10
33.42190000000119
 20
176.3125
 10
35.0
 20
177.84379999997327
 10
33.031300000002375
 20
179.875
  0
LWPOLYLINE
  5
3D
330
17
100
AcDbEntity
  8
0
 62
1
100
AcDbPolyline
 90
10
 70
1
 10
147.53130000000237
 20
12.281299999973271
 10
137.6875
 20
22.46879999997327
 10
137.5155999999988
 20
22.3125
 10
131.5234000000055
 20
28.5
 10
123.04690000000119
 20
20.40629999997327
 10
123.40630000000237
 20
20.03129999997327
 10
129.13280000000668
 20
14.125
 10
137.6094000000012
 20
22.28129999997327
 10
147.3905999999988
 20
12.156299999973271
 10
147.53130000000237
 20
12.281299999973271
  0
LWPOLYLINE
  5
3E
330
17
100
AcDbEntity
  8
0
 62
1
100
AcDbPolyline
 90
21
 70
1
 10
157.46880000000237
 20
16.9375
 10
139.3280999999988
 20
35.65629999997327
 10
139.1640999999945
 20
35.71879999997327
 10
139.07030000000668
 20
35.71879999997327
 10
138.9765999999945
 20
35.71879999997327
 10
138.84380000000237
 20
35.625
 10
138.4765999999945
 20
35.28129999997327
 10
138.53130000000237
 20
35.21879999997327
 10
131.69530000000668
 20
28.6875
 10
131.5780999999988
 20
28.8125
 10
131.40630000000237
 20
28.625
 10
131.5234000000055
 20
28.5
 10
137.5155999999988
 20
22.3125
 10
137.6875
 20
22.46879999997327
 10
147.53130000000237
 20
12.281299999973271
 10
147.3905999999988
 20
12.156299999973271
 10
152.3359000000055
 20
7.0625
 10
158.1405999999988
 20
12.6875
 10
159.1875
 20
13.718799999973271
 10
156.75780000000668
 20
16.25
 10
157.46880000000237
 20
16.9375
  0
LWPOLYLINE
  5
3F
330
17
100
AcDbEntity
  8
0
 62
1
100
AcDbPolyline
 90
9
 70
1
 10
8.234400000001187
 20
184.9375
 10
5.0
 20
181.96879999997327
 10
4.921900000001187
 20
182.03129999997327
 10
4.781300000002375
 20
181.90629999997327
 10
12.4375
 20
174.03129999997327
 10
16.109400000001187
 20
177.59379999997327
 10
8.453099999998813
 20
185.46879999997327
 10
8.0625
 20
185.09379999997327
 10
8.234400000001187
 20
184.9375
  0
LWPOLYLINE
  5
40
330
17
100
AcDbEntity
  8
0
 62
1
100
AcDbPolyline
 90
6
 70
1
 10
5.367199999993318
 20
35.1875
 10
-0.7186999999976251
 20
29.3125
 10
4.718800000002375
 20
23.6875
 10
10.734400000001187
 20
29.53129999997327
 10
10.75
 20
29.59379999997327
 10
5.367199999993318
 20
35.1875
  0
LWPOLYLINE
  5
41
330
17
100
AcDbEntity
  8
0
 62
1
100
AcDbPolyline
 90
5
 70
1
 10
-1.6796999999933178
 20
70.96879999997327
 10
3.656300000002375
 20
65.4375
 10
9.75
 20
71.3125
 10
4.390599999998813
 20
76.84379999997327
 10
-1.6796999999933178
 20
70.96879999997327
  0
LWPOLYLINE
  5
42
330
17
100
AcDbEntity
  8
0
 62
1
100
AcDbPolyline
 90
29
 70
1
 10
120.8515999999945
 20
18.46879999997327
 10
120.95309999999881
 20
17.65629999997327
 10
120.7109000000055
 20
17.34379999997327
 10
120.57030000000668
 20
17.25
 10
122.98440000000119
 20
14.75
 10
121.85940000000119
 20
13.6875
 10
121.4140999999945
 20
14.125
 10
119.17190000000119
 20
12.0
 10
119.625
 20
11.531299999973271
 10
118.28130000000237
 20
10.25
 10
117.46880000000237
 20
10.375
 10
115.9375
 20
8.906299999973271
 10
116.0390999999945
 20
8.093799999973271
 10
115.95309999999881
 20
8.0
 10
115.67969999999332
 20
8.0
 10
115.55469999999332
 20
7.875
 10
123.44530000000668
 20
-0.3125
 10
124.0625
 20
0.0625
 10
123.75
 20
0.3125
 10
128.78130000000237
 20
4.3125
 10
127.7109000000055
 20
5.4375
 10
129.05469999999332
 20
6.718799999973271
 10
129.07030000000668
 20
7.4375
 10
128.36719999999332
 20
8.156299999973271
 10
131.74219999999332
 20
11.406299999973271
 10
123.40630000000237
 20
20.03129999997327
 10
123.0
 20
19.65629999997327
 10
122.2109000000055
 20
19.78129999997327
 10
120.8515999999945
 20
18.46879999997327
  0
LWPOLYLINE
  5
43
330
17
100
AcDbEntity
  8
0
 62
1
100
AcDbPolyline
 90
7
 70
1
 10
130.40630000000237
 20
2.656299999973271
 10
128.78130000000237
 20
4.3125
 10
123.75
 20
0.3125
 10
124.0625
 20
0.0625
 10
123.44530000000668
 20
-0.3125
 10
125.32809999999881
 20
-2.25
 10
130.40630000000237
 20
2.656299999973271
  0
LWPOLYLINE
  5
44
330
17
100
AcDbEntity
  8
0
 62
1
100
AcDbPolyline
 90
5
 70
1
 10
5.945300000006682
 20
149.625
 10
7.960900000005495
 20
151.5625
 10
5.929699999993318
 20
153.65629999997327
 10
3.914099999994505
 20
151.6875
 10
5.945300000006682
 20
149.625
  0
LWPOLYLINE
  5
45
330
17
100
AcDbEntity
  8
0
 62
1
100
AcDbPolyline
 90
7
 70
1
 10
21.726599999994505
 20
179.96879999997327
 10
25.835900000005495
 20
183.96879999997327
 10
16.656300000002375
 20
193.4375
 10
16.1875
 20
193.0
 10
17.671900000001187
 20
191.46879999997327
 10
14.015599999998813
 20
187.90629999997327
 10
21.726599999994505
 20
179.96879999997327
  0
LWPOLYLINE
  5
46
330
17
100
AcDbEntity
  8
0
 62
1
100
AcDbPolyline
 90
5
 70
1
 10
20.054699999993318
 20
6.4375
 10
16.875
 20
9.75
 10
11.390599999998813
 20
4.468799999973271
 10
14.578099999998813
 20
1.156299999973271
 10
20.054699999993318
 20
6.4375
  0
LWPOLYLINE
  5
47
330
17
100
AcDbEntity
  8
0
 62
1
100
AcDbPolyline
 90
8
 70
1
 10
21.726599999994505
 20
179.96879999997327
 10
14.015599999998813
 20
187.90629999997327
 10
10.351599999994505
 20
184.375
 10
8.867199999993318
 20
185.90629999997327
 10
8.453099999998813
 20
185.46879999997327
 10
16.109400000001187
 20
177.59379999997327
 10
17.679699999993318
 20
176.03129999997327
 10
21.726599999994505
 20
179.96879999997327
  0
LWPOLYLINE
  5
48
330
17
100
AcDbEntity
  8
0
 62
1
100
AcDbPolyline
 90
7
 70
1
 10
0.11719999999331776
 20
40.65629999997327
 10
-5.984400000001187
 20
34.78129999997327
 10
-0.7186999999976251
 20
29.3125
 10
5.296900000001187
 20
35.125
 10
5.132800000006682
 20
35.28129999997327
 10
5.210900000005495
 20
35.34379999997327
 10
0.11719999999331776
 20
40.65629999997327
  0
LWPOLYLINE
  5
49
330
17
100
AcDbEntity
  8
0
 62
1
100
AcDbPolyline
 90
5
 70
1
 10
14.335900000005495
 20
54.34379999997327
 10
19.671900000001187
 20
48.8125
 10
25.796900000001187
 20
54.71879999997327
 10
20.445300000006682
 20
60.25
 10
14.335900000005495
 20
54.34379999997327
  0
LWPOLYLINE
  5
4A
330
17
100
AcDbEntity
  8
0
 62
1
100
AcDbPolyline
 90
5
 70
1
 10
-3.0625
 20
159.0
 10
0.6015999999945052
 20
162.5625
 10
-7.054699999993318
 20
170.4375
 10
-10.710900000005495
 20
166.875
 10
-3.0625
 20
159.0
  0
LWPOLYLINE
  5
4B
330
17
100
AcDbEntity
  8
0
 62
1
100
AcDbPolyline
 90
6
 70
1
 10
4.781300000002375
 20
181.90629999997327
 10
1.2265999999945052
 20
178.46879999997327
 10
1.3671999999933178
 20
178.3125
 10
8.851599999994505
 20
170.5625
 10
12.4375
 20
174.03129999997327
 10
4.781300000002375
 20
181.90629999997327
  0
LWPOLYLINE
  5
4C
330
17
100
AcDbEntity
  8
0
 62
1
100
AcDbPolyline
 90
5
 70
1
 10
21.476599999994505
 20
164.6875
 10
23.476599999994505
 20
166.625
 10
21.445300000006682
 20
168.71879999997327
 10
19.453099999998813
 20
166.78129999997327
 10
21.476599999994505
 20
164.6875
  0
LWPOLYLINE
  5
4D
330
17
100
AcDbEntity
  8
0
 62
1
100
AcDbPolyline
 90
5
 70
1
 10
15.625
 20
65.21879999997327
 10
16.234400000001187
 20
65.40629999997327
 10
14.945300000006682
 20
66.875
 10
14.625
 20
66.25
 10
15.625
 20
65.21879999997327
  0
LWPOLYLINE
  5
4E
330
17
100
AcDbEntity
  8
0
 62
1
100
AcDbPolyline
 90
11
 70
1
 10
16.234400000001187
 20
65.40629999997327
 10
15.625
 20
65.21879999997327
 10
31.148400000005495
 20
49.1875
 10
43.17190000000119
 20
60.75
 10
42.906300000002375
 20
61.03129999997327
 10
43.85940000000119
 20
61.9375
 10
17.335900000005495
 20
89.34379999997327
 10
4.390599999998813
 20
76.84379999997327
 10
14.625
 20
66.25
 10
14.945300000006682
 20
66.875
 10
16.234400000001187
 20
65.40629999997327
  0
LWPOLYLINE
  5
4F
330
17
100
AcDbEntity
  8
0
 62
1
100
AcDbPolyline
 90
7
 70
1
 10
9.75
 20
71.3125
 10
3.8046999999933178
 20
65.5625
 10
4.179699999993318
 20
65.15629999997327
 10
4.070300000006682
 20
65.0
 10
9.0
 20
59.90629999997327
 10
15.101599999994505
 20
65.78129999997327
 10
9.75
 20
71.3125
  0
LWPOLYLINE
  5
50
330
17
100
AcDbEntity
  8
0
 62
1
100
AcDbPolyline
 90
7
 70
1
 10
44.11719999999332
 20
61.6875
 10
47.17190000000119
 20
64.625
 10
47.093800000002375
 20
64.71879999997327
 10
50.156300000002375
 20
67.625
 10
44.86719999999332
 20
73.125
 10
38.75
 20
67.21879999997327
 10
44.11719999999332
 20
61.6875
  0
LWPOLYLINE
  5
51
330
17
100
AcDbEntity
  8
0
 62
1
100
AcDbPolyline
 90
7
 70
1
 10
9.593800000002375
 20
59.5
 10
9.492199999993318
 20
59.375
 10
14.335900000005495
 20
54.34379999997327
 10
20.445300000006682
 20
60.25
 10
15.101599999994505
 20
65.78129999997327
 10
9.117199999993318
 20
60.0
 10
9.593800000002375
 20
59.5
  0
LWPOLYLINE
  5
52
330
17
100
AcDbEntity
  8
0
 62
1
100
AcDbPolyline
 90
5
 70
1
 10
34.98440000000119
 20
181.875
 10
37.00780000000668
 20
179.78129999997327
 10
39.01559999999881
 20
181.71879999997327
 10
36.99219999999332
 20
183.8125
 10
34.98440000000119
 20
181.875
  0
LWPOLYLINE
  5
53
330
17
100
AcDbEntity
  8
0
 62
1
100
AcDbPolyline
 90
5
 70
1
 10
26.414099999994505
 20
-0.15620000002672896
 10
23.242199999993318
 20
3.125
 10
17.757800000006682
 20
-2.156200000026729
 10
20.929699999993318
 20
-5.4375
 10
26.414099999994505
 20
-0.15620000002672896
  0
LWPOLYLINE
  5
54
330
17
100
AcDbEntity
  8
0
 62
1
100
AcDbPolyline
 90
5
 70
1
 10
33.398400000005495
 20
72.75
 10
38.75
 20
67.21879999997327
 10
44.86719999999332
 20
73.125
 10
39.523400000005495
 20
78.65629999997327
 10
33.398400000005495
 20
72.75
  0
LWPOLYLINE
  5
55
330
17
100
AcDbEntity
  8
0
 62
1
100
AcDbPolyline
 90
5
 70
1
 10
5.945300000006682
 20
149.625
 10
3.914099999994505
 20
151.6875
 10
2.101599999994505
 20
149.9375
 10
4.015599999998813
 20
147.75
 10
5.945300000006682
 20
149.625
  0
LWPOLYLINE
  5
56
330
17
100
AcDbEntity
  8
0
 62
1
100
AcDbPolyline
 90
5
 70
1
 10
55.156300000002375
 20
2.0625
 10
55.351599999994505
 20
2.25
 10
52.67190000000119
 20
5.031299999973271
 10
52.48440000000119
 20
4.843799999973271
 10
55.156300000002375
 20
2.0625
  0
LWPOLYLINE
  5
57
330
17
100
AcDbEntity
  8
0
 62
1
100
AcDbPolyline
 90
6
 70
1
 10
71.28130000000237
 20
56.40629999997327
 10
73.1640999999945
 20
56.875
 10
73.6484000000055
 20
57.6875
 10
72.3515999999945
 20
59.03129999997327
 10
70.1640999999945
 20
56.625
 10
71.28130000000237
 20
56.40629999997327
  0
LWPOLYLINE
  5
58
330
17
100
AcDbEntity
  8
0
 62
1
100
AcDbPolyline
 90
14
 70
1
 10
55.539099999994505
 20
1.656299999973271
 10
67.1484000000055
 20
12.843799999973271
 10
67.19530000000668
 20
13.343799999973271
 10
63.63280000000668
 20
15.781299999973271
 10
54.476599999994505
 20
6.781299999973271
 10
44.75780000000668
 20
16.78129999997327
 10
54.29690000000119
 20
26.03129999997327
 10
45.73440000000119
 20
35.0625
 10
34.10940000000119
 20
23.875
 10
52.48440000000119
 20
4.843799999973271
 10
52.67190000000119
 20
5.031299999973271
 10
55.351599999994505
 20
2.25
 10
55.156300000002375
 20
2.0625
 10
55.539099999994505
 20
1.656299999973271
  0
LWPOLYLINE
  5
59
330
17
100
AcDbEntity
  8
0
 62
1
100
AcDbPolyline
 90
13
 70
1
 10
63.63280000000668
 20
15.781299999973271
 10
89.67190000000119
 20
41.34379999997327
 10
88.09380000000237
 20
42.96879999997327
 10
86.84380000000237
 20
45.59379999997327
 10
85.30469999999332
 20
45.8125
 10
84.32030000000668
 20
46.8125
 10
83.98440000000119
 20
47.9375
 10
83.4375
 20
47.71879999997327
 10
80.10940000000119
 20
51.09379999997327
 10
54.29690000000119
 20
26.03129999997327
 10
44.75780000000668
 20
16.78129999997327
 10
54.476599999994505
 20
6.781299999973271
 10
63.63280000000668
 20
15.781299999973271
  0
LWPOLYLINE
  5
5A
330
17
100
AcDbEntity
  8
0
 62
1
100
AcDbPolyline
 90
16
 70
1
 10
75.07809999999881
 20
56.25
 10
76.39059999999881
 20
57.46879999997327
 10
74.7734000000055
 20
56.53129999997327
 10
73.6484000000055
 20
57.6875
 10
73.1640999999945
 20
56.875
 10
71.28130000000237
 20
56.40629999997327
 10
70.1640999999945
 20
56.625
 10
72.3515999999945
 20
59.03129999997327
 10
71.50780000000668
 20
59.875
 10
71.28130000000237
 20
60.09379999997327
 10
68.74219999999332
 20
57.65629999997327
 10
68.92969999999332
 20
57.40629999997327
 10
45.73440000000119
 20
35.0625
 10
54.29690000000119
 20
26.03129999997327
 10
80.10940000000119
 20
51.09379999997327
 10
75.07809999999881
 20
56.25
  0
LWPOLYLINE
  5
5B
330
17
100
AcDbEntity
  8
0
 62
1
100
AcDbPolyline
 90
23
 70
1
 10
104.29690000000119
 20
49.3125
 10
104.67969999999332
 20
49.6875
 10
83.50780000000668
 20
71.5625
 10
71.50780000000668
 20
59.875
 10
72.3515999999945
 20
59.03129999997327
 10
73.6484000000055
 20
57.6875
 10
74.7734000000055
 20
56.53129999997327
 10
76.39059999999881
 20
57.46879999997327
 10
75.07809999999881
 20
56.25
 10
80.10940000000119
 20
51.09379999997327
 10
83.4375
 20
47.71879999997327
 10
83.98440000000119
 20
47.9375
 10
84.32030000000668
 20
46.8125
 10
85.30469999999332
 20
45.8125
 10
86.84380000000237
 20
45.59379999997327
 10
88.09380000000237
 20
42.96879999997327
 10
89.67190000000119
 20
41.34379999997327
 10
89.78130000000237
 20
41.25
 10
93.44530000000668
 20
38.8125
 10
92.78130000000237
 20
38.1875
 10
93.1015999999945
 20
37.84379999997327
 10
104.63280000000668
 20
48.96879999997327
 10
104.29690000000119
 20
49.3125
  0
LWPOLYLINE
  5
5C
330
17
100
AcDbEntity
  8
0
 62
1
100
AcDbPolyline
 90
9
 70
1
 10
89.67190000000119
 20
41.34379999997327
 10
63.63280000000668
 20
15.781299999973271
 10
67.19530000000668
 20
13.343799999973271
 10
67.1484000000055
 20
12.843799999973271
 10
93.1015999999945
 20
37.84379999997327
 10
92.78130000000237
 20
38.1875
 10
93.44530000000668
 20
38.8125
 10
89.78130000000237
 20
41.25
 10
89.67190000000119
 20
41.34379999997327
  0
LWPOLYLINE
  5
5D
330
17
100
AcDbEntity
  8
0
 62
1
100
AcDbPolyline
 90
7
 70
1
 10
8.406300000002375
 20
7.6875
 10
8.351599999994505
 20
7.625
 10
11.390599999998813
 20
4.468799999973271
 10
16.875
 20
9.75
 10
13.429699999993318
 20
13.3125
 10
8.015599999998813
 20
8.093799999973271
 10
8.406300000002375
 20
7.6875
  0
LWPOLYLINE
  5
5E
330
17
100
AcDbEntity
  8
0
 62
1
100
AcDbPolyline
 90
7
 70
1
 10
81.8515999999945
 20
103.25
 10
81.76559999999881
 20
103.25
 10
81.73440000000119
 20
103.6875
 10
77.98440000000119
 20
103.53129999997327
 10
78.21880000000237
 20
99.5
 10
82.0
 20
99.65629999997327
 10
81.8515999999945
 20
103.25
  0
LWPOLYLINE
  5
5F
330
17
100
AcDbEntity
  8
0
 62
1
100
AcDbPolyline
 90
5
 70
1
 10
51.273400000005495
 20
156.03129999997327
 10
34.54690000000119
 20
173.25
 10
30.421900000001187
 20
169.21879999997327
 10
47.10940000000119
 20
151.96879999997327
 10
51.273400000005495
 20
156.03129999997327
  0
LWPOLYLINE
  5
60
330
17
100
AcDbEntity
  8
0
 62
1
100
AcDbPolyline
 90
7
 70
1
 10
19.960900000005495
 20
48.90629999997327
 10
19.773400000005495
 20
48.71879999997327
 10
25.007800000006682
 20
43.28129999997327
 10
31.148400000005495
 20
49.1875
 10
25.796900000001187
 20
54.71879999997327
 10
19.875
 20
49.0
 10
19.960900000005495
 20
48.90629999997327
  0
LWPOLYLINE
  5
61
330
17
100
AcDbEntity
  8
0
 62
1
100
AcDbPolyline
 90
23
 70
1
 10
114.11719999999332
 20
-10.781200000026729
 10
105.39059999999881
 20
-1.75
 10
105.3359000000055
 20
-1.8125
 10
105.3359000000055
 20
-2.218700000026729
 10
105.25780000000668
 20
-2.3125
 10
104.44530000000668
 20
-2.1875
 10
102.92969999999332
 20
-3.656200000026729
 10
103.01559999999881
 20
-4.468700000026729
 10
101.67190000000119
 20
-5.75
 10
101.21880000000237
 20
-5.3125
 10
99.00780000000668
 20
-7.4375
 10
99.45309999999881
 20
-7.906200000026729
 10
98.1015999999945
 20
-9.218700000026729
 10
97.2890999999945
 20
-9.093700000026729
 10
95.76559999999881
 20
-10.5625
 10
95.85940000000119
 20
-11.375
 10
95.78130000000237
 20
-11.4375
 10
95.28130000000237
 20
-11.406200000026729
 10
102.49219999999332
 20
-18.875
 10
107.57030000000668
 20
-13.968700000026729
 10
108.57030000000668
 20
-15.0
 10
108.82030000000668
 20
-14.8125
 10
114.11719999999332
 20
-10.781200000026729
  0
LWPOLYLINE
  5
62
330
17
100
AcDbEntity
  8
0
 62
1
100
AcDbPolyline
 90
5
 70
1
 10
19.484400000001187
 20
162.75
 10
21.476599999994505
 20
164.6875
 10
19.453099999998813
 20
166.78129999997327
 10
17.453099999998813
 20
164.84379999997327
 10
19.484400000001187
 20
162.75
  0
LWPOLYLINE
  5
63
330
17
100
AcDbEntity
  8
0
 62
1
100
AcDbPolyline
 90
5
 70
1
 10
9.968800000002375
 20
153.53129999997327
 10
7.9375
 20
155.625
 10
5.929699999993318
 20
153.65629999997327
 10
7.960900000005495
 20
151.5625
 10
9.968800000002375
 20
153.53129999997327
  0
LWPOLYLINE
  5
64
330
17
100
AcDbEntity
  8
0
 62
1
100
AcDbPolyline
 90
5
 70
1
 10
14.578099999998813
 20
1.156299999973271
 10
17.757800000006682
 20
-2.156200000026729
 10
23.242199999993318
 20
3.125
 10
20.054699999993318
 20
6.4375
 10
14.578099999998813
 20
1.156299999973271
  0
LWPOLYLINE
  5
65
330
17
100
AcDbEntity
  8
0
 62
1
100
AcDbPolyline
 90
5
 70
1
 10
57.39059999999881
 20
161.96879999997327
 10
59.75
 20
164.34379999997327
 10
57.101599999994505
 20
167.0
 10
54.74219999999332
 20
164.65629999997327
 10
57.39059999999881
 20
161.96879999997327
  0
LWPOLYLINE
  5
66
330
17
100
AcDbEntity
  8
0
 62
1
100
AcDbPolyline
 90
10
 70
1
 10
6.195300000006682
 20
164.96879999997327
 10
10.289099999994505
 20
169.0
 10
8.851599999994505
 20
170.5625
 10
1.1953000000066822
 20
178.4375
 10
0.6953000000066822
 20
177.9375
 10
2.1796999999933178
 20
176.4375
 10
-0.9453000000066822
 20
173.40629999997327
 10
-0.8671999999933178
 20
173.25
 10
-1.3671999999933178
 20
172.75
 10
6.195300000006682
 20
164.96879999997327
  0
LWPOLYLINE
  5
67
330
17
100
AcDbEntity
  8
0
 62
1
100
AcDbPolyline
 90
7
 70
1
 10
32.69530000000668
 20
259.875
 10
32.75
 20
259.8125
 10
31.335900000005495
 20
254.75
 10
37.70309999999881
 20
248.1875
 10
41.35940000000119
 20
251.75
 10
33.085900000005495
 20
260.28129999997327
 10
32.69530000000668
 20
259.875
  0
LWPOLYLINE
  5
68
330
17
100
AcDbEntity
  8
0
 62
1
100
AcDbPolyline
 90
9
 70
1
 10
25.789099999994505
 20
253.125
 10
25.695300000006682
 20
252.75
 10
25.531300000002375
 20
252.9375
 10
25.367199999993318
 20
252.78129999997327
 10
25.429699999993318
 20
252.71879999997327
 10
24.015599999998813
 20
247.625
 10
30.382800000006682
 20
241.0625
 10
34.039099999994505
 20
244.625
 10
25.789099999994505
 20
253.125
  0
LWPOLYLINE
  5
69
330
17
100
AcDbEntity
  8
0
 62
1
100
AcDbPolyline
 90
5
 70
1
 10
4.296900000001187
 20
213.5
 10
11.960900000005495
 20
205.59379999997327
 10
16.054699999993318
 20
209.5625
 10
8.367199999993318
 20
217.46879999997327
 10
4.296900000001187
 20
213.5
  0
LWPOLYLINE
  5
6A
330
17
100
AcDbEntity
  8
0
 62
1
100
AcDbPolyline
 90
6
 70
1
 10
31.984400000001187
 20
193.0
 10
30.804699999993318
 20
194.3125
 10
24.382800000006682
 20
200.9375
 10
20.281300000002375
 20
196.96879999997327
 10
27.945300000006682
 20
189.0625
 10
31.984400000001187
 20
193.0
  0
LWPOLYLINE
  5
6B
330
17
100
AcDbEntity
  8
0
 62
1
100
AcDbPolyline
 90
7
 70
1
 10
2.726599999994505
 20
199.59379999997327
 10
6.398400000005495
 20
203.15629999997327
 10
7.875
 20
201.625
 10
8.351599999994505
 20
202.09379999997327
 10
-0.8125
 20
211.53129999997327
 10
-4.960900000005495
 20
207.53129999997327
 10
2.726599999994505
 20
199.59379999997327
  0
LWPOLYLINE
  5
6C
330
17
100
AcDbEntity
  8
0
 62
1
100
AcDbPolyline
 90
7
 70
1
 10
16.445300000006682
 20
240.40629999997327
 10
16.851599999994505
 20
240.0
 10
16.726599999994505
 20
239.84379999997327
 10
22.726599999994505
 20
233.65629999997327
 10
26.718800000002375
 20
237.53129999997327
 10
20.289099999994505
 20
244.15629999997327
 10
16.445300000006682
 20
240.40629999997327
  0
LWPOLYLINE
  5
6D
330
17
100
AcDbEntity
  8
0
 62
1
100
AcDbPolyline
 90
7
 70
1
 10
-2.523400000005495
 20
224.59379999997327
 10
-2.726599999994505
 20
224.28129999997327
 10
-3.031199999997625
 20
224.4375
 10
-4.695300000006682
 20
222.84379999997327
 10
-2.664099999994505
 20
220.71879999997327
 10
-0.6561999999976251
 20
222.6875
 10
-2.523400000005495
 20
224.59379999997327
  0
LWPOLYLINE
  5
6E
330
17
100
AcDbEntity
  8
0
 62
1
100
AcDbPolyline
 90
5
 70
1
 10
16.656300000002375
 20
193.4375
 10
24.3125
 20
185.5625
 10
27.945300000006682
 20
189.0625
 10
20.281300000002375
 20
196.96879999997327
 10
16.656300000002375
 20
193.4375
  0
LWPOLYLINE
  5
6F
330
17
100
AcDbEntity
  8
0
 62
1
100
AcDbPolyline
 90
9
 70
1
 10
2.468800000002375
 20
199.34379999997327
 10
2.414099999994505
 20
199.40629999997327
 10
2.6719000000011874
 20
199.65629999997327
 10
-4.960900000005495
 20
207.53129999997327
 10
-9.031199999997625
 20
203.5625
 10
0.125
 20
194.125
 10
0.5390999999945052
 20
194.53129999997327
 10
-0.9375
 20
196.03129999997327
 10
2.468800000002375
 20
199.34379999997327
  0
LWPOLYLINE
  5
70
330
17
100
AcDbEntity
  8
0
 62
1
100
AcDbPolyline
 90
9
 70
1
 10
29.5625
 20
256.5
 10
29.578099999998813
 20
256.5625
 10
29.398400000005495
 20
256.6875
 10
29.031300000002375
 20
256.3125
 10
29.085900000005495
 20
256.28129999997327
 10
27.679699999993318
 20
251.1875
 10
34.039099999994505
 20
244.625
 10
37.70309999999881
 20
248.1875
 10
29.5625
 20
256.5
  0
LWPOLYLINE
  5
71
330
17
100
AcDbEntity
  8
0
 62
1
100
AcDbPolyline
 90
5
 70
1
 10
0.125
 20
194.125
 10
-7.539099999994505
 20
202.03129999997327
 10
-11.218699999997625
 20
198.4375
 10
-3.5546999999933178
 20
190.5625
 10
0.125
 20
194.125
  0
LWPOLYLINE
  5
72
330
17
100
AcDbEntity
  8
0
 62
1
100
AcDbPolyline
 90
7
 70
1
 10
30.382800000006682
 20
241.0625
 10
22.148400000005495
 20
249.5625
 10
20.640599999998813
 20
244.125
 10
20.429699999993318
 20
244.34379999997327
 10
20.359400000001187
 20
244.09379999997327
 10
26.718800000002375
 20
237.53129999997327
 10
30.382800000006682
 20
241.0625
  0
LWPOLYLINE
  5
73
330
17
100
AcDbEntity
  8
0
 62
1
100
AcDbPolyline
 90
5
 70
1
 10
8.351599999994505
 20
202.09379999997327
 10
11.960900000005495
 20
205.59379999997327
 10
4.296900000001187
 20
213.5
 10
0.6796999999933178
 20
210.0
 10
8.351599999994505
 20
202.09379999997327
  0
LWPOLYLINE
  5
74
330
17
100
AcDbEntity
  8
0
 62
1
100
AcDbPolyline
 90
5
 70
1
 10
231.0625
 20
2.718799999973271
 10
232.65630000000237
 20
4.281299999973271
 10
230.3125
 20
6.6875
 10
228.71880000000237
 20
5.156299999973271
 10
231.0625
 20
2.718799999973271
  0
LWPOLYLINE
  5
75
330
17
100
AcDbEntity
  8
0
 62
1
100
AcDbPolyline
 90
5
 70
1
 10
245.875
 20
37.1875
 10
247.38280000000668
 20
35.625
 10
249.80469999999332
 20
37.96879999997327
 10
248.30469999999332
 20
39.53129999997327
 10
245.875
 20
37.1875
  0
LWPOLYLINE
  5
76
330
17
100
AcDbEntity
  8
0
 62
1
100
AcDbPolyline
 90
7
 70
1
 10
252.34380000000237
 20
10.3125
 10
247.9140999999945
 20
5.968799999973271
 10
253.34380000000237
 20
0.375
 10
257.6796999999933
 20
4.5625
 10
257.7969000000012
 20
4.468799999973271
 10
257.9375
 20
4.593799999973271
 10
252.34380000000237
 20
10.3125
  0
LWPOLYLINE
  5
77
330
17
100
AcDbEntity
  8
0
 62
1
100
AcDbPolyline
 90
5
 70
1
 10
235.0780999999988
 20
19.4375
 10
236.5625
 20
17.875
 10
239.0155999999988
 20
20.1875
 10
237.50780000000668
 20
21.75
 10
235.0780999999988
 20
19.4375
  0
LWPOLYLINE
  5
78
330
17
100
AcDbEntity
  8
0
 62
1
100
AcDbPolyline
 90
7
 70
1
 10
224.2344000000012
 20
8.625
 10
216.0780999999988
 20
17.0
 10
208.42969999999332
 20
9.5625
 10
215.3359000000055
 20
2.5
 10
221.4765999999945
 20
8.406299999973271
 10
222.7030999999988
 20
7.156299999973271
 10
224.2344000000012
 20
8.625
  0
LWPOLYLINE
  5
79
330
17
100
AcDbEntity
  8
0
 62
1
100
AcDbPolyline
 90
5
 70
1
 10
246.9765999999945
 20
40.875
 10
244.5155999999988
 20
38.5625
 10
245.875
 20
37.1875
 10
248.30469999999332
 20
39.53129999997327
 10
246.9765999999945
 20
40.875
  0
LWPOLYLINE
  5
7A
330
17
100
AcDbEntity
  8
0
 62
1
100
AcDbPolyline
 90
5
 70
1
 10
243.49219999999332
 20
1.8125
 10
239.13280000000668
 20
-2.406200000026729
 10
244.63280000000668
 20
-8.093700000026729
 10
248.99219999999332
 20
-3.843700000026729
 10
243.49219999999332
 20
1.8125
  0
LWPOLYLINE
  5
7B
330
17
100
AcDbEntity
  8
0
 62
1
100
AcDbPolyline
 90
5
 70
1
 10
240.86719999999332
 20
10.843799999973271
 10
243.28130000000237
 20
13.1875
 10
241.78130000000237
 20
14.718799999973271
 10
239.3594000000012
 20
12.375
 10
240.86719999999332
 20
10.843799999973271
  0
LWPOLYLINE
  5
7C
330
17
100
AcDbEntity
  8
0
 62
1
100
AcDbPolyline
 90
5
 70
1
 10
161.6405999999988
 20
12.593799999973271
 10
160.3280999999988
 20
13.906299999973271
 10
158.6719000000012
 20
12.125
 10
159.875
 20
10.906299999973271
 10
161.6405999999988
 20
12.593799999973271
  0
LWPOLYLINE
  5
7D
330
17
100
AcDbEntity
  8
0
 62
1
100
AcDbPolyline
 90
7
 70
1
 10
160.1640999999945
 20
14.125
 10
159.88280000000668
 20
14.406299999973271
 10
159.1875
 20
13.718799999973271
 10
158.1405999999988
 20
12.6875
 10
158.6719000000012
 20
12.125
 10
160.3280999999988
 20
13.906299999973271
 10
160.1640999999945
 20
14.125
  0
LWPOLYLINE
  5
7E
330
17
100
AcDbEntity
  8
0
 62
1
100
AcDbPolyline
 90
9
 70
1
 10
172.7655999999988
 20
0.75
 10
172.9140999999945
 20
0.906299999973271
 10
166.5155999999988
 20
7.531299999973271
 10
166.46880000000237
 20
7.468799999973271
 10
165.4530999999988
 20
8.5625
 10
161.05469999999332
 20
4.3125
 10
168.6405999999988
 20
-3.531200000026729
 10
172.92969999999332
 20
0.593799999973271
 10
172.7655999999988
 20
0.75
  0
LWPOLYLINE
  5
7F
330
17
100
AcDbEntity
  8
0
 62
1
100
AcDbPolyline
 90
12
 70
1
 10
228.1640999999945
 20
48.8125
 10
228.2734000000055
 20
48.71879999997327
 10
230.2030999999988
 20
46.6875
 10
230.1015999999945
 20
46.59379999997327
 10
230.63280000000668
 20
46.03129999997327
 10
230.8280999999988
 20
46.21879999997327
 10
233.7030999999988
 20
43.40629999997327
 10
233.5469000000012
 20
43.28129999997327
 10
233.65630000000237
 20
43.15629999997327
 10
238.11719999999332
 20
47.5
 10
232.6094000000012
 20
53.15629999997327
 10
228.1640999999945
 20
48.8125
  0
LWPOLYLINE
  5
80
330
17
100
AcDbEntity
  8
0
 62
1
100
AcDbPolyline
 90
7
 70
1
 10
227.7344000000012
 20
55.625
 10
229.0859000000055
 20
54.25
 10
229.2109000000055
 20
54.375
 10
229.38280000000668
 20
54.1875
 10
231.6875
 20
56.4375
 10
230.1719000000012
 20
58.0
 10
227.7344000000012
 20
55.625
  0
LWPOLYLINE
  5
81
330
17
100
AcDbEntity
  8
0
 62
1
100
AcDbPolyline
 90
5
 70
1
 10
153.625
 20
-5.093700000026729
 10
156.7109000000055
 20
0.28129999997327104
 10
155.67969999999332
 20
1.343799999973271
 10
151.1640999999945
 20
-2.531200000026729
 10
153.625
 20
-5.093700000026729
  0
LWPOLYLINE
  5
82
330
17
100
AcDbEntity
  8
0
 62
1
100
AcDbPolyline
 90
5
 70
1
 10
156.7109000000055
 20
0.28129999997327104
 10
153.625
 20
-5.093700000026729
 10
160.09380000000237
 20
-11.781200000026729
 10
164.36719999999332
 20
-7.656200000026729
 10
156.7109000000055
 20
0.28129999997327104
  0
LWPOLYLINE
  5
83
330
17
100
AcDbEntity
  8
0
 62
1
100
AcDbPolyline
 90
5
 70
1
 10
226.21880000000237
 20
57.1875
 10
227.7344000000012
 20
55.625
 10
230.1719000000012
 20
58.0
 10
228.65630000000237
 20
59.5625
 10
226.21880000000237
 20
57.1875
  0
LWPOLYLINE
  5
84
330
17
100
AcDbEntity
  8
0
 62
1
100
AcDbPolyline
 90
7
 70
1
 10
230.4844000000012
 20
6.5
 10
232.65630000000237
 20
4.281299999973271
 10
234.1719000000012
 20
5.75
 10
231.82030000000668
 20
8.156299999973271
 10
230.4375
 20
6.8125
 10
230.6015999999945
 20
6.656299999973271
 10
230.4844000000012
 20
6.5
  0
LWPOLYLINE
  5
85
330
17
100
AcDbEntity
  8
0
 62
1
100
AcDbPolyline
 90
12
 70
1
 10
237.4140999999945
 20
28.5
 10
235.8125
 20
30.03129999997327
 10
235.96880000000237
 20
30.1875
 10
235.7265999999945
 20
30.4375
 10
235.6405999999988
 20
30.34379999997327
 10
233.0234000000055
 20
33.0625
 10
232.82030000000668
 20
32.875
 10
232.6484000000055
 20
33.03129999997327
 10
228.34380000000237
 20
28.90629999997327
 10
233.78130000000237
 20
23.15629999997327
 10
238.3359000000055
 20
27.53129999997327
 10
237.4140999999945
 20
28.5
  0
LWPOLYLINE
  5
86
330
17
100
AcDbEntity
  8
0
 62
1
100
AcDbPolyline
 90
5
 70
1
 10
242.49219999999332
 20
51.75
 10
246.8594000000012
 20
55.96879999997327
 10
241.34380000000237
 20
61.65629999997327
 10
236.9765999999945
 20
57.40629999997327
 10
242.49219999999332
 20
51.75
  0
LWPOLYLINE
  5
87
330
17
100
AcDbEntity
  8
0
 62
1
100
AcDbPolyline
 90
9
 70
1
 10
224.5469000000012
 20
11.375
 10
230.8594000000012
 20
17.46879999997327
 10
229.40630000000237
 20
18.96879999997327
 10
229.3515999999945
 20
18.90629999997327
 10
223.88280000000668
 20
24.59379999997327
 10
216.0780999999988
 20
17.0
 10
224.2344000000012
 20
8.625
 10
225.7734000000055
 20
10.093799999973271
 10
224.5469000000012
 20
11.375
  0
LWPOLYLINE
  5
88
330
17
100
AcDbEntity
  8
0
 62
1
100
AcDbPolyline
 90
9
 70
1
 10
248.67969999999332
 20
63.3125
 10
248.0155999999988
 20
64.0
 10
247.90630000000237
 20
63.90629999997327
 10
245.8280999999988
 20
66.03129999997327
 10
241.34380000000237
 20
61.65629999997327
 10
246.8594000000012
 20
55.96879999997327
 10
251.3515999999945
 20
60.34379999997327
 10
248.57030000000668
 20
63.21879999997327
 10
248.67969999999332
 20
63.3125
  0
LWPOLYLINE
  5
89
330
17
100
AcDbEntity
  8
0
 62
1
100
AcDbPolyline
 90
35
 70
1
 10
176.3125
 20
24.625
 10
174.59380000000237
 20
22.96879999997327
 10
174.6015999999945
 20
22.90629999997327
 10
174.6484000000055
 20
22.84379999997327
 10
174.74219999999332
 20
22.8125
 10
175.8905999999988
 20
21.59379999997327
 10
175.8905999999988
 20
21.53129999997327
 10
175.9140999999945
 20
21.5
 10
175.9530999999988
 20
21.4375
 10
176.0
 20
21.40629999997327
 10
176.05469999999332
 20
21.40629999997327
 10
177.4140999999945
 20
20.0
 10
177.32030000000668
 20
19.90629999997327
 10
185.6015999999945
 20
11.156299999973271
 10
212.0780999999988
 20
36.21879999997327
 10
201.0469000000012
 20
47.84379999997327
 10
194.9140999999945
 20
42.03129999997327
 10
196.57030000000668
 20
40.3125
 10
195.74219999999332
 20
39.5
 10
195.74219999999332
 20
39.25
 10
188.0
 20
31.875
 10
185.8594000000012
 20
34.25
 10
178.57030000000668
 20
42.0625
 10
178.75780000000668
 20
42.4375
 10
178.75780000000668
 20
42.9375
 10
178.49219999999332
 20
43.375
 10
178.0859000000055
 20
43.625
 10
177.6015999999945
 20
43.625
 10
177.15630000000237
 20
43.40629999997327
 10
176.8905999999988
 20
43.0
 10
176.86719999999332
 20
42.53129999997327
 10
177.1405999999988
 20
42.03129999997327
 10
167.9765999999945
 20
33.34379999997327
 10
168.2344000000012
 20
33.09379999997327
 10
176.3125
 20
24.625
  0
LWPOLYLINE
  5
8A
330
17
100
AcDbEntity
  8
0
 62
1
100
AcDbPolyline
 90
17
 70
1
 10
174.59380000000237
 20
22.96879999997327
 10
176.3125
 20
24.625
 10
168.2344000000012
 20
33.09379999997327
 10
169.1405999999988
 20
32.0625
 10
167.5780999999988
 20
30.625
 10
167.5234000000055
 20
30.59379999997327
 10
167.46880000000237
 20
30.5625
 10
167.67969999999332
 20
30.34379999997327
 10
168.75
 20
29.125
 10
168.75
 20
29.09379999997327
 10
168.80469999999332
 20
29.0
 10
168.8984000000055
 20
28.96879999997327
 10
172.2265999999945
 20
25.46879999997327
 10
172.24219999999332
 20
25.375
 10
172.28130000000237
 20
25.34379999997327
 10
172.375
 20
25.3125
 10
174.59380000000237
 20
22.96879999997327
  0
LWPOLYLINE
  5
8B
330
17
100
AcDbEntity
  8
0
 62
1
100
AcDbPolyline
 90
5
 70
1
 10
164.36719999999332
 20
-7.656200000026729
 10
168.6405999999988
 20
-3.531200000026729
 10
161.05469999999332
 20
4.3125
 10
156.78130000000237
 20
0.1875
 10
164.36719999999332
 20
-7.656200000026729
  0
LWPOLYLINE
  5
8C
330
17
100
AcDbEntity
  8
0
 62
1
100
AcDbPolyline
 90
5
 70
1
 10
223.9140999999945
 20
-4.1875
 10
221.65630000000237
 20
-1.875
 10
220.11719999999332
 20
-3.4375
 10
222.3359000000055
 20
-5.718700000026729
 10
223.9140999999945
 20
-4.1875
  0
LWPOLYLINE
  5
8D
330
17
100
AcDbEntity
  8
0
 62
1
100
AcDbPolyline
 90
5
 70
1
 10
223.09380000000237
 20
-0.28120000002672896
 10
221.5625
 20
-1.781200000026729
 10
223.9140999999945
 20
-4.1875
 10
225.4375
 20
-2.718700000026729
 10
223.09380000000237
 20
-0.28120000002672896
  0
LWPOLYLINE
  5
8E
330
17
100
AcDbEntity
  8
0
 62
1
100
AcDbPolyline
 90
5
 70
1
 10
229.3515999999945
 20
18.90629999997327
 10
233.78130000000237
 20
23.15629999997327
 10
228.34380000000237
 20
28.90629999997327
 10
223.88280000000668
 20
24.59379999997327
 10
229.3515999999945
 20
18.90629999997327
  0
LWPOLYLINE
  5
8F
330
17
100
AcDbEntity
  8
0
 62
1
100
AcDbPolyline
 90
6
 70
1
 10
243.55469999999332
 20
1.875
 10
243.49219999999332
 20
1.8125
 10
248.99219999999332
 20
-3.843700000026729
 10
253.34380000000237
 20
0.375
 10
247.84380000000237
 20
6.031299999973271
 10
243.55469999999332
 20
1.875
  0
LWPOLYLINE
  5
90
330
17
100
AcDbEntity
  8
0
 62
1
100
AcDbPolyline
 90
5
 70
1
 10
236.5625
 20
17.875
 10
238.07030000000668
 20
16.3125
 10
240.5
 20
18.65629999997327
 10
239.0155999999988
 20
20.1875
 10
236.5625
 20
17.875
  0
LWPOLYLINE
  5
91
330
17
100
AcDbEntity
  8
0
 62
1
100
AcDbPolyline
 90
5
 70
1
 10
209.7109000000055
 20
-3.531200000026729
 10
210.4530999999988
 20
-4.531200000026729
 10
212.34380000000237
 20
-2.718700000026729
 10
211.3515999999945
 20
-1.6875
 10
209.7109000000055
 20
-3.531200000026729
  0
LWPOLYLINE
  5
92
330
17
100
AcDbEntity
  8
0
 62
1
100
AcDbPolyline
 90
10
 70
1
 10
210.4530999999988
 20
-4.531200000026729
 10
209.7109000000055
 20
-3.531200000026729
 10
211.3515999999945
 20
-1.6875
 10
215.4844000000012
 20
2.343799999973271
 10
208.42969999999332
 20
9.5625
 10
200.7890999999945
 20
2.125
 10
209.0
 20
-6.343700000026729
 10
210.59380000000237
 20
-4.8125
 10
210.3905999999988
 20
-4.593700000026729
 10
210.4530999999988
 20
-4.531200000026729
  0
LWPOLYLINE
  5
93
330
17
100
AcDbEntity
  8
0
 62
1
100
AcDbPolyline
 90
5
 70
1
 10
238.99219999999332
 20
66.5625
 10
236.5625
 20
64.21879999997327
 10
238.07030000000668
 20
62.65629999997327
 10
240.50780000000668
 20
65.0
 10
238.99219999999332
 20
66.5625
  0
LWPOLYLINE
  5
94
330
17
100
AcDbEntity
  8
0
 62
1
100
AcDbPolyline
 90
11
 70
1
 10
171.8125
 20
81.65629999997327
 10
172.2734000000055
 20
82.09379999997327
 10
176.32030000000668
 20
85.1875
 10
175.9530999999988
 20
85.65629999997327
 10
177.4375
 20
87.09379999997327
 10
174.17969999999332
 20
90.34379999997327
 10
167.94530000000668
 20
84.34379999997327
 10
168.36719999999332
 20
83.625
 10
170.84380000000237
 20
81.0
 10
171.71880000000237
 20
81.65629999997327
 10
171.8125
 20
81.65629999997327
  0
LWPOLYLINE
  5
95
330
17
100
AcDbEntity
  8
0
 62
1
100
AcDbPolyline
 90
10
 70
1
 10
187.0234000000055
 20
96.03129999997327
 10
183.80469999999332
 20
99.4375
 10
180.2265999999945
 20
103.21879999997327
 10
170.4219000000012
 20
94.0625
 10
174.17969999999332
 20
90.34379999997327
 10
177.4375
 20
87.09379999997327
 10
178.25
 20
86.28129999997327
 10
188.2344000000012
 20
95.5625
 10
188.25780000000668
 20
96.4375
 10
187.0234000000055
 20
96.03129999997327
  0
LWPOLYLINE
  5
96
330
17
100
AcDbEntity
  8
0
 62
1
100
AcDbPolyline
 90
9
 70
1
 10
188.2344000000012
 20
95.5625
 10
190.36719999999332
 20
97.5625
 10
192.34380000000237
 20
95.4375
 10
194.30469999999332
 20
97.6875
 10
191.11719999999332
 20
104.15629999997327
 10
183.80469999999332
 20
99.4375
 10
187.0234000000055
 20
96.03129999997327
 10
188.25780000000668
 20
96.4375
 10
188.2344000000012
 20
95.5625
  0
LWPOLYLINE
  5
97
330
17
100
AcDbEntity
  8
0
 62
1
100
AcDbPolyline
 90
27
 70
1
 10
157.8905999999988
 20
64.21879999997327
 10
178.11719999999332
 20
83.09379999997327
 10
176.63280000000668
 20
84.75
 10
178.25
 20
86.28129999997327
 10
177.4375
 20
87.09379999997327
 10
175.9530999999988
 20
85.65629999997327
 10
176.32030000000668
 20
85.1875
 10
172.2734000000055
 20
82.09379999997327
 10
171.8125
 20
81.65629999997327
 10
171.71880000000237
 20
81.65629999997327
 10
170.84380000000237
 20
81.0
 10
168.36719999999332
 20
83.625
 10
167.94530000000668
 20
84.34379999997327
 10
167.80469999999332
 20
84.21879999997327
 10
167.15630000000237
 20
84.90629999997327
 10
151.3984000000055
 20
70.0
 10
153.9530999999988
 20
65.84379999997327
 10
147.38280000000668
 20
59.5625
 10
158.5625
 20
48.90629999997327
 10
157.2655999999988
 20
48.21879999997327
 10
166.9530999999988
 20
37.75
 10
175.2030999999988
 20
45.65629999997327
 10
173.3905999999988
 20
47.59379999997327
 10
172.2109000000055
 20
46.53129999997327
 10
160.4609000000055
 20
59.125
 10
161.6015999999945
 20
60.28129999997327
 10
157.8905999999988
 20
64.21879999997327
  0
LWPOLYLINE
  5
98
330
17
100
AcDbEntity
  8
0
 62
1
100
AcDbPolyline
 90
7
 70
1
 10
204.38280000000668
 20
67.375
 10
209.15630000000237
 20
72.90629999997327
 10
202.75
 20
80.25
 10
193.2890999999945
 20
71.40629999997327
 10
200.13280000000668
 20
64.0625
 10
204.5390999999945
 20
67.21879999997327
 10
204.38280000000668
 20
67.375
  0
LWPOLYLINE
  5
99
330
17
100
AcDbEntity
  8
0
 62
1
100
AcDbPolyline
 90
5
 70
1
 10
235.0469000000012
 20
65.78129999997327
 10
236.5625
 20
64.21879999997327
 10
238.99219999999332
 20
66.5625
 10
237.4765999999945
 20
68.125
 10
235.0469000000012
 20
65.78129999997327
  0
LWPOLYLINE
  5
9A
330
17
100
AcDbEntity
  8
0
 62
1
100
AcDbPolyline
 90
5
 70
1
 10
256.2030999999988
 20
29.0
 10
260.5703000000067
 20
33.21879999997327
 10
255.0625
 20
38.90629999997327
 10
250.7030999999988
 20
34.65629999997327
 10
256.2030999999988
 20
29.0
  0
LWPOLYLINE
  5
9B
330
17
100
AcDbEntity
  8
0
 62
1
100
AcDbPolyline
 90
5
 70
1
 10
239.13280000000668
 20
-2.406200000026729
 10
234.75780000000668
 20
-6.656200000026729
 10
240.25780000000668
 20
-12.3125
 10
244.63280000000668
 20
-8.093700000026729
 10
239.13280000000668
 20
-2.406200000026729
  0
LWPOLYLINE
  5
9C
330
17
100
AcDbEntity
  8
0
 62
1
100
AcDbPolyline
 90
11
 70
1
 10
250.8984000000055
 20
34.375
 10
250.6640999999945
 20
34.625
 10
246.2969000000012
 20
30.375
 10
246.4219000000012
 20
30.25
 10
246.34380000000237
 20
30.15629999997327
 10
248.28130000000237
 20
28.1875
 10
248.9140999999945
 20
27.46879999997327
 10
251.7109000000055
 20
24.625
 10
256.2030999999988
 20
29.0
 10
250.9530999999988
 20
34.40629999997327
 10
250.8984000000055
 20
34.375
  0
LWPOLYLINE
  5
9D
330
17
100
AcDbEntity
  8
0
 62
1
100
AcDbPolyline
 90
5
 70
1
 10
241.78130000000237
 20
14.718799999973271
 10
240.2734000000055
 20
16.28129999997327
 10
237.8594000000012
 20
13.9375
 10
239.3594000000012
 20
12.375
 10
241.78130000000237
 20
14.718799999973271
  0
LWPOLYLINE
  5
9E
330
17
100
AcDbEntity
  8
0
 62
1
100
AcDbPolyline
 90
5
 70
1
 10
238.11719999999332
 20
47.5
 10
242.49219999999332
 20
51.75
 10
236.9765999999945
 20
57.40629999997327
 10
232.6094000000012
 20
53.15629999997327
 10
238.11719999999332
 20
47.5
  0
LWPOLYLINE
  5
9F
330
17
100
AcDbEntity
  8
0
 62
5
100
AcDbPolyline
 90
25
 70
1
 10
383.6600000000035
 20
-38.31099999998696
 10
288.77999999999884
 20
57.838999999978114
 10
279.12600000000384
 20
65.72299999999814
 10
250.95900000000256
 20
86.43499999999767
 10
247.48099999999977
 20
80.25900000002002
 10
254.71400000000722
 20
75.88400000002002
 10
269.5939999999973
 20
64.42700000002515
 10
290.9389999999985
 20
46.20899999997346
 10
349.8950000000041
 20
-13.112000000022817
 10
415.72900000000664
 20
-80.93800000002375
 10
416.4579999999987
 20
-82.23700000002282
 10
420.7829999999958
 20
-86.95600000000559
 10
421.12300000000687
 20
-89.50699999998324
 10
420.27300000000105
 20
-92.90799999999581
 10
418.57300000000396
 20
-95.11800000001676
 10
413.9060000000027
 20
-99.5569999999716
 10
419.3920000000071
 20
-104.71299999998882
 10
423.8429999999935
 20
-99.36900000000605
 10
426.56299999999464
 20
-96.47899999999208
 10
428.6030000000028
 20
-93.07699999999022
 10
429.11299999999756
 20
-90.18699999997625
 10
428.77300000000105
 20
-87.9770000000135
 10
425.6929999999993
 20
-83.83100000000559
 10
395.32300000000396
 20
-50.94099999999162
 10
383.6600000000035
 20
-38.31099999998696
  0
LWPOLYLINE
  5
A0
330
17
100
AcDbEntity
  8
0
 62
5
100
AcDbPolyline
 90
14
 70
1
 10
127.68600000000151
 20
51.44000000000233
 10
124.75800000000163
 20
54.47299999999814
 10
120.61900000000605
 20
58.7609999999986
 10
118.99899999999616
 20
57.15000000002328
 10
102.82499999999709
 20
41.7160000000149
 10
97.70100000000093
 20
42.02700000000186
 10
64.49700000000303
 20
9.677000000025146
 10
63.445000000006985
 20
-0.4930000000167638
 10
3.127999999996973
 20
-58.771999999997206
 10
4.947000000000116
 20
-60.70199999999022
 10
7.434999999997672
 20
-63.3410000000149
 10
118.82499999999709
 20
43.75099999998929
 10
125.83900000000722
 20
49.48300000000745
 10
127.68600000000151
 20
51.44000000000233
  0
LWPOLYLINE
  5
A1
330
17
100
AcDbEntity
  8
0
 62
5
100
AcDbPolyline
 90
22
 70
1
 10
109.49700000100711
 20
239.89200000098208
 10
76.32800000200223
 20
279.18499999900814
 10
72.34099999800674
 20
281.179999999993
 10
69.35000000199943
 20
280.1829999979818
 10
66.35900000100082
 20
278.1880000010133
 10
64.69799999899988
 20
274.86300000199117
 10
61.70699999900535
 20
237.2919999990263
 10
68.02100000200153
 20
236.62699999997858
 10
68.23600000099395
 20
233.72999999998137
 10
76.57000000000698
 20
232.92300000000978
 10
76.9930000010063
 20
235.62999999901513
 10
98.92500000100699
 20
233.9670000000042
 10
105.23800000200572
 20
235.62999999901513
 10
107.875
 20
234.41499999898952
 10
109.53200000200013
 20
233.05900000000838
 10
113.11699999899429
 20
228.89999999897555
 10
117.98099999899569
 20
228.36499999801163
 10
120.92700000100012
 20
228.04100000101607
 10
120.07700000000477
 20
230.34800000098767
 10
118.26900000100431
 20
232.9079999999958
 10
113.9010000010021
 20
236.67399999900954
 10
109.49700000100711
 20
239.89200000098208
  0
LWPOLYLINE
  5
A2
330
17
100
AcDbEntity
  8
0
 62
5
100
AcDbPolyline
 90
26
 70
1
 10
303.86899999900197
 20
329.8400000000256
 10
301.931000002005
 20
332.1539999989909
 10
291.09699999900477
 20
317.14999999897555
 10
285.7580000010057
 20
312.8269999999902
 10
282.1979999989999
 20
310.5390000009793
 10
275.84099999800674
 20
310.5390000009793
 10
256.0069999989937
 20
293.5019999999786
 10
252.1929999999993
 20
279.26199999800883
 10
247.61599999999453
 20
278.7540000010049
 10
244.81899999799498
 20
275.95699999900535
 10
243.03900000099384
 20
271.8879999999772
 10
238.65900000199326
 20
277.03799999901094
 10
223.96999999899708
 20
291.34099999797763
 10
222.73999999799707
 20
290.82099999900674
 10
221.449999998993
 20
288.8359999990207
 10
220.2149999999965
 20
286.93499999900814
 10
220.2149999999965
 20
284.2140000020154
 10
242.55600000200502
 20
260.89400000101887
 10
213.15600000000268
 20
232.66299999901094
 10
219.673999998995
 20
225.42999999999302
 10
273.8270000000048
 20
274.1810000020196
 10
312.27100000200153
 20
309.3350000010105
 10
301.8119999990013
 20
324.09299999900395
 10
304.35700000099314
 20
325.84299999900395
 10
305.66099999799917
 20
327.6999999990221
 10
303.86899999900197
 20
329.8400000000256
  0
LWPOLYLINE
  5
A3
330
17
100
AcDbEntity
  8
0
 62
5
100
AcDbPolyline
 90
9
 70
1
 10
73.20100000100501
 20
195.38100000098348
 10
66.74900000200432
 20
195.1140000000014
 10
89.9389999989944
 20
171.4169999990263
 10
116.84499999899708
 20
172.78599999798462
 10
129.96300000000338
 20
159.15199999901233
 10
129.73999999799707
 20
166.5960000010091
 10
118.85799999900337
 20
177.67199999798322
 10
91.55400000099326
 20
176.06199999898672
 10
73.20100000100501
 20
195.38100000098348
  0
LWPOLYLINE
  5
A4
330
17
100
AcDbEntity
  8
0
 62
5
100
AcDbPolyline
 90
28
 70
1
 10
89.96400000200083
 20
206.68299999798182
 10
75.43499999899359
 20
221.60100000002421
 10
75.78100000000268
 20
227.87400000198977
 10
68.6180000010063
 20
228.56700000201818
 10
68.68499999899359
 20
227.64999999897555
 10
53.17299999999523
 20
210.89899999997579
 10
62.896999999997206
 20
199.05099999898812
 10
66.74900000200432
 20
195.1140000000014
 10
73.20100000100501
 20
195.38100000098348
 10
91.55400000099326
 20
176.06199999898672
 10
118.85799999900337
 20
177.67199999798322
 10
129.73999999799707
 20
166.5960000010091
 10
129.96300000000338
 20
159.15199999901233
 10
134.63500000200293
 20
154.295999999973
 10
137.09299999799987
 20
145.25199999997858
 10
139.4100000000035
 20
145.88500000198837
 10
143.3819999989937
 20
147.47300000098767
 10
142.64299999900686
 20
149.13899999897694
 10
142.51799999900686
 20
153.1400000010035
 10
145.04100000100152
 20
157.57999999797903
 10
194.36899999900197
 20
202.4250000009779
 10
187.43299999799638
 20
210.29899999900954
 10
164.90300000099523
 20
192.53000000101747
 10
139.28699999999662
 20
220.07099999900674
 10
122.42900000099326
 20
222.14200000098208
 10
114.78400000199326
 20
223.08199999900535
 10
96.08199999900535
 20
203.62300000002142
 10
89.96400000200083
 20
206.68299999798182
  0
LWPOLYLINE
  5
A5
330
17
100
AcDbEntity
  8
0
 62
5
100
AcDbPolyline
 90
37
 70
1
 10
160.58599999900616
 20
113.60700000100769
 10
159.10599999899569
 20
113.97600000002421
 10
157.44100000000617
 20
115.08799999998882
 10
155.96099999900616
 20
117.12300000002142
 10
152.4470000010042
 20
125.08100000000559
 10
146.71200000100362
 20
122.48999999801163
 10
152.5309999989986
 20
111.68800000101328
 10
153.06024999900546
 20
107.66437499999302
 10
153.17868750200432
 20
104.34931249899091
 10
152.1131250000035
 20
100.44231250102166
 10
144.18068749799568
 20
84.1038749999716
 10
135.5236875010014
 20
72.17037500097649
 10
127.9320000000007
 20
64.87300000002142
 10
129.51900000100431
 20
63.24099999997998
 10
131.67199999799777
 20
61.02699999901233
 10
133.59699999900477
 20
59.04599999997299
 10
139.8680000010063
 20
67.00900000002002
 10
146.89831250200223
 20
76.35137499897974
 10
153.41543750099663
 20
88.36606249999022
 10
168.56993750100082
 20
104.9413124989951
 10
181.47493749900605
 20
115.00481250102166
 10
186.44750000200293
 20
116.18874999898253
 10
191.18324999899778
 20
116.42556250101188
 10
195.32706249899638
 20
115.47837499901652
 10
200.80600000200502
 20
110.69799999898532
 10
242.71400000200083
 20
83.0940000009723
 10
246.91400000099384
 20
89.3599999989965
 10
237.41400000099384
 20
95.50199999997858
 10
228.1669999989972
 20
102.0419999990263
 10
206.6380000000063
 20
116.85100000002421
 10
199.7259999999951
 20
121.24199999897974
 10
196.08399999899848
 20
122.36499999801163
 10
192.53400000199326
 20
122.83100000000559
 10
190.29300000099465
 20
122.73700000002282
 10
185.9959999989951
 20
121.8029999990249
 10
161.80499999999302
 20
113.48800000199117
 10
160.58599999900616
 20
113.60700000100769
  0
LWPOLYLINE
  5
A6
330
17
100
AcDbEntity
  8
0
 62
0
100
AcDbPolyline
 90
37
 70
1
 10
242.55599999999686
 20
260.89399999997113
 10
220.2149999999965
 20
284.2139999999781
 10
220.2149999999965
 20
286.9349999999977
 10
221.4499999999971
 20
288.83600000001024
 10
222.74000000000524
 20
290.8209999999963
 10
223.97000000000116
 20
291.3410000000149
 10
227.79099999999744
 20
292.95799999998417
 10
244.69400000000314
 20
296.2629999999772
 10
246.9869999999937
 20
298.7609999999986
 10
269.64400000000023
 20
318.82400000002235
 10
269.88499999999476
 20
328.21100000001024
 10
268.4100000000035
 20
344.8069999999716
 10
267.08400000000256
 20
350.10899999999674
 10
262.7979999999952
 20
358.4419999999809
 10
254.5920000000042
 20
377.63199999998324
 10
250.69000000000233
 20
381.27799999999115
 10
243.63300000000163
 20
389.06199999997625
 10
258.4100000000035
 20
355.9330000000191
 10
262.3270000000048
 20
348.3180000000284
 10
263.4149999999936
 20
343.9660000000149
 10
264.195000000007
 20
335.1840000000084
 10
263.7829999999958
 20
319.10600000002887
 10
244.70799999999872
 20
302.26899999997113
 10
220.8000000000029
 20
296.25400000001537
 10
218.7780000000057
 20
295.74599999998463
 10
217.75199999999313
 20
294.81300000002375
 10
216.19599999999627
 20
293.3989999999758
 10
213.99800000000687
 20
289.65500000002794
 10
213.47999999999593
 20
283.320000000007
 10
230.1380000000063
 20
264.93599999998696
 10
230.37600000000384
 20
262.54899999999907
 10
229.77700000000186
 20
259.62099999998463
 10
229.0240000000049
 20
258.4920000000275
 10
207.09299999999348
 20
239.39000000001397
 10
209.91300000000047
 20
236.2619999999879
 10
213.15600000000268
 20
232.66300000000047
 10
242.55599999999686
 20
260.89399999997113
  0
LWPOLYLINE
  5
A7
330
17
100
AcDbEntity
  8
0
 62
0
100
AcDbPolyline
 90
10
 70
1
 10
252.32000000000698
 20
192.95699999999488
 10
305.4780000000028
 20
243.08199999999488
 10
336.87600000000384
 20
272.68800000002375
 10
338.2920000000013
 20
278.35899999999674
 10
339.3680000000022
 20
282.66300000000047
 10
300.997000000003
 20
247.6830000000191
 10
244.02999999999884
 20
197.4099999999744
 10
245.63899999999558
 20
195.54899999999907
 10
249.6030000000028
 20
190.9660000000149
 10
252.32000000000698
 20
192.95699999999488
  0
LWPOLYLINE
  5
A8
330
17
100
AcDbEntity
  8
0
 62
0
100
AcDbPolyline
 90
21
 70
1
 10
208.38400000000547
 20
190.86200000002282
 10
210.1750000000029
 20
192.4660000000149
 10
214.56299999999464
 20
196.39600000000792
 10
220.02000000000407
 20
201.28100000001723
 10
223.37300000000687
 20
204.2839999999851
 10
228.00299999999697
 20
208.42800000001444
 10
229.94899999999325
 20
210.0900000000256
 10
231.74099999999453
 20
211.62099999998463
 10
229.13400000000547
 20
214.6369999999879
 10
226.97000000000116
 20
217.1369999999879
 10
225.1750000000029
 20
215.5690000000177
 10
223.19000000000233
 20
213.83600000001024
 10
218.50100000000384
 20
209.7399999999907
 10
215.1119999999937
 20
206.77899999998044
 10
209.6070000000036
 20
201.96899999998277
 10
205.17200000000594
 20
198.09399999998277
 10
203.37699999999313
 20
196.52600000001257
 10
201.21300000000338
 20
194.6350000000093
 10
203.47400000000198
 20
192.07699999999022
 10
206.2430000000022
 20
188.94500000000698
 10
208.38400000000547
 20
190.86200000002282
  0
LWPOLYLINE
  5
A9
330
17
100
AcDbEntity
  8
0
 62
0
100
AcDbPolyline
 90
21
 70
1
 10
218.27700000000186
 20
179.6699999999837
 10
220.30599999999686
 20
181.0680000000284
 10
225.1889999999985
 20
184.4309999999823
 10
231.0749999999971
 20
188.48700000002282
 10
235.03599999999278
 20
191.2160000000149
 10
240.1710000000021
 20
194.75300000002608
 10
242.13700000000244
 20
196.10700000001816
 10
244.02999999999884
 20
197.4099999999744
 10
236.41700000000128
 20
206.2139999999781
 10
231.74099999999453
 20
211.62099999998463
 10
229.94899999999325
 20
210.0900000000256
 10
228.00299999999697
 20
208.42800000001444
 10
223.37300000000687
 20
204.2839999999851
 10
220.02000000000407
 20
201.28100000001723
 10
214.56299999999464
 20
196.39600000000792
 10
210.1750000000029
 20
192.4660000000149
 10
208.38400000000547
 20
190.86200000002282
 10
206.2430000000022
 20
188.94500000000698
 10
210.6649999999936
 20
183.88199999998324
 10
215.82200000000012
 20
177.97899999999208
 10
218.27700000000186
 20
179.6699999999837
  0
LWPOLYLINE
  5
AA
330
17
100
AcDbEntity
  8
0
 62
0
100
AcDbPolyline
 90
7
 70
1
 10
250.95900000000256
 20
86.43499999999767
 10
248.9429999999993
 20
87.89199999999255
 10
246.9140000000043
 20
89.35999999998603
 10
242.71400000000722
 20
83.09399999998277
 10
245.08299999999872
 20
81.68499999999767
 10
247.48099999999977
 20
80.25900000002002
 10
250.95900000000256
 20
86.43499999999767
  0
LWPOLYLINE
  5
AB
330
17
100
AcDbEntity
  8
0
 62
0
100
AcDbPolyline
 90
8
 70
1
 10
120.92699999999604
 20
228.04100000002654
 10
117.98099999999977
 20
228.3649999999907
 10
113.11699999999837
 20
228.90000000002328
 10
113.84500000000116
 20
226.36099999997532
 10
114.78399999999965
 20
223.08199999999488
 10
122.42900000000373
 20
222.14199999999255
 10
121.57000000000698
 20
225.51500000001397
 10
120.92699999999604
 20
228.04100000002654
  0
LWPOLYLINE
  5
AC
330
17
100
AcDbEntity
  8
0
 62
0
100
AcDbPolyline
 90
8
 70
1
 10
216.26499999999942
 20
45.95299999997951
 10
214.56500000000233
 20
47.56400000001304
 10
212.4600000000064
 20
49.56099999998696
 10
208.97699999999895
 20
46.197999999974854
 10
206.21199999999953
 20
43.52700000000186
 10
209.8509999999951
 20
39.75900000002002
 10
212.45699999999488
 20
42.27600000001257
 10
216.26499999999942
 20
45.95299999997951
  0
LWPOLYLINE
  5
AD
330
17
100
AcDbEntity
  8
0
 62
0
100
AcDbPolyline
 90
8
 70
1
 10
56.74099999999453
 20
236.54300000000512
 10
51.15099999999802
 20
242.13000000000466
 10
48.31699999999546
 20
244.96299999998882
 10
39.03100000000268
 20
235.67399999999907
 10
41.6079999999929
 20
233.09700000000885
 10
45.24499999999534
 20
229.46299999998882
 10
51.32600000000093
 20
233.20799999998417
 10
56.74099999999453
 20
236.54300000000512
  0
LWPOLYLINE
  5
AE
330
17
100
AcDbEntity
  8
0
 62
0
100
AcDbPolyline
 90
7
 70
1
 10
113.11699999999837
 20
228.90000000002328
 10
76.57000000000698
 20
232.92300000000978
 10
76.18899999999849
 20
230.48499999998603
 10
75.78100000000268
 20
227.8740000000107
 10
114.78399999999965
 20
223.08199999999488
 10
113.84500000000116
 20
226.36099999997532
 10
113.11699999999837
 20
228.90000000002328
  0
LWPOLYLINE
  5
AF
330
17
100
AcDbEntity
  8
0
 62
0
100
AcDbPolyline
 90
30
 70
1
 10
585.1900000000023
 20
-158.76899999997113
 10
574.3600000000006
 20
-147.1149999999907
 10
562.2229999999981
 20
-135.0920000000042
 10
532.0409999999974
 20
-107.6140000000014
 10
514.7719999999972
 20
-92.99599999998463
 10
470.0310000000027
 20
-47.49800000002142
 10
436.49899999999616
 20
-10.461999999999534
 10
431.070000000007
 20
-4.465000000025611
 10
361.54700000000594
 20
72.85100000002421
 10
324.99899999999616
 20
111.94500000000698
 10
260.7189999999973
 20
178.66499999997905
 10
249.6030000000028
 20
190.9660000000149
 10
247.7320000000036
 20
189.68900000001304
 10
245.79499999999825
 20
188.36700000002747
 10
273.6070000000036
 20
156.36900000000605
 10
336.88099999999395
 20
85.88099999999395
 10
365.0540000000037
 20
59.76600000000326
 10
416.9829999999929
 20
4.447999999974854
 10
427.5819999999949
 20
-7.1780000000144355
 10
433.32799999999406
 20
-13.579000000027008
 10
461.0500000000029
 20
-44.461999999999534
 10
514.4689999999973
 20
-99.2729999999865
 10
551.8300000000017
 20
-131.7380000000121
 10
584.8390000000072
 20
-165.73200000001816
 10
587.0010000000038
 20
-168.2399999999907
 10
586.2820000000065
 20
-171.52899999998044
 10
590.4909999999945
 20
-171.13299999997253
 10
597.9879999999976
 20
-170.42900000000373
 10
588.8739999999962
 20
-162.73300000000745
 10
585.1900000000023
 20
-158.76899999997113
  0
LWPOLYLINE
  5
B0
330
17
100
AcDbEntity
  8
0
 62
0
100
AcDbPolyline
 90
21
 70
1
 10
189.5639999999985
 20
212.15100000001257
 10
191.23500000000058
 20
213.60399999999208
 10
195.75900000000547
 20
217.53700000001118
 10
201.221000000005
 20
222.2860000000219
 10
204.64400000000023
 20
225.2609999999986
 10
209.33900000000722
 20
229.34399999998277
 10
211.5170000000071
 20
231.23700000002282
 10
213.15600000000268
 20
232.66300000000047
 10
209.91300000000047
 20
236.2619999999879
 10
207.09299999999348
 20
239.39000000001397
 10
205.57600000000093
 20
238.05200000002515
 10
203.25400000000081
 20
236.00300000002608
 10
198.66599999999744
 20
231.9560000000056
 10
195.26900000000023
 20
228.95899999997346
 10
189.8509999999951
 20
224.17900000000373
 10
185.32799999999406
 20
220.18900000001304
 10
183.74099999999453
 20
218.78899999998976
 10
181.61000000000058
 20
216.9089999999851
 10
184.5130000000063
 20
213.61200000002282
 10
187.43300000000454
 20
210.29899999999907
 10
189.5639999999985
 20
212.15100000001257
  0
LWPOLYLINE
  5
B1
330
17
100
AcDbEntity
  8
0
 62
0
100
AcDbPolyline
 90
8
 70
1
 10
150.41199999999662
 20
130.26299999997718
 10
148.16700000000128
 20
136.02500000002328
 10
146.15700000000652
 20
141.1809999999823
 10
139.49800000000687
 20
139.3300000000163
 10
142.2719999999972
 20
133.204000000027
 10
144.8619999999937
 20
127.48700000002282
 10
145.4320000000007
 20
127.97899999999208
 10
150.41199999999662
 20
130.26299999997718
  0
LWPOLYLINE
  5
B2
330
17
100
AcDbEntity
  8
0
 62
0
100
AcDbPolyline
 90
21
 70
1
 10
223.75400000000081
 20
173.47600000002421
 10
225.74000000000524
 20
174.93900000001304
 10
230.70699999999488
 20
178.21100000001024
 10
236.60000000000582
 20
182.0920000000042
 10
240.68799999999464
 20
184.88199999998324
 10
245.79499999999825
 20
188.36700000002747
 10
247.7320000000036
 20
189.68900000001304
 10
249.6030000000028
 20
190.9660000000149
 10
245.63899999999558
 20
195.54899999999907
 10
244.02999999999884
 20
197.4099999999744
 10
242.13700000000244
 20
196.10700000001816
 10
240.1710000000021
 20
194.75300000002608
 10
235.03599999999278
 20
191.2160000000149
 10
231.0749999999971
 20
188.48700000002282
 10
225.1889999999985
 20
184.4309999999823
 10
220.30599999999686
 20
181.0680000000284
 10
218.27700000000186
 20
179.6699999999837
 10
215.82200000000012
 20
177.97899999999208
 10
219.1119999999937
 20
174.1720000000205
 10
221.28599999999278
 20
171.65600000001723
 10
223.75400000000081
 20
173.47600000002421
  0
LWPOLYLINE
  5
B3
330
17
100
AcDbEntity
  8
0
 62
0
100
AcDbPolyline
 90
10
 70
1
 10
287.3319999999949
 20
261.0100000000093
 10
327.58400000000256
 20
296.7719999999972
 10
325.62699999999313
 20
299.1149999999907
 10
323.17699999999604
 20
302.0480000000098
 10
282.59100000000035
 20
265.63400000002
 10
254.7939999999944
 20
240.74300000001676
 10
226.97000000000116
 20
217.1369999999879
 10
229.13400000000547
 20
214.6369999999879
 10
231.74099999999453
 20
211.62099999998463
 10
287.3319999999949
 20
261.0100000000093
  0
LWPOLYLINE
  5
B4
330
17
100
AcDbEntity
  8
0
 62
0
100
AcDbPolyline
 90
9
 70
1
 10
300.997000000003
 20
247.6830000000191
 10
339.3680000000022
 20
282.66300000000047
 10
333.1499999999942
 20
290.10800000000745
 10
327.58400000000256
 20
296.7719999999972
 10
287.3319999999949
 20
261.0100000000093
 10
231.74099999999453
 20
211.62099999998463
 10
236.41700000000128
 20
206.2139999999781
 10
244.02999999999884
 20
197.4099999999744
 10
300.997000000003
 20
247.6830000000191
  0
LWPOLYLINE
  5
B5
330
17
100
AcDbEntity
  8
0
 62
0
100
AcDbPolyline
 90
9
 70
1
 10
68.23600000000442
 20
233.72999999998137
 10
56.69999999999709
 20
235.37199999997392
 10
56.74099999999453
 20
236.54300000000512
 10
51.32600000000093
 20
233.20799999998417
 10
45.24499999999534
 20
229.46299999998882
 10
55.93499999999767
 20
228.86900000000605
 10
68.61800000000221
 20
228.5669999999809
 10
68.41300000000047
 20
231.33600000001024
 10
68.23600000000442
 20
233.72999999998137
  0
LWPOLYLINE
  5
B6
330
17
100
AcDbEntity
  8
0
 62
0
100
AcDbPolyline
 90
11
 70
1
 10
142.07300000000396
 20
225.71299999998882
 10
120.92699999999604
 20
228.04100000002654
 10
121.57000000000698
 20
225.51500000001397
 10
122.42900000000373
 20
222.14199999999255
 10
139.28699999999662
 20
220.07099999999627
 10
164.9030000000057
 20
192.53000000002794
 10
187.43300000000454
 20
210.29899999999907
 10
184.5130000000063
 20
213.61200000002282
 10
181.61000000000058
 20
216.9089999999851
 10
165.4539999999979
 20
202.65600000001723
 10
142.07300000000396
 20
225.71299999998882
  0
LWPOLYLINE
  5
B7
330
17
100
AcDbEntity
  8
0
 62
0
100
AcDbPolyline
 90
7
 70
1
 10
76.57000000000698
 20
232.92300000000978
 10
68.23600000000442
 20
233.72999999998137
 10
68.41300000000047
 20
231.33600000001024
 10
68.61800000000221
 20
228.5669999999809
 10
75.78100000000268
 20
227.8740000000107
 10
76.18899999999849
 20
230.48499999998603
 10
76.57000000000698
 20
232.92300000000978
  0
LWPOLYLINE
  5
B8
330
17
100
AcDbEntity
  8
0
 62
0
100
AcDbPolyline
 90
9
 70
1
 10
189.6640000000043
 20
2.662000000011176
 10
224.403999999995
 20
36.51899999997113
 10
216.26499999999942
 20
45.95299999997951
 10
212.45699999999488
 20
42.27600000001257
 10
209.8509999999951
 20
39.75900000002002
 10
214.22999999999593
 20
35.22399999998743
 10
185.00100000000384
 20
7.068000000028405
 10
187.24700000000303
 20
4.945000000006985
 10
189.6640000000043
 20
2.662000000011176
  0
LWPOLYLINE
  5
B9
330
17
100
AcDbEntity
  8
0
 62
0
100
AcDbPolyline
 90
8
 70
1
 10
152.44700000000012
 20
125.08100000000559
 10
151.3570000000036
 20
127.85600000002887
 10
150.41199999999662
 20
130.26299999997718
 10
145.4320000000007
 20
127.97899999999208
 10
144.8619999999937
 20
127.48700000002282
 10
145.5500000000029
 20
125.62699999997858
 10
146.71199999999953
 20
122.48999999999069
 10
152.44700000000012
 20
125.08100000000559
  0
LWPOLYLINE
  5
BA
330
17
100
AcDbEntity
  8
0
 62
0
100
AcDbPolyline
 90
8
 70
1
 10
146.15700000000652
 20
141.1809999999823
 10
144.49400000000605
 20
144.954000000027
 10
143.3819999999978
 20
147.47299999999814
 10
139.4100000000035
 20
145.8850000000093
 10
137.09299999999348
 20
145.25199999997858
 10
138.38099999999395
 20
142.0779999999795
 10
139.49800000000687
 20
139.3300000000163
 10
146.15700000000652
 20
141.1809999999823
  0
LWPOLYLINE
  5
BB
330
17
100
AcDbEntity
  8
0
 62
0
100
AcDbPolyline
 90
12
 70
1
 10
206.2430000000022
 20
188.94500000000698
 10
203.47400000000198
 20
192.07699999999022
 10
201.21300000000338
 20
194.6350000000093
 10
154.85599999999977
 20
154.2150000000256
 10
154.02999999999884
 20
153.85399999999208
 10
149.25299999999697
 20
150.03100000001723
 10
143.3819999999978
 20
147.47299999999814
 10
144.49400000000605
 20
144.954000000027
 10
146.15700000000652
 20
141.1809999999823
 10
156.5069999999978
 20
147.44000000000233
 10
162.72400000000198
 20
152.3630000000121
 10
206.2430000000022
 20
188.94500000000698
  0
LWPOLYLINE
  5
BC
330
17
100
AcDbEntity
  8
0
 62
0
100
AcDbPolyline
 90
8
 70
1
 10
212.46000000099593
 20
49.56100000097649
 10
206.576000001005
 20
55.56899999798043
 10
205.675000001007
 20
58.15700000198558
 10
201.67999999999302
 20
54.29899999900954
 10
198.64200000099663
 20
51.36599999997998
 10
206.21200000100362
 20
43.52699999901233
 10
208.97700000200712
 20
46.197999998985324
 10
212.46000000099593
 20
49.56100000097649
  0
LWPOLYLINE
  5
BD
330
17
100
AcDbEntity
  8
0
 62
0
100
AcDbPolyline
 90
8
 70
1
 10
144.82000000000698
 20
47.69900000101188
 10
137.63400000000547
 20
54.96500000002561
 10
134.4930000010063
 20
51.85799999901792
 10
130.80400000099326
 20
48.20899999898393
 10
134.52699999899778
 20
44.807999997981824
 10
138.3599999989965
 20
41.30999999900814
 10
141.60799999900337
 20
44.52100000198698
 10
144.82000000000698
 20
47.69900000101188
  0
LWPOLYLINE
  5
BE
330
17
100
AcDbEntity
  8
0
 62
0
100
AcDbPolyline
 90
42
 70
1
 10
-3.3740000020043226
 20
437.04500000202097
 10
-8.30899999999383
 20
439.1840000000084
 10
-15.120000000999426
 20
441.3090000000084
 10
-16.60700000099314
 20
438.67900000099326
 10
-17.611999999993714
 20
436.9010000010021
 10
-0.2789999990054639
 20
430.54500000202097
 10
16.986000000993954
 20
423.2969999979832
 10
42.03999999900407
 20
407.0439999999944
 10
60.804999999993015
 20
391.98800000199117
 10
72.99800000000687
 20
380.6429999989923
 10
83.81300000099873
 20
369.5109999999986
 10
110.16600000100152
 20
340.2980000000098
 10
118.3029999989958
 20
334.4600000010105
 10
122.44799999899988
 20
334.20100000099046
 10
137.6030000000028
 20
334.6889999990235
 10
141.13699999799428
 20
334.46599999797763
 10
145.25199999999313
 20
331.603999998013
 10
161.21300000000338
 20
314.4039999989909
 10
185.050000001007
 20
287.5179999989923
 10
187.77000000000407
 20
282.07600000099046
 10
186.02100000200153
 20
263.6149999980116
 10
187.57400000099733
 20
255.0639999990235
 10
192.0439999999944
 20
248.06700000201818
 10
203.2540000010049
 20
236.00299999897834
 10
205.576000001005
 20
238.05200000101468
 10
207.09299999799987
 20
239.3900000010035
 10
199.6209999989951
 20
247.67999999999302
 10
192.82099999900674
 20
257.0069999989937
 10
191.65500000100292
 20
261.86599999998
 10
193.40399999900546
 20
283.6310000009835
 10
192.0679999999993
 20
287.2329999990179
 10
191.44100000000617
 20
288.92399999900954
 10
148.7190000010014
 20
337.32600000099046
 10
142.61599999999453
 20
339.9409999999916
 10
124.30600000200502
 20
340.3769999999786
 10
123.34600000099454
 20
340.6510000010021
 10
118.20300000200223
 20
342.1209999989951
 10
76.8489999989979
 20
384.61599999998
 10
59.93100000200502
 20
400.3969999999972
 10
43.20499999799358
 20
413.51599999901373
 10
20.203000002002227
 20
426.8249999990221
 10
-3.3740000020043226
 20
437.04500000202097
  0
LWPOLYLINE
  5
BF
330
17
100
AcDbEntity
  8
0
 62
0
100
AcDbPolyline
 90
8
 70
1
 10
25.58399999899848
 20
30.06100000097649
 10
21.951000001005013
 20
33.80000000097789
 10
18.611999999993714
 20
37.23700000002282
 10
16.550000001006993
 20
34.25900000002002
 10
14.68399999999383
 20
31.56199999898672
 10
17.085999999006162
 20
29.090999997977633
 10
20.727000002007117
 20
25.34200000000419
 10
25.58399999899848
 20
30.06100000097649
  0
LWPOLYLINE
  5
C0
330
17
100
AcDbEntity
  8
0
 62
0
100
AcDbPolyline
 90
8
 70
1
 10
40.629999999000574
 20
216.9389999990235
 10
35.15500000100292
 20
222.61599999997998
 10
32.14200000099663
 20
219.32099999900674
 10
29.395000000004075
 20
216.31700000201818
 10
31.901000001002103
 20
213.67399999900954
 10
34.495000000999426
 20
210.9389999990235
 10
37.46400000200083
 20
213.84299999801442
 10
40.629999999000574
 20
216.9389999990235
  0
LWPOLYLINE
  5
C1
330
17
100
AcDbEntity
  8
0
 62
0
100
AcDbPolyline
 90
12
 70
1
 10
247.48099999899569
 20
80.25900000002002
 10
245.0830000010028
 20
81.68499999900814
 10
242.71400000200083
 20
83.0940000009723
 10
238.949999998993
 20
77.4780000000028
 10
224.63500000200293
 20
61.99900000198977
 10
212.46000000099593
 20
49.56100000097649
 10
214.5650000010064
 20
47.56399999902351
 10
216.2650000010035
 20
45.95300000201678
 10
238.1889999989944
 20
68.11599999997998
 10
242.93699999900127
 20
72.6669999990263
 10
244.13699999799428
 20
74.67199999798322
 10
247.48099999899569
 20
80.25900000002002
  0
LWPOLYLINE
  5
C2
330
17
100
AcDbEntity
  8
0
 62
0
100
AcDbPolyline
 90
8
 70
1
 10
258.2280000000028
 20
97.90999999997439
 10
256.4730000010022
 20
100.00199999997858
 10
255.00199999999313
 20
101.75600000098348
 10
246.91400000099384
 20
89.3599999989965
 10
248.9429999999993
 20
87.89200000098208
 10
250.95899999899848
 20
86.43499999900814
 10
253.8289999999979
 20
91.53400000202237
 10
258.2280000000028
 20
97.90999999997439
  0
LWPOLYLINE
  5
C3
330
17
100
AcDbEntity
  8
0
 62
0
100
AcDbPolyline
 90
8
 70
1
 10
14.675000001006993
 20
243.8489999989979
 10
12.210000000995933
 20
246.58900000201538
 10
10.034000001993263
 20
249.0069999989937
 10
6.872000001007109
 20
246.00900000002002
 10
3.903999999005464
 20
243.19500000000698
 10
8.677999998995801
 20
238.1620000010007
 10
11.646000002001529
 20
240.97700000199256
 10
14.675000001006993
 20
243.8489999989979
  0
LWPOLYLINE
  5
C4
330
17
100
AcDbEntity
  8
0
 62
0
100
AcDbPolyline
 90
8
 70
1
 10
41.6079999999929
 20
233.09700000000885
 10
39.03100000000268
 20
235.67399999999907
 10
30.514999999999418
 20
227.42700000002515
 10
32.94899999999325
 20
224.90299999999115
 10
35.154999999998836
 20
222.61599999997998
 10
42.171000000002095
 20
229.63299999997253
 10
45.24499999999534
 20
229.46299999998882
 10
41.6079999999929
 20
233.09700000000885
  0
LWPOLYLINE
  5
C5
330
17
100
AcDbEntity
  8
0
 62
0
100
AcDbPolyline
 90
14
 70
1
 10
215.82200000000012
 20
177.97899999999208
 10
210.6649999999936
 20
183.88199999998324
 10
206.2430000000022
 20
188.94500000000698
 10
162.72400000000198
 20
152.3630000000121
 10
156.5069999999978
 20
147.44000000000233
 10
146.15700000000652
 20
141.1809999999823
 10
148.16700000000128
 20
136.02500000002328
 10
150.41199999999662
 20
130.26299999997718
 10
166.3000000000029
 20
138.3759999999893
 10
182.30999999999767
 20
149.08500000002095
 10
199.15499999999884
 20
163.12199999997392
 10
202.00500000000466
 20
165.54899999999907
 10
203.8880000000063
 20
167.19699999998556
 10
215.82200000000012
 20
177.97899999999208
  0
LWPOLYLINE
  5
C6
330
17
100
AcDbEntity
  8
0
 62
0
100
AcDbPolyline
 90
7
 70
1
 10
221.28599999999278
 20
171.65600000001723
 10
219.1119999999937
 20
174.1720000000205
 10
215.82200000000012
 20
177.97899999999208
 10
203.8880000000063
 20
167.19699999998556
 10
206.85199999999895
 20
163.55999999999767
 10
209.08199999999488
 20
160.82500000001164
 10
221.28599999999278
 20
171.65600000001723
  0
LWPOLYLINE
  5
C7
330
17
100
AcDbEntity
  8
0
 62
0
100
AcDbPolyline
 90
12
 70
1
 10
205.15200000000186
 20
157.0910000000149
 10
202.44599999999627
 20
159.74599999998463
 10
199.15499999999884
 20
163.12199999997392
 10
182.30999999999767
 20
149.08500000002095
 10
166.3000000000029
 20
138.3759999999893
 10
150.41199999999662
 20
130.26299999997718
 10
151.3570000000036
 20
127.85600000002887
 10
152.44700000000012
 20
125.08100000000559
 10
179.26200000000244
 20
138.39199999999255
 10
190.48600000000442
 20
145.39299999998184
 10
197.21199999999953
 20
150.2860000000219
 10
205.15200000000186
 20
157.0910000000149
  0
LWPOLYLINE
  5
C8
330
17
100
AcDbEntity
  8
0
 62
0
100
AcDbPolyline
 90
9
 70
1
 10
209.08199999999488
 20
160.82500000001164
 10
206.85199999999895
 20
163.55999999999767
 10
203.8880000000063
 20
167.19699999998556
 10
202.00500000000466
 20
165.54899999999907
 10
199.15499999999884
 20
163.12199999997392
 10
202.44599999999627
 20
159.74599999998463
 10
205.15200000000186
 20
157.0910000000149
 10
207.02999999999884
 20
158.87099999998463
 10
209.08199999999488
 20
160.82500000001164
  0
LWPOLYLINE
  5
C9
330
17
100
AcDbEntity
  8
0
 62
0
100
AcDbPolyline
 90
8
 70
1
 10
257.2020000000048
 20
104.09499999997206
 10
209.08199999999488
 20
160.82500000001164
 10
207.02999999999884
 20
158.87099999998463
 10
205.15200000000186
 20
157.0910000000149
 10
208.6710000000021
 20
153.36200000002282
 10
255.00199999999313
 20
101.75599999999395
 10
256.21600000000035
 20
103.04599999997299
 10
257.2020000000048
 20
104.09499999997206
  0
LWPOLYLINE
  5
CA
330
17
100
AcDbEntity
  8
0
 62
0
100
AcDbPolyline
 90
7
 70
1
 10
102.89500000000407
 20
132.6819999999716
 10
102.4320000000007
 20
136.7029999999795
 10
102.06699999999546
 20
139.86900000000605
 10
98.778999999995
 20
139.67399999999907
 10
99.7609999999986
 20
136.34999999997672
 10
100.89500000000407
 20
132.50799999997253
 10
102.89500000000407
 20
132.6819999999716
  0
LWPOLYLINE
  5
CB
330
17
100
AcDbEntity
  8
0
 62
0
100
AcDbPolyline
 90
11
 70
1
 10
139.49800000000687
 20
139.3300000000163
 10
138.38099999999395
 20
142.0779999999795
 10
137.09299999999348
 20
145.25199999997858
 10
128.27099999999336
 20
142.51699999999255
 10
116.09500000000116
 20
140.7029999999795
 10
105.44500000000698
 20
140.07000000000698
 10
105.8350000000064
 20
137.15200000000186
 10
106.3920000000071
 20
132.98599999997532
 10
117.64999999999418
 20
133.9660000000149
 10
134.74700000000303
 20
137.59399999998277
 10
139.49800000000687
 20
139.3300000000163
  0
LWPOLYLINE
  5
CC
330
17
100
AcDbEntity
  8
0
 62
0
100
AcDbPolyline
 90
8
 70
1
 10
106.3920000000071
 20
132.98599999997532
 10
105.8350000000064
 20
137.15200000000186
 10
105.44500000000698
 20
140.07000000000698
 10
102.06699999999546
 20
139.86900000000605
 10
102.4320000000007
 20
136.7029999999795
 10
102.89500000000407
 20
132.6819999999716
 10
104.58100000000559
 20
132.829000000027
 10
106.3920000000071
 20
132.98599999997532
  0
LWPOLYLINE
  5
CD
330
17
100
AcDbEntity
  8
0
 62
0
100
AcDbPolyline
 90
7
 70
1
 10
104.44800000000396
 20
119.20100000000093
 10
103.74199999999837
 20
125.33399999997346
 10
102.89500000000407
 20
132.6819999999716
 10
100.89500000000407
 20
132.50799999997253
 10
101.59900000000198
 20
125.20199999999022
 10
102.19700000000012
 20
118.98999999999069
 10
104.44800000000396
 20
119.20100000000093
  0
LWPOLYLINE
  5
CE
330
17
100
AcDbEntity
  8
0
 62
0
100
AcDbPolyline
 90
11
 70
1
 10
144.8619999999937
 20
127.48700000002282
 10
142.2719999999972
 20
133.204000000027
 10
139.49800000000687
 20
139.3300000000163
 10
134.74700000000303
 20
137.59399999998277
 10
117.64999999999418
 20
133.9660000000149
 10
106.3920000000071
 20
132.98599999997532
 10
107.3859999999986
 20
125.5569999999716
 10
108.18899999999849
 20
119.55099999997765
 10
121.01799999999639
 20
120.75099999998929
 10
130.34299999999348
 20
122.82400000002235
 10
144.8619999999937
 20
127.48700000002282
  0
LWPOLYLINE
  5
CF
330
17
100
AcDbEntity
  8
0
 62
0
100
AcDbPolyline
 90
9
 70
1
 10
108.18899999999849
 20
119.55099999997765
 10
107.3859999999986
 20
125.5569999999716
 10
106.3920000000071
 20
132.98599999997532
 10
104.58100000000559
 20
132.829000000027
 10
102.89500000000407
 20
132.6819999999716
 10
103.74199999999837
 20
125.33399999997346
 10
104.44800000000396
 20
119.20100000000093
 10
106.38999999999942
 20
119.38299999997253
 10
108.18899999999849
 20
119.55099999997765
  0
LWPOLYLINE
  5
D0
330
17
100
AcDbEntity
  8
0
 62
0
100
AcDbPolyline
 90
8
 70
1
 10
77.75699999999779
 20
117.2719999999972
 10
75.46199999999953
 20
117.28100000001723
 10
73.71099999999569
 20
117.28800000000047
 10
73.68499999999767
 20
114.81099999998696
 10
73.64999999999418
 20
111.37400000001071
 10
77.74300000000221
 20
111.38299999997253
 10
77.75100000000384
 20
114.80400000000373
 10
77.75699999999779
 20
117.2719999999972
  0
LWPOLYLINE
  5
D1
330
17
100
AcDbEntity
  8
0
 62
0
100
AcDbPolyline
 90
8
 70
1
 10
85.20100000000093
 20
131.72100000001956
 10
77.7899999999936
 20
131.75500000000466
 10
77.77300000000105
 20
124.28700000001118
 10
77.75699999999779
 20
117.2719999999972
 10
78.55499999999302
 20
117.26899999997113
 10
82.43399999999383
 20
117.55099999997765
 10
83.74099999999453
 20
124.24499999999534
 10
85.20100000000093
 20
131.72100000001956
  0
LWPOLYLINE
  5
D2
330
17
100
AcDbEntity
  8
0
 62
0
100
AcDbPolyline
 90
9
 70
1
 10
77.7899999999936
 20
131.75500000000466
 10
75.70500000000175
 20
131.76500000001397
 10
73.86100000000442
 20
131.77399999997579
 10
73.78399999999965
 20
124.31599999999162
 10
73.71099999999569
 20
117.28800000000047
 10
75.46199999999953
 20
117.28100000001723
 10
77.75699999999779
 20
117.2719999999972
 10
77.77300000000105
 20
124.28700000001118
 10
77.7899999999936
 20
131.75500000000466
  0
LWPOLYLINE
  5
D3
330
17
100
AcDbEntity
  8
0
 62
0
100
AcDbPolyline
 90
8
 70
1
 10
77.8070000000007
 20
138.8059999999823
 10
73.93300000000454
 20
138.8300000000163
 10
73.89599999999336
 20
135.2280000000028
 10
73.86100000000442
 20
131.77399999997579
 10
75.70500000000175
 20
131.76500000001397
 10
77.7899999999936
 20
131.75500000000466
 10
77.79799999999523
 20
135.2029999999795
 10
77.8070000000007
 20
138.8059999999823
  0
LWPOLYLINE
  5
D4
330
17
100
AcDbEntity
  8
0
 62
0
100
AcDbPolyline
 90
9
 70
1
 10
189.66400000099384
 20
2.662000001000706
 10
187.2470000010071
 20
4.945000000006985
 10
185.00099999799568
 20
7.068000000028405
 10
179.54500000200642
 20
5.399999998975545
 10
174.70899999899848
 20
3.92000000202097
 10
180.32700000000477
 20
-1.517999998992309
 10
182.699999998993
 20
-3.815999999991618
 10
185.75199999999313
 20
-0.9770000019925646
 10
189.66400000099384
 20
2.662000001000706
  0
LWPOLYLINE
  5
D5
330
17
100
AcDbEntity
  8
0
 62
0
100
AcDbPolyline
 90
10
 70
1
 10
94.31600000000617
 20
93.83799999998882
 10
100.18299999799638
 20
96.27000000001863
 10
99.51900000100431
 20
98.50099999801023
 10
98.6929999999993
 20
103.13100000098348
 10
95.38800000000629
 20
102.24399999901652
 10
90.83999999999651
 20
101.02399999997579
 10
86.27400000000489
 20
99.7459999989951
 10
85.1559999989986
 20
94.83599999902071
 10
88.91899999999441
 20
91.60100000002421
 10
94.31600000000617
 20
93.83799999998882
  0
LWPOLYLINE
  5
D6
330
17
100
AcDbEntity
  8
0
 62
0
100
AcDbPolyline
 90
10
 70
1
 10
88.91899999999441
 20
91.60100000002421
 10
85.1559999989986
 20
94.83599999902071
 10
86.27400000000489
 20
99.7459999989951
 10
56.59200000000419
 20
74.46599999797763
 10
48.969000001001405
 20
67.94099999999162
 10
24.721999999004765
 20
44.12699999997858
 10
18.611999999993714
 20
37.23700000002282
 10
21.951000001005013
 20
33.80000000097789
 10
25.58399999899848
 20
30.06100000097649
 10
88.91899999999441
 20
91.60100000002421
  0
LWPOLYLINE
  5
D7
330
17
100
AcDbEntity
  8
0
 62
0
100
AcDbPolyline
 90
28
 70
1
 10
195.26900000100431
 20
228.95899999898393
 10
65.55099999900267
 20
372.5129999999772
 10
46.3029999989958
 20
388.2650000010035
 10
31.861999999993714
 20
399.30400000099326
 10
20.410000000003492
 20
406.9380000010133
 10
1.3249999989930075
 20
416.79899999900954
 10
-10.125
 20
421.5689999979804
 10
-23.98200000099314
 20
426.4140000009793
 10
-27.048999998994987
 20
421.2569999989937
 10
-29.526000001002103
 20
417.0940000009723
 10
-10.337000001003616
 20
410.3310000000056
 10
8.221999999004765
 20
400.9589999989839
 10
24.043000000994653
 20
391.5399999989895
 10
40.34299999799987
 20
379.2650000010035
 10
53.70200000000477
 20
366.8599999989965
 10
79.46599999800674
 20
338.23400000098627
 10
82.94500000000698
 20
332.35900000098627
 10
96.4360000010056
 20
319.3400000000256
 10
108.7349999989965
 20
306.0879999999888
 10
109.17199999799777
 20
306.39999999897555
 10
124.89999999900465
 20
289.10900000098627
 10
124.3070000000007
 20
288.454000000027
 10
146.7760000010021
 20
262.90199999901233
 10
168.08700000100362
 20
238.80499999999302
 10
181.50600000099803
 20
224.48999999801163
 10
185.32800000200223
 20
220.1889999990235
 10
189.8509999999951
 20
224.17900000099326
 10
195.26900000100431
 20
228.95899999898393
  0
LWPOLYLINE
  5
D8
330
17
100
AcDbEntity
  8
0
 62
0
100
AcDbPolyline
 90
24
 70
1
 10
110.16600000100152
 20
340.2980000000098
 10
83.81300000099873
 20
369.5109999999986
 10
72.99800000000687
 20
380.6429999989923
 10
60.804999999993015
 20
391.98800000199117
 10
42.03999999900407
 20
407.0439999999944
 10
16.986000000993954
 20
423.2969999979832
 10
-0.2789999990054639
 20
430.54500000202097
 10
-17.611999999993714
 20
436.9010000010021
 10
-20.96700000000419
 20
431.3790000010049
 10
-23.98200000099314
 20
426.4140000009793
 10
-10.125
 20
421.5689999979804
 10
1.3249999989930075
 20
416.79899999900954
 10
20.410000000003492
 20
406.9380000010133
 10
31.861999999993714
 20
399.30400000099326
 10
46.3029999989958
 20
388.2650000010035
 10
65.55099999900267
 20
372.5129999999772
 10
195.26900000100431
 20
228.95899999898393
 10
198.66600000100152
 20
231.9560000000056
 10
203.2540000010049
 20
236.00299999897834
 10
192.0439999999944
 20
248.06700000201818
 10
169.21099999900616
 20
270.6669999990263
 10
146.25199999999313
 20
296.9490000010119
 10
127.46499999999651
 20
317.42399999900954
 10
110.16600000100152
 20
340.2980000000098
  0
LWPOLYLINE
  5
D9
330
17
100
AcDbEntity
  8
0
 62
0
100
AcDbPolyline
 90
8
 70
1
 10
10.034000001993263
 20
249.0069999989937
 10
8.782999999995809
 20
250.6599999999744
 10
-2.411999999996624
 20
262.21599999797763
 10
-5.975000000995351
 20
259.50900000002
 10
-9.225000000995351
 20
257.0399999989895
 10
3.903999999005464
 20
243.19500000000698
 10
6.872000001007109
 20
246.00900000002002
 10
10.034000001993263
 20
249.0069999989937
  0
LWPOLYLINE
  5
DA
330
17
100
AcDbEntity
  8
0
 62
0
100
AcDbPolyline
 90
11
 70
1
 10
20.727000002007117
 20
25.34200000000419
 10
17.085999999006162
 20
29.090999997977633
 10
14.68399999999383
 20
31.56199999898672
 10
-15.418999999994412
 20
3.068999997980427
 10
-12.833999998998479
 20
0.12400000198977068
 10
-9.896000002001529
 20
-3.2219999990193173
 10
0.94100000000617
 20
6.2930000009946525
 10
5.245999998995103
 20
11.12599999801023
 10
12.977000002007117
 20
18.418999999994412
 10
17.710999999006162
 20
22.495000000984874
 10
20.727000002007117
 20
25.34200000000419
  0
LWPOLYLINE
  5
DB
330
17
100
AcDbEntity
  8
0
 62
0
100
AcDbPolyline
 90
8
 70
1
 10
221.21099999900616
 20
-29.37300000002142
 10
220.21099999900616
 20
-29.17300000000978
 10
189.66400000099384
 20
2.662000001000706
 10
185.75199999999313
 20
-0.9770000019925646
 10
182.699999998993
 20
-3.815999999991618
 10
214.41099999799917
 20
-35.53299999999581
 10
217.16299999899638
 20
-33.039999998989515
 10
221.21099999900616
 20
-29.37300000002142
  0
LWPOLYLINE
  5
DC
330
17
100
AcDbEntity
  8
0
 62
0
100
AcDbPolyline
 90
7
 70
1
 10
34.495000000999426
 20
210.9389999990235
 10
31.901000001002103
 20
213.67399999900954
 10
29.395000000004075
 20
216.31700000201818
 10
-21.390999998999177
 20
168.33900000201538
 10
-19.370999998995103
 20
166.1140000000014
 10
-17.33900000200083
 20
163.87599999801023
 10
34.495000000999426
 20
210.9389999990235
  0
LWPOLYLINE
  5
DD
330
17
100
AcDbEntity
  8
0
 62
0
100
AcDbPolyline
 90
11
 70
1
 10
62.82400000099733
 20
-119.08100000000559
 10
182.699999998993
 20
-3.815999999991618
 10
180.32700000000477
 20
-1.517999998992309
 10
174.70899999899848
 20
3.92000000202097
 10
172.86499999799707
 20
1.45499999797903
 10
119.28200000200013
 20
-50.74700000102166
 10
57.021999999997206
 20
-110.72999999998137
 10
54.83199999900535
 20
-112.1180000010063
 10
58.06300000099873
 20
-115.60799999901792
 10
62.66000000000349
 20
-120.57400000101188
 10
62.82400000099733
 20
-119.08100000000559
  0
LWPOLYLINE
  5
DE
330
17
100
AcDbEntity
  8
0
 62
0
100
AcDbPolyline
 90
14
 70
1
 10
49.7540000010049
 20
207.47999999998137
 10
40.629999999000574
 20
216.9389999990235
 10
37.46400000200083
 20
213.84299999801442
 10
34.495000000999426
 20
210.9389999990235
 10
81.8029999989958
 20
161.0529999990249
 10
85.28999999900407
 20
151.89600000198698
 10
86.59800000100222
 20
141.86699999897974
 10
86.16899999999441
 20
138.75299999897834
 10
90.4320000000007
 20
139.0639999990235
 10
98.77899999900546
 20
139.67399999900954
 10
93.55899999999383
 20
153.39899999997579
 10
90.1929999999993
 20
164.28200000198558
 10
83.45699999900535
 20
172.8310000000056
 10
49.7540000010049
 20
207.47999999998137
  0
LWPOLYLINE
  5
DF
330
17
100
AcDbEntity
  8
0
 62
0
100
AcDbPolyline
 90
10
 70
1
 10
18.611999999993714
 20
37.23700000002282
 10
-26.91600000100152
 20
82.29899999900954
 10
-41.25600000099803
 20
68.73200000100769
 10
-38.4169999989972
 20
65.71500000002561
 10
-36.28900000099384
 20
63.45300000201678
 10
-26.515999998999177
 20
72.64799999800744
 10
12.688999998994404
 20
33.05900000000838
 10
14.68399999999383
 20
31.56199999898672
 10
16.550000001006993
 20
34.25900000002002
 10
18.611999999993714
 20
37.23700000002282
  0
LWPOLYLINE
  5
E0
330
17
100
AcDbEntity
  8
0
 62
0
100
AcDbPolyline
 90
19
 70
1
 10
336.88100000099803
 20
85.88100000098348
 10
273.60700000099314
 20
156.36899999901652
 10
245.79500000200642
 20
188.36699999897974
 10
240.68800000099873
 20
184.8819999989937
 10
236.60000000099535
 20
182.0920000000042
 10
291.63899999900605
 20
118.39500000001863
 10
339.15399999900546
 20
65.93400000000838
 10
412.59699999900477
 20
-16.865999999979977
 10
420.6889999989944
 20
-26.004999999015126
 10
566.6209999989951
 20
-190.8139999990235
 10
571.8399999999965
 20
-186.23999999801163
 10
576.4569999990053
 20
-182.19200000201818
 10
574.5469999979978
 20
-180.69599999900674
 10
563.5479999999952
 20
-168.37000000098487
 10
429.10000000099535
 20
-17.736000001023058
 10
422.6729999999952
 20
-10.535999997984618
 10
390.9320000000007
 20
24.44000000099186
 10
355.9970000010071
 20
64.42999999999302
 10
336.88100000099803
 20
85.88100000098348
  0
LWPOLYLINE
  5
E1
330
17
100
AcDbEntity
  8
0
 62
0
100
AcDbPolyline
 90
7
 70
1
 10
185.00099999799568
 20
7.068000000028405
 10
144.82000000000698
 20
47.69900000101188
 10
141.60799999900337
 20
44.52100000198698
 10
138.3599999989965
 20
41.30999999900814
 10
174.70899999899848
 20
3.92000000202097
 10
179.54500000200642
 20
5.399999998975545
 10
185.00099999799568
 20
7.068000000028405
  0
LWPOLYLINE
  5
E2
330
17
100
AcDbEntity
  8
0
 62
0
100
AcDbPolyline
 90
8
 70
1
 10
138.3599999989965
 20
41.30999999900814
 10
134.52699999899778
 20
44.807999997981824
 10
130.80400000099326
 20
48.20899999898393
 10
122.5260000010021
 20
40.15799999999581
 10
11.577000000004773
 20
-67.7349999989965
 10
14.375999997995677
 20
-70.23299999901792
 10
17.96700000000419
 20
-73.43899999902351
 10
138.3599999989965
 20
41.30999999900814
  0
LWPOLYLINE
  5
E3
330
17
100
AcDbEntity
  8
0
 62
0
100
AcDbPolyline
 90
16
 70
1
 10
566.6209999989951
 20
-190.8139999990235
 10
420.6889999989944
 20
-26.004999999015126
 10
412.59699999900477
 20
-16.865999999979977
 10
339.15399999900546
 20
65.93400000000838
 10
291.63899999900605
 20
118.39500000001863
 10
236.60000000099535
 20
182.0920000000042
 10
230.70699999900535
 20
178.21099999902071
 10
225.73999999799707
 20
174.9389999990235
 10
281.7369999999937
 20
111.87200000102166
 10
325.5200000000041
 20
62.55099999898812
 10
402.39200000099663
 20
-24.100000001024455
 10
411.82099999900674
 20
-34.72300000098767
 10
540.8909999989992
 20
-180.13500000198837
 10
557.4630000000034
 20
-198.80999999900814
 10
561.7829999999958
 20
-195.03799999901094
 10
566.6209999989951
 20
-190.8139999990235
  0
LWPOLYLINE
  5
E4
330
17
100
AcDbEntity
  8
0
 62
0
100
AcDbPolyline
 90
8
 70
1
 10
35.15500000100292
 20
222.61599999997998
 10
32.94900000099733
 20
224.90300000098068
 10
30.5150000010035
 20
227.42700000101468
 10
27.239000000001397
 20
224.50099999801023
 10
24.28599999799917
 20
221.704000000027
 10
29.395000000004075
 20
216.31700000201818
 10
32.14200000099663
 20
219.32099999900674
 10
35.15500000100292
 20
222.61599999997998
  0
LWPOLYLINE
  5
E5
330
17
100
AcDbEntity
  8
0
 62
0
100
AcDbPolyline
 90
13
 70
1
 10
281.7369999999937
 20
111.87199999997392
 10
225.74000000000524
 20
174.93900000001304
 10
223.75400000000081
 20
173.47600000002421
 10
221.28599999999278
 20
171.65600000001723
 10
235.00299999999697
 20
156.85100000002421
 10
237.87099999999919
 20
153.34600000001956
 10
315.5639999999985
 20
58.37900000001537
 10
334.55100000000675
 20
35.1699999999837
 10
337.0540000000037
 20
37.26899999997113
 10
338.875
 20
38.79599999997299
 10
329.01600000000326
 20
50.303000000014435
 10
281.2219999999943
 20
109.50900000002002
 10
281.7369999999937
 20
111.87199999997392
  0
LWPOLYLINE
  5
E6
330
17
100
AcDbEntity
  8
0
 62
0
100
AcDbPolyline
 90
9
 70
1
 10
100.89500000000407
 20
132.50800000102026
 10
99.7609999999986
 20
136.35000000201399
 10
98.77899999900546
 20
139.67399999900954
 10
90.4320000000007
 20
139.0639999990235
 10
86.16899999999441
 20
138.75299999897834
 10
85.67299999999523
 20
135.1539999989909
 10
85.20100000100501
 20
131.7210000010091
 10
90.5069999989937
 20
131.98700000002282
 10
100.89500000000407
 20
132.50800000102026
  0
LWPOLYLINE
  5
E7
330
17
100
AcDbEntity
  8
0
 62
0
100
AcDbPolyline
 90
9
 70
1
 10
102.1970000010042
 20
118.98999999801163
 10
101.5989999989979
 20
125.20199999999022
 10
100.89500000000407
 20
132.50800000102026
 10
90.5069999989937
 20
131.98700000002282
 10
85.20100000100501
 20
131.7210000010091
 10
83.74099999999453
 20
124.24500000098487
 10
82.43399999999383
 20
117.55099999898812
 10
90.65600000000268
 20
118.14999999897555
 10
102.1970000010042
 20
118.98999999801163
  0
LWPOLYLINE
  5
E8
330
17
100
AcDbEntity
  8
0
 62
0
100
AcDbPolyline
 90
13
 70
1
 10
90.83999999999651
 20
101.02399999997579
 10
95.38800000000629
 20
102.24399999901652
 10
98.6929999999993
 20
103.13100000098348
 10
98.75299999899289
 20
105.63699999800883
 10
99.63300000100571
 20
108.74700000102166
 10
101.58100000000559
 20
111.34600000100909
 10
102.16899999999441
 20
112.23099999898113
 10
90.72599999999511
 20
111.62799999897834
 10
84.27800000099523
 20
111.46500000002561
 10
86.43299999799638
 20
108.34099999797763
 10
87.19599999900674
 20
104.29300000198418
 10
86.27400000000489
 20
99.7459999989951
 10
90.83999999999651
 20
101.02399999997579
  0
LWPOLYLINE
  5
E9
330
17
100
AcDbEntity
  8
0
 62
0
100
AcDbPolyline
 90
7
 70
1
 10
105.21300000000338
 20
112.56399999902351
 10
104.74900000200432
 20
116.58900000201538
 10
104.44799999899988
 20
119.20100000099046
 10
102.1970000010042
 20
118.98999999801163
 10
102.11100000099395
 20
116.24900000198977
 10
102.16899999999441
 20
112.23099999898113
 10
105.21300000000338
 20
112.56399999902351
  0
LWPOLYLINE
  5
EA
330
17
100
AcDbEntity
  8
0
 62
0
100
AcDbPolyline
 90
12
 70
1
 10
146.71200000100362
 20
122.48999999801163
 10
145.550000001007
 20
125.62699999997858
 10
144.8619999999937
 20
127.48700000002282
 10
130.34299999799987
 20
122.82400000101188
 10
121.01799999900686
 20
120.75099999801023
 10
108.1889999989944
 20
119.55099999898812
 10
108.52000000000407
 20
117.07400000101188
 10
109.06600000000617
 20
112.98600000102306
 10
116.09499999899708
 20
113.75600000098348
 10
130.60200000200712
 20
116.34699999901932
 10
141.21400000200083
 20
120.09399999998277
 10
146.71200000100362
 20
122.48999999801163
  0
LWPOLYLINE
  5
EB
330
17
100
AcDbEntity
  8
0
 62
0
100
AcDbPolyline
 90
8
 70
1
 10
109.06600000000617
 20
112.98600000102306
 10
108.52000000000407
 20
117.07400000101188
 10
108.1889999989944
 20
119.55099999898812
 10
106.3900000010035
 20
119.38300000102026
 10
104.44799999899988
 20
119.20100000099046
 10
104.74900000200432
 20
116.58900000201538
 10
105.21300000000338
 20
112.56399999902351
 10
109.06600000000617
 20
112.98600000102306
  0
LWPOLYLINE
  5
EC
330
17
100
AcDbEntity
  8
0
 62
0
100
AcDbPolyline
 90
8
 70
1
 10
84.27800000099523
 20
111.46500000002561
 10
83.2459999989951
 20
114.79300000198418
 10
82.43399999999383
 20
117.55099999898812
 10
78.55499999999302
 20
117.26900000101887
 10
77.7569999989937
 20
117.2719999999972
 10
77.75099999799568
 20
114.80400000099326
 10
77.7430000010063
 20
111.38300000102026
 10
84.27800000099523
 20
111.46500000002561
  0
LWPOLYLINE
  5
ED
330
17
100
AcDbEntity
  8
0
 62
0
100
AcDbPolyline
 90
9
 70
1
 10
90.72599999999511
 20
111.62799999897834
 10
102.16899999999441
 20
112.23099999898113
 10
102.11100000099395
 20
116.24900000198977
 10
102.1970000010042
 20
118.98999999801163
 10
90.65600000000268
 20
118.14999999897555
 10
82.43399999999383
 20
117.55099999898812
 10
83.2459999989951
 20
114.79300000198418
 10
84.27800000099523
 20
111.46500000002561
 10
90.72599999999511
 20
111.62799999897834
  0
LWPOLYLINE
  5
EE
330
17
100
AcDbEntity
  8
0
 62
0
100
AcDbPolyline
 90
9
 70
1
 10
56.74099999999453
 20
236.54300000099465
 10
58.50199999999313
 20
286.5720000009751
 10
55.0830000010028
 20
283.2390000000014
 10
53.513999999006046
 20
281.7089999989839
 10
52.48975000200153
 20
257.6376875009737
 10
52.111999999993714
 20
248.76000000198837
 10
48.317000002003624
 20
244.96299999998882
 10
51.1510000010021
 20
242.12999999901513
 10
56.74099999999453
 20
236.54300000099465
  0
LWPOLYLINE
  5
EF
330
17
100
AcDbEntity
  8
0
 62
0
100
AcDbPolyline
 90
10
 70
1
 10
133.59699999900477
 20
59.04599999997299
 10
131.67199999799777
 20
61.02699999901233
 10
129.51900000100431
 20
63.24099999997998
 10
127.9320000000007
 20
64.87300000002142
 10
124.58399999899848
 20
62.07499999902211
 10
120.61899999900197
 20
58.7609999999986
 10
124.75800000100571
 20
54.47300000098767
 10
127.6860000010056
 20
51.44000000099186
 10
130.89400000100431
 20
55.568000000028405
 10
133.59699999900477
 20
59.04599999997299
  0
LWPOLYLINE
  5
F0
330
17
100
AcDbEntity
  8
0
 62
0
100
AcDbPolyline
 90
7
 70
1
 10
137.63400000000547
 20
54.96500000002561
 10
133.59699999900477
 20
59.04599999997299
 10
130.89400000100431
 20
55.568000000028405
 10
127.6860000010056
 20
51.44000000099186
 10
130.80400000099326
 20
48.20899999898393
 10
134.4930000010063
 20
51.85799999901792
 10
137.63400000000547
 20
54.96500000002561
  0
LWPOLYLINE
  5
F1
330
17
100
AcDbEntity
  8
0
 62
0
100
AcDbPolyline
 90
9
 70
1
 10
127.9320000000007
 20
64.87300000002142
 10
109.8790000010049
 20
83.44000000099186
 10
101.8489999989979
 20
92.25
 10
100.18299999799638
 20
96.27000000001863
 10
94.31600000000617
 20
93.83799999998882
 10
88.91899999999441
 20
91.60100000002421
 10
120.61899999900197
 20
58.7609999999986
 10
124.58399999899848
 20
62.07499999902211
 10
127.9320000000007
 20
64.87300000002142
  0
LWPOLYLINE
  5
F2
330
17
100
AcDbEntity
  8
0
 62
0
100
AcDbPolyline
 90
7
 70
1
 10
30.5150000010035
 20
227.42700000101468
 10
14.675000001006993
 20
243.8489999989979
 10
11.646000002001529
 20
240.97700000199256
 10
8.677999998995801
 20
238.1620000010007
 10
24.28599999799917
 20
221.704000000027
 10
27.239000000001397
 20
224.50099999801023
 10
30.5150000010035
 20
227.42700000101468
  0
LWPOLYLINE
  5
F3
330
17
100
AcDbEntity
  8
0
 62
0
100
AcDbPolyline
 90
13
 70
1
 10
73.78400000199326
 20
124.31599999999162
 10
73.86100000099395
 20
131.77399999997579
 10
-182.9323124999937
 20
132.96306249900954
 10
-184.306812498995
 20
132.9638749990263
 10
-189.95656249999593
 20
132.95443750201957
 10
-200.01024999799847
 20
131.89449999900535
 10
-197.4881874989951
 20
124.44224999897415
 10
-194.99887500000477
 20
117.12387499999022
 10
-187.4701875000028
 20
117.53637500101468
 10
-186.32543750100012
 20
117.57687500101747
 10
-130.95349999899918
 20
118.1001249999972
 10
73.71099999900616
 20
117.28799999901094
 10
73.78400000199326
 20
124.31599999999162
  0
LWPOLYLINE
  5
F4
330
17
100
AcDbEntity
  8
0
 62
0
100
AcDbPolyline
 90
7
 70
1
 10
86.16899999999441
 20
138.75299999897834
 10
77.8070000000007
 20
138.80600000201957
 10
77.79799999999523
 20
135.20300000201678
 10
77.78999999900407
 20
131.75499999901513
 10
85.20100000100501
 20
131.7210000010091
 10
85.67299999999523
 20
135.1539999989909
 10
86.16899999999441
 20
138.75299999897834
  0
LWPOLYLINE
  5
F5
330
17
100
AcDbEntity
  8
0
 62
0
100
AcDbPolyline
 90
12
 70
1
 10
73.93299999799638
 20
138.82999999797903
 10
-159.90956249799638
 20
138.88587500201538
 10
-200.50387499900535
 20
138.43756249902071
 10
-202.24212500099384
 20
138.41837500000838
 10
-201.3880624989979
 20
135.92181250097929
 10
-200.01024999799847
 20
131.89449999900535
 10
-189.95656249999593
 20
132.95443750201957
 10
-184.306812498995
 20
132.9638749990263
 10
-182.9323124999937
 20
132.96306249900954
 10
73.86100000099395
 20
131.77399999997579
 10
73.89600000200153
 20
135.2280000000028
 10
73.93299999799638
 20
138.82999999797903
  0
LWPOLYLINE
  5
F6
330
17
100
AcDbEntity
  8
0
 62
0
100
AcDbPolyline
 90
25
 70
1
 10
247.73200000099314
 20
189.6889999990235
 10
249.6030000000028
 20
190.96599999797763
 10
245.63899999900605
 20
195.54899999900954
 10
244.03000000100292
 20
197.4099999999744
 10
236.4169999989972
 20
206.21400000201538
 10
231.74099999999453
 20
211.6209999989951
 10
229.13400000000547
 20
214.63699999800883
 10
226.96999999899708
 20
217.13699999800883
 10
219.673999998995
 20
225.42999999999302
 10
213.15600000000268
 20
232.66299999901094
 10
209.91299999899638
 20
236.26199999800883
 10
207.09299999799987
 20
239.3900000010035
 10
205.576000001005
 20
238.05200000101468
 10
203.2540000010049
 20
236.00299999897834
 10
206.11300000200572
 20
232.87400000198977
 10
209.33900000200083
 20
229.3440000009723
 10
215.9010000010021
 20
222.03000000101747
 10
223.1900000010064
 20
213.83599999902071
 10
225.39999999900465
 20
211.3530000000028
 10
228.0029999989929
 20
208.4279999990249
 10
232.77899999900546
 20
203.0610000009765
 10
240.1710000000021
 20
194.75299999897834
 10
242.03000000100292
 20
192.64099999901373
 10
245.79500000200642
 20
188.36699999897974
 10
247.73200000099314
 20
189.6889999990235
  0
LWPOLYLINE
  5
F7
330
17
100
AcDbEntity
  8
0
 62
0
100
AcDbPolyline
 90
25
 70
1
 10
240.68800000099873
 20
184.8819999989937
 10
245.79500000200642
 20
188.36699999897974
 10
242.03000000100292
 20
192.64099999901373
 10
240.1710000000021
 20
194.75299999897834
 10
232.77899999900546
 20
203.0610000009765
 10
228.0029999989929
 20
208.4279999990249
 10
225.39999999900465
 20
211.3530000000028
 10
223.1900000010064
 20
213.83599999902071
 10
215.9010000010021
 20
222.03000000101747
 10
209.33900000200083
 20
229.3440000009723
 10
206.11300000200572
 20
232.87400000198977
 10
203.2540000010049
 20
236.00299999897834
 10
198.66600000100152
 20
231.9560000000056
 10
195.26900000100431
 20
228.95899999898393
 10
198.1279999989929
 20
225.75299999897834
 10
201.22100000099454
 20
222.28599999798462
 10
208.01399999900605
 20
214.72999999998137
 10
215.1119999999937
 20
206.7789999989909
 10
217.34800000100222
 20
204.27399999997579
 10
220.02000000000407
 20
201.28100000001723
 10
224.60700000099314
 20
195.97300000098767
 10
231.074999998993
 20
188.48700000002282
 10
233.45699999900535
 20
185.73099999898113
 10
236.60000000099535
 20
182.0920000000042
 10
240.68800000099873
 20
184.8819999989937
  0
LWPOLYLINE
  5
F8
330
17
100
AcDbEntity
  8
0
 62
0
100
AcDbPolyline
 90
25
 70
1
 10
230.70699999900535
 20
178.21099999902071
 10
236.60000000099535
 20
182.0920000000042
 10
233.45699999900535
 20
185.73099999898113
 10
231.074999998993
 20
188.48700000002282
 10
224.60700000099314
 20
195.97300000098767
 10
220.02000000000407
 20
201.28100000001723
 10
217.34800000100222
 20
204.27399999997579
 10
215.1119999999937
 20
206.7789999989909
 10
208.01399999900605
 20
214.72999999998137
 10
201.22100000099454
 20
222.28599999798462
 10
198.1279999989929
 20
225.75299999897834
 10
195.26900000100431
 20
228.95899999898393
 10
189.8509999999951
 20
224.17900000099326
 10
185.32800000200223
 20
220.1889999990235
 10
188.2430000010063
 20
216.9389999990235
 10
191.2349999989965
 20
213.60399999801302
 10
198.21300000000338
 20
205.92000000202097
 10
205.17199999799777
 20
198.0940000009723
 10
207.42900000099326
 20
195.55499999999302
 10
210.175000001007
 20
192.46599999797763
 10
214.6970000010042
 20
187.3790000010049
 10
220.30600000200502
 20
181.0680000000284
 10
223.37400000200432
 20
177.6070000010077
 10
225.73999999799707
 20
174.9389999990235
 10
230.70699999900535
 20
178.21099999902071
  0
LWPOLYLINE
  5
F9
330
17
100
AcDbEntity
  8
0
 62
0
100
AcDbPolyline
 90
25
 70
1
 10
223.7540000010049
 20
173.47600000002421
 10
225.73999999799707
 20
174.9389999990235
 10
223.37400000200432
 20
177.6070000010077
 10
220.30600000200502
 20
181.0680000000284
 10
214.6970000010042
 20
187.3790000010049
 10
210.175000001007
 20
192.46599999797763
 10
207.42900000099326
 20
195.55499999999302
 10
205.17199999799777
 20
198.0940000009723
 10
198.21300000000338
 20
205.92000000202097
 10
191.2349999989965
 20
213.60399999801302
 10
188.2430000010063
 20
216.9389999990235
 10
185.32800000200223
 20
220.1889999990235
 10
183.74099999999453
 20
218.78900000097929
 10
181.6099999989965
 20
216.90900000202237
 10
184.5130000000063
 20
213.61200000002282
 10
187.43299999799638
 20
210.29899999900954
 10
194.36899999900197
 20
202.4250000009779
 10
201.21300000000338
 20
194.63500000198837
 10
203.4739999989979
 20
192.07699999999022
 10
206.2430000010063
 20
188.94500000000698
 10
210.66499999900407
 20
183.8819999989937
 10
215.8220000010042
 20
177.97899999801302
 10
219.1119999999937
 20
174.17199999798322
 10
221.28599999799917
 20
171.65600000001723
 10
223.7540000010049
 20
173.47600000002421
  0
LWPOLYLINE
  5
FA
330
17
100
AcDbEntity
  8
0
 62
0
100
AcDbPolyline
 90
39
 70
1
 10
73.71099999900616
 20
117.28799999901094
 10
-130.95349999899918
 20
118.1001249999972
 10
-186.32543750100012
 20
117.57687500101747
 10
-187.4701875000028
 20
117.53637500101468
 10
-194.99887500000477
 20
117.12387499999022
 10
-200.34250000100292
 20
116.8310624990263
 10
-202.61262499900477
 20
116.60525000101188
 10
-207.5595000010071
 20
116.12887499900535
 10
-209.4236249999958
 20
115.94937500002561
 10
-210.7662499989965
 20
115.73456250102026
 10
-214.7305625010049
 20
115.10024999798043
 10
-227.0570000000007
 20
113.12806250201538
 10
-228.771312501005
 20
112.81062500202097
 10
-229.3648749999993
 20
112.70068750198698
 10
-230.2835625000007
 20
112.53056250099326
 10
-231.81793750099314
 20
112.24637499800883
 10
-235.87175000099523
 20
111.05062499997439
 10
-243.682812501007
 20
108.56012500100769
 10
-256.13524999799847
 20
104.37162499898113
 10
-264.1330000010057
 20
101.3845000009751
 10
-263.291187498995
 20
98.69506250001723
 10
-262.6275000010064
 20
96.57481250201818
 10
-235.77699999899778
 20
105.58599999902071
 10
-233.326000001005
 20
106.40900000202237
 10
-232.3669999989943
 20
106.6290000010049
 10
-231.3098750000063
 20
106.87131249898812
 10
-229.8283125010057
 20
107.21099999902071
 10
-228.19837500200083
 20
107.58474999997998
 10
-226.2664999999979
 20
108.02768750098767
 10
-225.38356250200013
 20
108.23025000101188
 10
-223.53550000100222
 20
108.65399999899091
 10
-210.00600000099803
 20
110.67599999898812
 10
-202.78431250200083
 20
110.83918749901932
 10
-192.5240000000049
 20
111.07099999900674
 10
-153.00600000099803
 20
110.89299999899231
 10
-73.97300000100222
 20
111.05999999900814
 10
73.64999999900465
 20
111.37400000198977
 10
73.68499999899359
 20
114.81100000097649
 10
73.71099999900616
 20
117.28799999901094
  0
LWPOLYLINE
  5
FB
330
17
100
AcDbEntity
  8
0
 62
0
100
AcDbPolyline
 90
42
 70
1
 10
82.94500000000698
 20
332.35900000098627
 10
79.46599999800674
 20
338.23400000098627
 10
53.70200000000477
 20
366.8599999989965
 10
40.34299999799987
 20
379.2650000010035
 10
24.043000000994653
 20
391.5399999989895
 10
8.221999999004765
 20
400.9589999989839
 10
-10.337000001003616
 20
410.3310000000056
 10
-29.526000001002103
 20
417.0940000009723
 10
-30.964999999996508
 20
414.6759999989881
 10
-31.789000000993838
 20
413.2910000010161
 10
-31.14418749899778
 20
413.063375000027
 10
-10.833999998998479
 20
405.8929999989923
 10
4.995999998995103
 20
397.9250000009779
 10
23.054999999993015
 20
385.3769999999786
 10
42.82400000099733
 20
367.1230000000214
 10
75.5610000010056
 20
332.90600000001723
 10
75.99399999900197
 20
303.2129999999888
 10
76.0789999999979
 20
297.4079999999958
 10
77.59600000099454
 20
292.2480000000214
 10
105.86599999999453
 20
259.7739999999758
 10
121.86499999799707
 20
241.89999999897555
 10
122.74900000200432
 20
241.31899999798043
 10
126.85900000100082
 20
239.94799999898532
 10
158.4580000010028
 20
237.28200000198558
 10
160.78699999999662
 20
237.08599999902071
 10
165.8399999999965
 20
234.8790000010049
 10
177.2850000000035
 20
221.83700000098906
 10
181.6099999989965
 20
216.90900000202237
 10
183.74099999999453
 20
218.78900000097929
 10
185.32800000200223
 20
220.1889999990235
 10
181.50600000099803
 20
224.48999999801163
 10
168.08700000100362
 20
238.80499999999302
 10
161.42299999999523
 20
241.2210000010091
 10
130.8880000000063
 20
243.8709999989951
 10
125.4010000010021
 20
245.63899999897694
 10
122.12300000000687
 20
248.10399999801302
 10
103.08700000100362
 20
269.85000000102445
 10
88.0150000010035
 20
287.6099999989965
 10
83.85099999999511
 20
292.7439999990165
 10
82.2960000000021
 20
296.88899999897694
 10
82.55499999999302
 20
304.66299999901094
 10
82.94500000000698
 20
332.35900000098627
  0
LWPOLYLINE
  5
FC
330
17
100
AcDbEntity
  8
0
 62
0
100
AcDbPolyline
 90
8
 70
1
 10
53.513999999006046
 20
281.7089999989839
 10
51.4739999989979
 20
283.90500000101747
 10
49.69000000100641
 20
285.8269999999902
 10
10.034000001993263
 20
249.0069999989937
 10
12.210000000995933
 20
246.58900000201538
 10
14.675000001006993
 20
243.8489999989979
 10
40.77818749799917
 20
269.2941875010147
 10
53.513999999006046
 20
281.7089999989839
  0
LWPOLYLINE
  5
FD
330
17
100
AcDbEntity
  8
0
 62
3
100
AcDbPolyline
 90
12
 70
1
 10
254.7939999999944
 20
240.74300000001676
 10
282.59100000000035
 20
265.63400000002
 10
323.17699999999604
 20
302.0480000000098
 10
309.3220000000001
 20
324.33500000002095
 10
305.6609999999928
 20
327.70000000001164
 10
304.3570000000036
 20
325.8429999999935
 10
301.81200000000536
 20
324.0929999999935
 10
312.27099999999336
 20
309.33500000002095
 10
273.8270000000048
 20
274.1809999999823
 10
219.67399999999907
 20
225.42999999999302
 10
226.97000000000116
 20
217.1369999999879
 10
254.7939999999944
 20
240.74300000001676
  0
LWPOLYLINE
  5
FE
330
17
100
AcDbEntity
  8
0
 62
3
100
AcDbPolyline
 90
8
 70
1
 10
122.52599999999802
 20
40.15799999999581
 10
130.80400000000373
 20
48.20899999997346
 10
127.68600000000151
 20
51.44000000000233
 10
125.83900000000722
 20
49.48300000000745
 10
118.82499999999709
 20
43.75099999998929
 10
7.434999999997672
 20
-63.3410000000149
 10
11.577000000004773
 20
-67.73499999998603
 10
122.52599999999802
 20
40.15799999999581
  0
LWPOLYLINE
  5
FF
330
17
100
AcDbEntity
  8
0
 62
3
100
AcDbPolyline
 90
8
 70
1
 10
57.021999999997206
 20
-110.72999999998137
 10
119.28200000000652
 20
-50.74699999997392
 10
172.86500000000524
 20
1.4550000000162981
 10
174.70900000000256
 20
3.919999999983702
 10
138.36000000000058
 20
41.30999999999767
 10
17.96700000000419
 20
-73.43900000001304
 10
54.83199999999488
 20
-112.11800000001676
 10
57.021999999997206
 20
-110.72999999998137
  0
LWPOLYLINE
  5
100
330
17
100
AcDbEntity
  8
0
 62
3
100
AcDbPolyline
 90
27
 70
1
 10
285.03399999999965
 20
41.81099999998696
 10
281.875
 20
44.49800000002142
 10
266.4640000000072
 20
51.70299999997951
 10
244.13700000000244
 20
74.67200000002049
 10
242.93700000000536
 20
72.66700000001583
 10
238.1889999999985
 20
68.11599999997998
 10
216.26499999999942
 20
45.95299999997951
 10
224.403999999995
 20
36.51899999997113
 10
189.6640000000043
 20
2.662000000011176
 10
220.2109999999957
 20
-29.17300000000978
 10
221.2109999999957
 20
-29.37300000002142
 10
223.49800000000687
 20
-28.04700000002049
 10
257.622000000003
 20
4.955000000016298
 10
266.6119999999937
 20
12.967000000004191
 10
361.59100000000035
 20
-85.24900000001071
 10
317.30599999999686
 20
-127.84399999998277
 10
343.2960000000021
 20
-155.09499999997206
 10
403.6779999999999
 20
-96.52799999999115
 10
410.04899999999907
 20
-103.22899999999208
 10
413.9060000000027
 20
-99.5569999999716
 10
407.87699999999313
 20
-93.81199999997625
 10
390.90499999999884
 20
-76.5229999999865
 10
390.99400000000605
 20
-72.35999999998603
 10
389.872000000003
 20
-67.57600000000093
 10
387.25599999999395
 20
-63.81300000002375
 10
355.3429999999935
 20
-30.20299999997951
 10
285.03399999999965
 20
41.81099999998696
  0
LWPOLYLINE
  5
101
330
17
100
AcDbEntity
  8
0
 62
3
100
AcDbPolyline
 90
19
 70
1
 10
203.37699999999313
 20
196.52600000001257
 10
205.17200000000594
 20
198.09399999998277
 10
209.6070000000036
 20
201.96899999998277
 10
215.1119999999937
 20
206.77899999998044
 10
218.50100000000384
 20
209.7399999999907
 10
223.19000000000233
 20
213.83600000001024
 10
225.1750000000029
 20
215.5690000000177
 10
226.97000000000116
 20
217.1369999999879
 10
219.67399999999907
 20
225.42999999999302
 10
217.94000000000233
 20
223.86700000002747
 10
215.90099999999802
 20
222.03000000002794
 10
211.31699999999546
 20
217.78700000001118
 10
208.01399999999558
 20
214.72999999998137
 10
202.5920000000042
 20
209.85499999998137
 10
198.21300000000338
 20
205.9199999999837
 10
196.471000000005
 20
204.33699999999953
 10
194.36900000000605
 20
202.42499999998836
 10
201.21300000000338
 20
194.6350000000093
 10
203.37699999999313
 20
196.52600000001257
  0
LWPOLYLINE
  5
102
330
17
100
AcDbEntity
  8
0
 62
3
100
AcDbPolyline
 90
14
 70
1
 10
29.395000000004075
 20
216.31700000201818
 10
24.28599999799917
 20
221.704000000027
 10
8.677999998995801
 20
238.1620000010007
 10
3.903999999005464
 20
243.19500000000698
 10
-9.225000000995351
 20
257.0399999989895
 10
-106.08700000100362
 20
168.90199999901233
 10
-97.01931250099733
 20
156.39581249997718
 10
-34.16768750200572
 20
155.74112499901094
 10
-26.552000001000124
 20
163.46400000201538
 10
-44.182999997996376
 20
181.11100000102306
 10
-41.35200000200712
 20
183.28799999901094
 10
-38.51599999899918
 20
185.46999999898253
 10
-21.390999998999177
 20
168.33900000201538
 10
29.395000000004075
 20
216.31700000201818
  0
LWPOLYLINE
  5
103
330
17
100
AcDbEntity
  8
0
 62
3
100
AcDbPolyline
 90
18
 70
1
 10
146.77599999999802
 20
262.90200000000186
 10
124.3070000000007
 20
288.454000000027
 10
124.89999999999418
 20
289.10899999999674
 10
109.17200000000594
 20
306.4000000000233
 10
108.73500000000058
 20
306.0879999999888
 10
96.43600000000151
 20
319.3400000000256
 10
82.94500000000698
 20
332.35899999999674
 10
82.55499999999302
 20
304.66300000000047
 10
82.2960000000021
 20
296.8890000000247
 10
83.85099999999511
 20
292.74400000000605
 10
88.01499999999942
 20
287.60999999998603
 10
103.08699999999953
 20
269.8499999999767
 10
122.12300000000687
 20
248.10399999999208
 10
125.40099999999802
 20
245.63900000002468
 10
130.8880000000063
 20
243.87099999998463
 10
161.42299999999523
 20
241.22100000001956
 10
168.08699999999953
 20
238.80499999999302
 10
146.77599999999802
 20
262.90200000000186
  0
LWPOLYLINE
  5
104
330
17
100
AcDbEntity
  8
0
 62
3
100
AcDbPolyline
 90
8
 70
1
 10
14.68399999999383
 20
31.56199999997625
 10
12.688999999998487
 20
33.05900000000838
 10
-26.51600000000326
 20
72.6479999999865
 10
-36.28900000000431
 20
63.45299999997951
 10
-41.44800000000396
 20
58.59899999998743
 10
-56.7670000000071
 20
44.18599999998696
 10
-15.418999999994412
 20
3.069000000017695
 10
14.68399999999383
 20
31.56199999997625
  0
LWPOLYLINE
  5
105
330
17
100
AcDbEntity
  8
0
 62
3
100
AcDbPolyline
 90
11
 70
1
 10
315.5639999999985
 20
58.37900000001537
 10
237.87099999999919
 20
153.34600000001956
 10
235.00299999999697
 20
156.85100000002421
 10
221.28599999999278
 20
171.65600000001723
 10
209.08199999999488
 20
160.82500000001164
 10
257.2020000000048
 20
104.09499999997206
 10
260.8329999999987
 20
100.67999999999302
 10
331.7670000000071
 20
33.976000000024214
 10
333.43700000000536
 20
34.1359999999986
 10
334.55100000000675
 20
35.1699999999837
 10
315.5639999999985
 20
58.37900000001537
  0
LWPOLYLINE
  5
106
330
17
100
AcDbEntity
  8
0
 62
3
100
AcDbPolyline
 90
8
 70
1
 10
113.11699999999837
 20
228.90000000002328
 10
109.53200000000652
 20
233.05900000000838
 10
107.875
 20
234.41499999997905
 10
105.23799999999756
 20
235.63000000000466
 10
98.92500000000291
 20
233.9670000000042
 10
76.99300000000221
 20
235.63000000000466
 10
76.57000000000698
 20
232.92300000000978
 10
113.11699999999837
 20
228.90000000002328
  0
LWPOLYLINE
  5
107
330
17
100
AcDbEntity
  8
0
 62
3
100
AcDbPolyline
 90
16
 70
1
 10
192.0439999999944
 20
248.0669999999809
 10
187.57399999999325
 20
255.06400000001304
 10
186.02099999999336
 20
263.6149999999907
 10
187.77000000000407
 20
282.07600000000093
 10
185.0500000000029
 20
287.51799999998184
 10
161.21300000000338
 20
314.40399999998044
 10
145.25199999999313
 20
331.6039999999921
 10
141.13700000000244
 20
334.4660000000149
 10
137.6030000000028
 20
334.68900000001304
 10
122.44800000000396
 20
334.20100000000093
 10
118.30299999999988
 20
334.46000000002095
 10
110.16599999999744
 20
340.2980000000098
 10
127.46499999999651
 20
317.42399999999907
 10
146.25199999999313
 20
296.94900000002235
 10
169.2109999999957
 20
270.66700000001583
 10
192.0439999999944
 20
248.0669999999809
  0
LWPOLYLINE
  5
108
330
17
100
AcDbEntity
  8
0
 62
3
100
AcDbPolyline
 90
7
 70
1
 10
3.127999999996973
 20
-58.771999999997206
 10
63.445000000006985
 20
-0.4930000000167638
 10
64.49700000000303
 20
9.677000000025146
 10
55.203999999997905
 20
0.42499999998835847
 10
52.520999999993364
 20
3.2229999999981374
 10
-4.813999999998487
 20
-50.34799999999814
 10
3.127999999996973
 20
-58.771999999997206
  0
LWPOLYLINE
  5
109
330
17
100
AcDbEntity
  8
0
 62
3
100
AcDbPolyline
 90
10
 70
1
 10
201.21300000000338
 20
194.6350000000093
 10
194.36900000000605
 20
202.42499999998836
 10
145.04099999999744
 20
157.5800000000163
 10
142.5179999999964
 20
153.14000000001397
 10
142.6429999999964
 20
149.13900000002468
 10
143.3819999999978
 20
147.47299999999814
 10
149.25299999999697
 20
150.03100000001723
 10
154.02999999999884
 20
153.85399999999208
 10
154.85599999999977
 20
154.2150000000256
 10
201.21300000000338
 20
194.6350000000093
  0
LWPOLYLINE
  5
10A
330
17
100
AcDbEntity
  8
0
 62
3
100
AcDbPolyline
 90
20
 70
1
 10
242.71400000000722
 20
83.09399999998277
 10
200.80599999999686
 20
110.69799999997485
 10
204.73500000000058
 20
97.92599999997765
 10
210.1600000000035
 20
92.38400000002002
 10
205.16599999999744
 20
87.75900000002002
 10
215.15499999999884
 20
78.14000000001397
 10
216.82000000000698
 20
76.28999999997905
 10
217.55899999999383
 20
74.07000000000698
 10
217.1889999999985
 20
72.21999999997206
 10
215.52499999999418
 20
69.81599999999162
 10
207.20100000000093
 20
63.3410000000149
 10
206.27599999999802
 20
62.04599999997299
 10
205.721000000005
 20
60.75099999998929
 10
205.53599999999278
 20
59.271000000007916
 10
205.6750000000029
 20
58.15700000000652
 10
206.57600000000093
 20
55.569000000017695
 10
212.4600000000064
 20
49.56099999998696
 10
224.63499999999476
 20
61.99900000001071
 10
238.9499999999971
 20
77.4780000000028
 10
242.71400000000722
 20
83.09399999998277
  0
LWPOLYLINE
  5
10B
330
17
100
AcDbEntity
  8
0
 62
3
100
AcDbPolyline
 90
15
 70
1
 10
56.59200000000419
 20
74.4660000000149
 10
30.427999999999884
 20
101.68599999998696
 10
23.312000000005355
 20
94.5680000000284
 10
7.7480000000068685
 20
80.00099999998929
 10
-15.047000000005937
 20
101.57699999999022
 10
-33.99499999999534
 20
85.61599999997998
 10
-52.445000000006985
 20
102.32500000001164
 10
-65.24300000000221
 20
91.28100000001723
 10
-44.24300000000221
 20
69.5219999999972
 10
-41.255999999993946
 20
68.73200000001816
 10
-26.91599999999744
 20
82.29899999999907
 10
18.611999999993714
 20
37.23700000002282
 10
24.721999999994296
 20
44.12699999997858
 10
48.96899999999732
 20
67.94099999999162
 10
56.59200000000419
 20
74.4660000000149
  0
LWPOLYLINE
  5
10C
330
17
100
AcDbEntity
  8
0
 62
3
100
AcDbPolyline
 90
9
 70
1
 10
54.79399999999441
 20
290.5659999999916
 10
67.53299999999581
 20
302.3950000000186
 10
49.48399999999674
 20
320.1900000000023
 10
-6.9210000000020955
 20
266.87099999998463
 10
-2.411999999996624
 20
262.2160000000149
 10
8.782999999995809
 20
250.6599999999744
 10
10.03399999999965
 20
249.00699999998324
 10
49.69000000000233
 20
285.8269999999902
 10
54.79399999999441
 20
290.5659999999916
  0
LWPOLYLINE
  5
10D
330
17
100
AcDbEntity
  8
0
 62
3
100
AcDbPolyline
 90
23
 70
1
 10
413.9060000000027
 20
-99.5569999999716
 10
418.57300000000396
 20
-95.11800000001676
 10
420.27300000000105
 20
-92.90799999999581
 10
421.12300000000687
 20
-89.50699999998324
 10
420.7829999999958
 20
-86.95600000000559
 10
416.4579999999987
 20
-82.23700000002282
 10
415.72900000000664
 20
-80.93800000002375
 10
349.8950000000041
 20
-13.112000000022817
 10
290.9389999999985
 20
46.20899999997346
 10
269.5939999999973
 20
64.42700000002515
 10
254.71400000000722
 20
75.88400000002002
 10
247.48099999999977
 20
80.25900000002002
 10
244.13700000000244
 20
74.67200000002049
 10
266.4640000000072
 20
51.70299999997951
 10
281.875
 20
44.49800000002142
 10
285.03399999999965
 20
41.81099999998696
 10
355.3429999999935
 20
-30.20299999997951
 10
387.25599999999395
 20
-63.81300000002375
 10
389.872000000003
 20
-67.57600000000093
 10
390.99400000000605
 20
-72.35999999998603
 10
390.90499999999884
 20
-76.5229999999865
 10
407.87699999999313
 20
-93.81199999997625
 10
413.9060000000027
 20
-99.5569999999716
  0
LWPOLYLINE
  5
10E
330
17
100
AcDbEntity
  8
0
 62
3
100
AcDbPolyline
 90
13
 70
1
 10
177.2850000000035
 20
221.83699999999953
 10
165.8399999999965
 20
234.87900000001537
 10
160.78699999999662
 20
237.08600000001024
 10
158.45799999999872
 20
237.28200000000652
 10
126.85899999999674
 20
239.94799999997485
 10
122.74899999999616
 20
241.3190000000177
 10
109.49700000000303
 20
239.89199999999255
 10
113.90099999999802
 20
236.67399999999907
 10
118.26900000000023
 20
232.9079999999958
 10
120.07700000000477
 20
230.34799999999814
 10
120.92699999999604
 20
228.04100000002654
 10
142.07300000000396
 20
225.71299999998882
 10
177.2850000000035
 20
221.83699999999953
  0
LWPOLYLINE
  5
10F
330
17
100
AcDbEntity
  8
0
 62
3
100
AcDbPolyline
 90
6
 70
1
 10
75.78100000000268
 20
227.8740000000107
 10
75.43499999999767
 20
221.60100000002421
 10
89.96400000000722
 20
206.6830000000191
 10
96.08199999999488
 20
203.62300000002142
 10
114.78399999999965
 20
223.08199999999488
 10
75.78100000000268
 20
227.8740000000107
  0
LWPOLYLINE
  5
110
330
17
100
AcDbEntity
  8
0
 62
3
100
AcDbPolyline
 90
28
 70
1
 10
213.47999999999593
 20
283.320000000007
 10
130.08299999999872
 20
376.1329999999725
 10
81.6929999999993
 20
427.58699999999953
 10
50.74199999999837
 20
447.6450000000186
 10
14.123000000006869
 20
464.6510000000126
 10
10.19999999999709
 20
464.2150000000256
 10
-3.3739999999961583
 20
437.0449999999837
 10
20.202999999994063
 20
426.82500000001164
 10
43.205000000001746
 20
413.51600000000326
 10
59.93099999999686
 20
400.3969999999972
 10
76.84900000000198
 20
384.61599999998
 10
118.20299999999406
 20
342.12099999998463
 10
123.346000000005
 20
340.6510000000126
 10
124.30599999999686
 20
340.3769999999786
 10
142.61599999999453
 20
339.9409999999916
 10
148.71899999999732
 20
337.32600000000093
 10
191.44100000000617
 20
288.92399999999907
 10
192.0679999999993
 20
287.23300000000745
 10
193.403999999995
 20
283.63099999999395
 10
191.65499999999884
 20
261.86599999998
 10
192.82099999999627
 20
257.00699999998324
 10
199.62099999999919
 20
247.67999999999302
 10
207.09299999999348
 20
239.39000000001397
 10
229.0240000000049
 20
258.4920000000275
 10
229.77700000000186
 20
259.62099999998463
 10
230.37600000000384
 20
262.54899999999907
 10
230.1380000000063
 20
264.93599999998696
 10
213.47999999999593
 20
283.320000000007
  0
LWPOLYLINE
  5
111
330
17
100
AcDbEntity
  8
0
 62
3
100
AcDbPolyline
 90
20
 70
1
 10
122.74899999999616
 20
241.3190000000177
 10
121.86500000000524
 20
241.90000000002328
 10
105.86599999999453
 20
259.7739999999758
 10
77.596000000005
 20
292.2480000000214
 10
76.0789999999979
 20
297.4079999999958
 10
75.99400000000605
 20
303.2129999999888
 10
75.46199999999953
 20
303.1049999999814
 10
58.50199999999313
 20
286.57199999998556
 10
56.74099999999453
 20
236.54300000000512
 10
56.69999999999709
 20
235.37199999997392
 10
68.23600000000442
 20
233.72999999998137
 10
68.02099999999336
 20
236.62699999997858
 10
61.70699999999488
 20
237.29200000001583
 10
64.69800000000396
 20
274.8630000000121
 10
66.35899999999674
 20
278.18800000002375
 10
69.35000000000582
 20
280.1830000000191
 10
72.34100000000035
 20
281.179999999993
 10
76.32799999999406
 20
279.1849999999977
 10
109.49700000000303
 20
239.89199999999255
 10
122.74899999999616
 20
241.3190000000177
  0
LWPOLYLINE
  5
112
330
17
100
AcDbEntity
  8
0
 62
3
100
AcDbPolyline
 90
5
 70
1
 10
177.2850000000035
 20
221.83699999999953
 10
142.07300000000396
 20
225.71299999998882
 10
165.4539999999979
 20
202.65600000001723
 10
181.61000000000058
 20
216.9089999999851
 10
177.2850000000035
 20
221.83699999999953
  0
LWPOLYLINE
  5
113
330
17
100
AcDbEntity
  8
0
 62
3
100
AcDbPolyline
 90
22
 70
1
 10
208.6710000000021
 20
153.36200000002282
 10
205.15200000000186
 20
157.0910000000149
 10
197.21199999999953
 20
150.2860000000219
 10
190.48600000000442
 20
145.39299999998184
 10
179.26200000000244
 20
138.39199999999255
 10
152.44700000000012
 20
125.08100000000559
 10
155.9609999999957
 20
117.12300000002142
 10
157.44100000000617
 20
115.08799999998882
 10
159.10599999999977
 20
113.97600000002421
 10
160.5859999999957
 20
113.60700000001816
 10
161.80499999999302
 20
113.48800000001211
 10
185.99599999999919
 20
121.80300000001444
 10
190.29300000000512
 20
122.73700000002282
 10
192.53399999999965
 20
122.83100000000559
 10
196.08400000000256
 20
122.36499999999069
 10
199.7259999999951
 20
121.24200000002747
 10
206.6380000000063
 20
116.85100000002421
 10
228.16700000000128
 20
102.04200000001583
 10
237.4140000000043
 20
95.50199999997858
 10
246.9140000000043
 20
89.35999999998603
 10
255.00199999999313
 20
101.75599999999395
 10
208.6710000000021
 20
153.36200000002282
  0
LWPOLYLINE
  5
114
330
17
100
AcDbEntity
  8
0
 62
3
100
AcDbPolyline
 90
20
 70
1
 10
118.99899999999616
 20
57.15000000002328
 10
120.61900000000605
 20
58.7609999999986
 10
88.91899999999441
 20
91.60100000002421
 10
25.58400000000256
 20
30.06099999998696
 10
20.726999999998952
 20
25.34200000000419
 10
17.710999999995693
 20
22.494999999995343
 10
12.976999999998952
 20
18.418999999994412
 10
5.245999999999185
 20
11.12599999998929
 10
0.94100000000617
 20
6.293000000005122
 10
-9.895999999993364
 20
-3.2220000000088476
 10
-11.269000000000233
 20
-4.427000000025146
 10
-14.263999999995576
 20
-7.5530000000144355
 10
-30.736999999993714
 20
-22.852000000013504
 10
-4.813999999998487
 20
-50.34799999999814
 10
52.520999999993364
 20
3.2229999999981374
 10
55.203999999997905
 20
0.42499999998835847
 10
64.49700000000303
 20
9.677000000025146
 10
97.70100000000093
 20
42.02700000000186
 10
102.82499999999709
 20
41.7160000000149
 10
118.99899999999616
 20
57.15000000002328
  0
LWPOLYLINE
  5
115
330
17
100
AcDbEntity
  8
0
 62
3
100
AcDbPolyline
 90
32
 70
1
 10
214.22999999999593
 20
35.2239999989979
 10
209.8509999999951
 20
39.75900000002002
 10
206.21200000100362
 20
43.52699999901233
 10
198.64200000099663
 20
51.36599999997998
 10
201.67999999999302
 20
54.29899999900954
 10
205.675000001007
 20
58.15700000198558
 10
205.53599999799917
 20
59.27100000198698
 10
205.72100000099454
 20
60.75099999801023
 10
206.2760000010021
 20
62.04599999997299
 10
207.201000001005
 20
63.34099999797763
 10
215.52499999900465
 20
69.81599999999162
 10
217.1889999989944
 20
72.21999999898253
 10
217.55899999999383
 20
74.07000000000698
 10
216.82000000000698
 20
76.28999999898952
 10
215.15500000100292
 20
78.1400000010035
 10
205.16600000100152
 20
87.75900000002002
 10
210.1600000000035
 20
92.38400000002002
 10
204.7349999989965
 20
97.92599999898812
 10
200.80600000200502
 20
110.69799999898532
 10
195.32706249899638
 20
115.47837499901652
 10
191.18324999899778
 20
116.42556250101188
 10
186.44750000200293
 20
116.18874999898253
 10
181.47493749900605
 20
115.00481250102166
 10
168.56993750100082
 20
104.9413124989951
 10
153.41543750099663
 20
88.36606249999022
 10
146.89831250200223
 20
76.35137499897974
 10
139.8680000010063
 20
67.00900000002002
 10
133.59699999900477
 20
59.04599999997299
 10
137.63400000000547
 20
54.96500000002561
 10
144.82000000000698
 20
47.69900000101188
 10
185.00099999799568
 20
7.068000000028405
 10
214.22999999999593
 20
35.2239999989979
  0
LWPOLYLINE
  5
116
330
17
100
AcDbEntity
  8
0
 62
3
100
AcDbPolyline
 90
23
 70
1
 10
135.5236875010014
 20
72.17037500097649
 10
144.18068749799568
 20
84.1038749999716
 10
152.1131250000035
 20
100.44231250102166
 10
153.17868750200432
 20
104.34931249899091
 10
153.06024999900546
 20
107.66437499999302
 10
152.5309999989986
 20
111.68800000101328
 10
146.71200000100362
 20
122.48999999801163
 10
141.21400000200083
 20
120.09399999998277
 10
130.60200000200712
 20
116.34699999901932
 10
116.09499999899708
 20
113.75600000098348
 10
109.06600000000617
 20
112.98600000102306
 10
105.21300000000338
 20
112.56399999902351
 10
102.16899999999441
 20
112.23099999898113
 10
101.58100000000559
 20
111.34600000100909
 10
99.63300000100571
 20
108.74700000102166
 10
98.75299999899289
 20
105.63699999800883
 10
98.6929999999993
 20
103.13100000098348
 10
99.51900000100431
 20
98.50099999801023
 10
100.18299999799638
 20
96.27000000001863
 10
101.8489999989979
 20
92.25
 10
109.8790000010049
 20
83.44000000099186
 10
127.9320000000007
 20
64.87300000002142
 10
135.5236875010014
 20
72.17037500097649
  0
LWPOLYLINE
  5
117
330
17
100
AcDbEntity
  8
0
 62
3
100
AcDbPolyline
 90
25
 70
1
 10
66.74900000200432
 20
195.1140000000014
 10
62.896999999997206
 20
199.05099999898812
 10
53.17299999999523
 20
210.89899999997579
 10
68.68499999899359
 20
227.64999999897555
 10
68.6180000010063
 20
228.56700000201818
 10
55.93499999899359
 20
228.86899999901652
 10
45.245000000999426
 20
229.46299999998882
 10
42.171000000002095
 20
229.63300000102026
 10
35.15500000100292
 20
222.61599999997998
 10
40.629999999000574
 20
216.9389999990235
 10
49.7540000010049
 20
207.47999999998137
 10
83.45699999900535
 20
172.8310000000056
 10
90.1929999999993
 20
164.28200000198558
 10
93.55899999999383
 20
153.39899999997579
 10
98.77899999900546
 20
139.67399999900954
 10
102.06700000200362
 20
139.86899999901652
 10
105.44500000000698
 20
140.07000000000698
 10
116.09499999899708
 20
140.70300000201678
 10
128.27100000200153
 20
142.51700000098208
 10
137.09299999799987
 20
145.25199999997858
 10
134.63500000200293
 20
154.295999999973
 10
129.96300000000338
 20
159.15199999901233
 10
116.84499999899708
 20
172.78599999798462
 10
89.9389999989944
 20
171.4169999990263
 10
66.74900000200432
 20
195.1140000000014
  0
LWPOLYLINE
  5
118
330
17
100
AcDbEntity
  8
0
 62
3
100
AcDbPolyline
 90
24
 70
1
 10
-181.12699999999313
 20
179.2760000010021
 10
-183.6469999999972
 20
181.87999999901513
 10
-185.07700000000477
 20
183.3570000010077
 10
-223.54100000100152
 20
225.13699999800883
 10
-220.98400000100082
 20
227.30999999900814
 10
-218.14400000100431
 20
229.7239999989979
 10
-236.2135000010021
 20
248.90843750198837
 10
-240.18543749999662
 20
247.05487500102026
 10
-238.53331250000338
 20
241.48225000099046
 10
-216.9846250010014
 20
182.90206250199117
 10
-200.50387499900535
 20
138.43756249902071
 10
-159.90956249799638
 20
138.88587500201538
 10
73.93299999799638
 20
138.82999999797903
 10
77.8070000000007
 20
138.80600000201957
 10
86.16899999999441
 20
138.75299999897834
 10
66.87493750099384
 20
156.1776250010007
 10
53.78087500100082
 20
149.19406250101747
 10
-35.46875
 20
149.4968125000014
 10
-99.76381250099803
 20
150.15056249900954
 10
-141.53912499900616
 20
149.4123125000042
 10
-149.0650000010064
 20
156.04100000101607
 10
-151.4690000010014
 20
153.96000000101048
 10
-154.27299999799288
 20
151.5349999999744
 10
-181.12699999999313
 20
179.2760000010021
  0
LWPOLYLINE
  5
119
330
17
100
AcDbEntity
  8
0
 62
3
100
AcDbPolyline
 90
55
 70
1
 10
86.27400000000489
 20
99.7459999989951
 10
87.19599999900674
 20
104.29300000198418
 10
86.43299999799638
 20
108.34099999797763
 10
84.27800000099523
 20
111.46500000002561
 10
77.7430000010063
 20
111.38300000102026
 10
73.64999999900465
 20
111.37400000198977
 10
-73.97300000100222
 20
111.05999999900814
 10
-153.00600000099803
 20
110.89299999899231
 10
-192.5240000000049
 20
111.07099999900674
 10
-202.78431250200083
 20
110.83918749901932
 10
-210.00600000099803
 20
110.67599999898812
 10
-223.53550000100222
 20
108.65399999899091
 10
-225.38356250200013
 20
108.23025000101188
 10
-226.2664999999979
 20
108.02768750098767
 10
-228.19837500200083
 20
107.58474999997998
 10
-229.8283125010057
 20
107.21099999902071
 10
-231.3098750000063
 20
106.87131249898812
 10
-232.3669999989943
 20
106.6290000010049
 10
-233.326000001005
 20
106.40900000202237
 10
-235.77699999899778
 20
105.58599999902071
 10
-262.6275000010064
 20
96.57481250201818
 10
-263.9470000010042
 20
96.1319999989937
 10
-266.17387499999313
 20
95.28631249797763
 10
-269.84299999799987
 20
93.89299999899231
 10
-295.9919374989986
 20
83.96337499801302
 10
-297.9100000000035
 20
83.2349999989965
 10
-300.1920000020036
 20
81.15199999901233
 10
-241.6330000010057
 20
88.21799999801442
 10
-233.83700000100362
 20
87.70600000000559
 10
-217.24800000000687
 20
93.30799999798182
 10
-216.5789999999979
 20
93.53299999999581
 10
-217.3900000010035
 20
95.56199999898672
 10
-185.1469999999972
 20
106.1099999989965
 10
-180.72999999999593
 20
93.72100000100909
 10
-163.48600000099395
 20
99.07499999902211
 10
-152.80400000099326
 20
102.41400000097929
 10
-150.06600000000617
 20
103.27000000001863
 10
-142.15700000200013
 20
104.28400000202237
 10
-134.0460000000021
 20
103.87799999897834
 10
-129.17900000099326
 20
102.66099999798462
 10
-126.18100000200502
 20
100.82800000201678
 10
-123.95499999799358
 20
94.5
 10
-104.48999999799707
 20
99.33199999900535
 10
-101.46499999999651
 20
99.3550000009709
 10
-73.73099999899569
 20
99.5680000000284
 10
-72.0789999999979
 20
99.58100000000559
 10
-65.2430000010063
 20
91.28100000001723
 10
-52.445000000006985
 20
102.32499999902211
 10
-33.995000000999426
 20
85.61599999997998
 10
-15.046999997997773
 20
101.57699999999022
 10
7.7480000000068685
 20
80.00099999801023
 10
23.311999999001273
 20
94.5680000000284
 10
30.4279999989958
 20
101.68600000097649
 10
56.59200000000419
 20
74.46599999797763
 10
86.27400000000489
 20
99.7459999989951
  0
LWPOLYLINE
  5
11A
330
17
100
AcDbEntity
  8
0
 62
3
100
AcDbPolyline
 90
11
 70
1
 10
81.8029999989958
 20
161.0529999990249
 10
34.495000000999426
 20
210.9389999990235
 10
-17.33900000200083
 20
163.87599999801023
 10
-22.594999998997082
 20
159.10599999898113
 10
-35.46875
 20
149.4968125000014
 10
53.78087500100082
 20
149.19406250101747
 10
66.87493750099384
 20
156.1776250010007
 10
86.16899999999441
 20
138.75299999897834
 10
86.59800000100222
 20
141.86699999897974
 10
85.28999999900407
 20
151.89600000198698
 10
81.8029999989958
 20
161.0529999990249
  0
LWPOLYLINE
  5
11B
330
17
100
AcDbEntity
  8
0
 62
3
100
AcDbPolyline
 90
8
 70
1
 10
39.030999998998595
 20
235.67399999900954
 10
48.317000002003624
 20
244.96299999998882
 10
52.111999999993714
 20
248.76000000198837
 10
52.48975000200153
 20
257.6376875009737
 10
40.77818749799917
 20
269.2941875010147
 10
14.675000001006993
 20
243.8489999989979
 10
30.5150000010035
 20
227.42700000101468
 10
39.030999998998595
 20
235.67399999900954
  0
ENDSEC
  0
SECTION
  2
OBJECTS
  0
DICTIONARY
  5
A
330
0
100
AcDbDictionary
280
0
281
1
  3
ACAD_COLOR
350
B
  3
ACAD_GROUP
350
C
  3
ACAD_LAYOUT
350
D
  3
ACAD_MATERIAL
350
E
  3
ACAD_MLEADERSTYLE
350
F
  3
ACAD_MLINESTYLE
350
10
  3
ACAD_PLOTSETTINGS
350
11
  3
ACAD_PLOTSTYLENAME
350
12
  3
ACAD_SCALELIST
350
14
  3
ACAD_TABLESTYLE
350
15
  3
ACAD_VISUALSTYLE
350
16
  3
EZDXF_META
350
2D
  0
DICTIONARY
  5
B
330
A
100
AcDbDictionary
280
0
281
1
  0
DICTIONARY
  5
C
330
A
100
AcDbDictionary
280
0
281
1
  0
DICTIONARY
  5
D
330
A
100
AcDbDictionary
280
0
281
1
  3
Model
350
1A
  3
Layout1
350
1E
  0
DICTIONARY
  5
E
330
A
100
AcDbDictionary
280
0
281
1
  3
ByBlock
350
1F
  3
ByLayer
350
20
  3
Global
350
21
  0
DICTIONARY
  5
F
330
A
100
AcDbDictionary
280
0
281
1
  3
Standard
350
2C
  0
DICTIONARY
  5
10
330
A
100
AcDbDictionary
280
0
281
1
  3
Standard
350
22
  0
DICTIONARY
  5
11
330
A
100
AcDbDictionary
280
0
281
1
  0
ACDBDICTIONARYWDFLT
  5
12
330
A
100
AcDbDictionary
280
0
281
1
  3
Normal
350
13
100
AcDbDictionaryWithDefault
340
13
  0
ACDBPLACEHOLDER
  5
13
330
12
  0
DICTIONARY
  5
14
330
A
100
AcDbDictionary
280
0
281
1
  0
DICTIONARY
  5
15
330
A
100
AcDbDictionary
280
0
281
1
  0
DICTIONARY
  5
16
330
A
100
AcDbDictionary
280
0
281
1
  0
LAYOUT
  5
1A
330
D
100
AcDbPlotSettings
  1

  4
A3
  6

 40
7.5
 41
20.0
 42
7.5
 43
20.0
 44
420.0
 45
297.0
 46
0.0
 47
0.0
 48
0.0
 49
0.0
140
0.0
141
0.0
142
1.0
143
1.0
 70
1024
 72
1
 73
0
 74
5
  7

 75
16
 76
0
 77
2
 78
300
147
1.0
148
0.0
149
0.0
100
AcDbLayout
  1
Model
 70
1
 71
0
 10
0.0
 20
0.0
 11
420.0
 21
297.0
 12
0.0
 22
0.0
 32
0.0
 14
1e+20
 24
1e+20
 34
1e+20
 15
-1e+20
 25
-1e+20
 35
-1e+20
146
0.0
 13
0.0
 23
0.0
 33
0.0
 16
1.0
 26
0.0
 36
0.0
 17
0.0
 27
1.0
 37
0.0
 76
1
330
17
  0
LAYOUT
  5
1E
330
D
100
AcDbPlotSettings
  1

  4
A3
  6

 40
7.5
 41
20.0
 42
7.5
 43
20.0
 44
420.0
 45
297.0
 46
0.0
 47
0.0
 48
0.0
 49
0.0
140
0.0
141
0.0
142
1.0
143
1.0
 70
0
 72
1
 73
0
 74
5
  7

 75
16
 76
0
 77
2
 78
300
147
1.0
148
0.0
149
0.0
100
AcDbLayout
  1
Layout1
 70
1
 71
1
 10
0.0
 20
0.0
 11
420.0
 21
297.0
 12
0.0
 22
0.0
 32
0.0
 14
1e+20
 24
1e+20
 34
1e+20
 15
-1e+20
 25
-1e+20
 35
-1e+20
146
0.0
 13
0.0
 23
0.0
 33
0.0
 16
1.0
 26
0.0
 36
0.0
 17
0.0
 27
1.0
 37
0.0
 76
1
330
1B
  0
MATERIAL
  5
1F
102
{ACAD_REACTORS
330
E
102
}
330
E
100
AcDbMaterial
  1
ByBlock
  2

 70
0
 40
1.0
 71
1
 41
1.0
 91
-1023410177
 42
1.0
 72
1
  3

 73
1
 74
1
 75
1
 44
0.5
 73
0
 45
1.0
 46
1.0
 77
1
  4

 78
1
 79
1
170
1
 48
1.0
171
1
  6

172
1
173
1
174
1
140
1.0
141
1.0
175
1
  7

176
1
177
1
178
1
143
1.0
179
1
  8

270
1
271
1
272
1
145
1.0
146
1.0
273
1
  9

274
1
275
1
276
1
 42
1.0
 72
1
  3

 73
1
 74
1
 75
1
 94
63
  0
MATERIAL
  5
20
102
{ACAD_REACTORS
330
E
102
}
330
E
100
AcDbMaterial
  1
ByLayer
  2

 70
0
 40
1.0
 71
1
 41
1.0
 91
-1023410177
 42
1.0
 72
1
  3

 73
1
 74
1
 75
1
 44
0.5
 73
0
 45
1.0
 46
1.0
 77
1
  4

 78
1
 79
1
170
1
 48
1.0
171
1
  6

172
1
173
1
174
1
140
1.0
141
1.0
175
1
  7

176
1
177
1
178
1
143
1.0
179
1
  8

270
1
271
1
272
1
145
1.0
146
1.0
273
1
  9

274
1
275
1
276
1
 42
1.0
 72
1
  3

 73
1
 74
1
 75
1
 94
63
  0
MATERIAL
  5
21
102
{ACAD_REACTORS
330
E
102
}
330
E
100
AcDbMaterial
  1
Global
  2

 70
0
 40
1.0
 71
1
 41
1.0
 91
-1023410177
 42
1.0
 72
1
  3

 73
1
 74
1
 75
1
 44
0.5
 73
0
 45
1.0
 46
1.0
 77
1
  4

 78
1
 79
1
170
1
 48
1.0
171
1
  6

172
1
173
1
174
1
140
1.0
141
1.0
175
1
  7

176
1
177
1
178
1
143
1.0
179
1
  8

270
1
271
1
272
1
145
1.0
146
1.0
273
1
  9

274
1
275
1
276
1
 42
1.0
 72
1
  3

 73
1
 74
1
 75
1
 94
63
  0
MLINESTYLE
  5
22
102
{ACAD_REACTORS
330
10
102
}
330
10
100
AcDbMlineStyle
  2
Standard
 70
0
  3

 62
256
 51
90.0
 52
90.0
 71
2
 49
0.5
 62
256
  6
BYLAYER
 49
-0.5
 62
256
  6
BYLAYER
  0
MLEADERSTYLE
  5
2C
102
{ACAD_REACTORS
330
F
102
}
330
F
100
AcDbMLeaderStyle
179
2
170
2
171
1
172
0
 90
2
 40
0.0
 41
0.0
173
1
 91
-1056964608
 92
-2
290
1
 42
2.0
291
1
 43
8.0
  3
Standard
 44
4.0
300

342
29
174
1
175
1
176
0
178
1
 93
-1056964608
 45
4.0
292
0
297
0
 46
4.0
 94
-1056964608
 47
1.0
 49
1.0
140
1.0
294
1
141
0.0
177
0
142
1.0
295
0
296
0
143
3.75
271
0
272
9
273
9
  0
DICTIONARY
  5
2D
330
A
100
AcDbDictionary
280
1
281
1
  3
CREATED_BY_EZDXF
350
2E
  3
WRITTEN_BY_EZDXF
350
11E
  0
DICTIONARYVAR
  5
2E
330
2D
100
DictionaryVariables
280
0
  1
1.4.0 @ 2025-05-22T23:09:00.232451+00:00
  0
DICTIONARYVAR
  5
11E
330
2D
100
DictionaryVariables
280
0
  1
1.4.0 @ 2025-05-22T23:09:00.281719+00:00
  0
ENDSEC
  0
EOF
