# Rhino

mtllib new_building.mtl
usemtl Default
v 98.356842041015625 154.61697387695312 25
v 105.81333160400391 165.26594543457031 25
v 114.29467010498047 143.45718383789062 25
v 121.75115966796875 154.10615539550781 25
v 111.69683837890625 172.73941040039062 9
v 111.69683837890625 172.73941040039062 0
v 114.80828094482422 177.18301391601562 9
v 114.80828094482422 177.18301391601562 0
v 114.80828094482422 177.18301391601562 9
v 114.80828094482422 177.18301391601562 0
v 124.20159149169922 170.60574340820312 9
v 124.20159149169922 170.60574340820312 0
v 118.09358978271484 174.88261413574219 9
v 121.09014892578125 166.16213989257812 9
v 121.09014892578125 166.16213989257812 0
v 111.69683837890625 172.73941040039062 9
v 111.69683837890625 172.73941040039062 0
v 114.98214721679688 170.43901062011719 9
v 111.69683837890625 172.73941040039062 9
v 114.80828094482422 177.18301391601562 9
v 118.09358978271484 174.88261413574219 9
v 114.98214721679688 170.43901062011719 9
v 111.69683837890625 172.73941040039062 0
v 121.09014892578125 166.16213989257812 0
v 114.80828094482422 177.18301391601562 0
v 124.20159149169922 170.60574340820312 0
v 125.00950622558594 184.75955200195312 9
v 125.00950622558594 184.75955200195312 18
v 109.53515625 162.65989685058594 9
v 109.53515625 162.65989685058594 18
v 118.09358978271484 174.88261413574219 9
v 114.98214721679688 170.43901062011719 9
v 114.98214721679688 170.43901062011719 9
v 109.53515625 162.65989685058594 9
v 115.64315795898438 158.38302612304688 9
v 121.09014892578125 166.16213989257812 9
v 122.35684204101562 186.61697387695312 0
v 122.35684204101562 186.61697387695312 18
v 132.18666076660156 179.73405456542969 0
v 132.18666076660156 179.73405456542969 18
v 125.00950622558594 184.75955200195312 9
v 125.00950622558594 184.75955200195312 18
v 131.11750793457031 180.48268127441406 18
v 131.11750793457031 180.48268127441406 9
v 132.18666076660156 179.73405456542969 0
v 132.18666076660156 179.73405456542969 18
v 139.64315795898438 190.38302612304688 0
v 139.64315795898438 190.38302612304688 18
v 139.64315795898438 190.38302612304688 0
v 139.64315795898438 190.38302612304688 18
v 129.81333923339844 197.26594543457031 0
v 129.81333923339844 197.26594543457031 18
v 129.81333923339844 197.26594543457031 0
v 129.81333923339844 197.26594543457031 18
v 122.35684204101562 186.61697387695312 0
v 122.35684204101562 186.61697387695312 18
v 122.35684204101562 186.61697387695312 0
v 129.81333923339844 197.26594543457031 0
v 132.18666076660156 179.73405456542969 0
v 139.64315795898438 190.38302612304688 0
v 115.64315795898438 158.38302612304688 13.543300628662109
v 121.75115966796875 154.10615539550781 13.543300628662109
v 108.18666839599609 147.73405456542969 13.543300628662109
v 114.29467010498047 143.45718383789062 13.543300628662109
v 98.356842041015625 154.61697387695312 0
v 105.81333160400391 165.26594543457031 0
v 108.18666839599609 147.73405456542969 0
v 115.64315795898438 158.38302612304688 0
v 125.00950622558594 184.75955200195312 9
v 131.11750793457031 180.48268127441406 9
v 124.20159149169922 170.60574340820312 9
v 118.09358978271484 174.88261413574219 9
v 114.29467010498047 143.45718383789062 13.543300628662109
v 114.29467010498047 143.45718383789062 25
v 121.75115966796875 154.10615539550781 13.543300628662109
v 121.75115966796875 154.10615539550781 25
v 105.81333160400391 165.26594543457031 0
v 105.81333160400391 165.26594543457031 25
v 98.356842041015625 154.61697387695312 0
v 98.356842041015625 154.61697387695312 25
v 108.18666839599609 147.73405456542969 0
v 131.11750793457031 180.48268127441406 18
v 124.20159149169922 170.60574340820312 0
v 124.20159149169922 170.60574340820312 9
v 121.09014892578125 166.16213989257812 9
v 121.09014892578125 166.16213989257812 0
v 115.64315795898438 158.38302612304688 9
v 131.11750793457031 180.48268127441406 9
v 115.64315795898438 158.38302612304688 18
v 115.64315795898438 158.38302612304688 13.543300628662109
v 108.18666839599609 147.73405456542969 13.543300628662109
v 115.64315795898438 158.38302612304688 0
v 129.81333923339844 197.26594543457031 18
v 125.00950622558594 184.75955200195312 18
v 115.64315795898438 158.38302612304688 18
v 131.11750793457031 180.48268127441406 18
v 122.35684204101562 186.61697387695312 18
v 123.26282501220703 177.45016479492188 18
v 122.03409576416016 178.31053161621094 18
v 128.99552917480469 185.6373291015625 18
v 127.76680755615234 186.49769592285156 18
v 125.72028350830078 175.72944641113281 18
v 132.18666076660156 179.73405456542969 18
v 139.64315795898438 190.38302612304688 18
v 126.94901275634766 174.86907958984375 18
v 131.45298767089844 183.91659545898438 18
v 132.68171691894531 183.05622863769531 18
v 129.81536865234375 178.96266174316406 18
v 119.98757171630859 167.54228210449219 18
v 121.21630096435547 166.68191528320312 18
v 109.53515625 162.65989685058594 18
v 98.356842041015625 154.61697387695312 0
v 98.356842041015625 154.61697387695312 25
v 114.29467010498047 143.45718383789062 25
v 108.18666839599609 147.73405456542969 13.543300628662109
v 114.29467010498047 143.45718383789062 13.543300628662109
v 108.18666839599609 147.73405456542969 0
v 121.75115966796875 154.10615539550781 25
v 105.81333160400391 165.26594543457031 0
v 105.81333160400391 165.26594543457031 25
v 109.53515625 162.65989685058594 18
v 109.53515625 162.65989685058594 9
v 115.64315795898438 158.38302612304688 9
v 121.75115966796875 154.10615539550781 13.543300628662109
v 115.64315795898438 158.38302612304688 13.543300628662109
v 115.64315795898438 158.38302612304688 0
v 115.64315795898438 158.38302612304688 18
vt 0.54593944549560547 0.24204634130001068
vt 0.40291205048561096 0.24204634130001068
vt 0.54593944549560547 0.45464390516281128
vt 0.40291205048561096 0.45464390516281128
vt 0.22507895529270172 0.45610874891281128
vt 0.22507895529270172 0.55512768030166626
vt 0.28476130962371826 0.45610874891281128
vt 0.28476130962371826 0.55512768030166626
vt 0.99198776483535767 0.24419435858726501
vt 0.89296877384185791 0.24419435858726501
vt 0.99198776483535767 0.37035679817199707
vt 0.89296877384185791 0.37035679817199707
vt 0.99198776483535767 0.28831967711448669
vt 0.88495653867721558 0.24419435858726501
vt 0.7859376072883606 0.24419435858726501
vt 0.88495653867721558 0.37035679817199707
vt 0.7859376072883606 0.37035679817199707
vt 0.88495653867721558 0.32623147964477539
vt 0.17615059018135071 0.45610874891281128
vt 0.17615059018135071 0.51579111814498901
vt 0.13202527165412903 0.51579111814498901
vt 0.13202527165412903 0.45610874891281128
vt 0.13202527165412903 0.5770576000213623
vt 0.13202527165412903 0.70322000980377197
vt 0.19170762598514557 0.5770576000213623
vt 0.19170762598514557 0.70322000980377197
vt 0 0
vt 0 0.097554109990596771
vt 0.29682251811027527 0
vt 0.29682251811027527 0.097554109990596771
vt 0.13265819847583771 0
vt 0.19234055280685425 0
vt 0.30625402927398682 0.5770576000213623
vt 0.30625402927398682 0.68153953552246094
vt 0.22421690821647644 0.68153953552246094
vt 0.22421690821647644 0.5770576000213623
vt 0.19803790748119354 0.099018953740596771
vt 0 0.099018953740596771
vt 0.19803790748119354 0.2310442328453064
vt 0 0.2310442328453064
vt 0.099018953740596771 0.13464711606502533
vt 0 0.13464711606502533
vt 0 0.2166842520236969
vt 0.099018953740596771 0.2166842520236969
vt 0.19803790748119354 0.27042204141616821
vt 0 0.27042204141616821
vt 0.19803790748119354 0.41344943642616272
vt 0 0.41344943642616272
vt 0.76991307735443115 0.22979739308357239
vt 0.57187515497207642 0.22979739308357239
vt 0.76991307735443115 0.36182266473770142
vt 0.57187515497207642 0.36182266473770142
vt 0.23394893109798431 0.24204634130001068
vt 0.23394893109798431 0.44008424878120422
vt 0.37697631120681763 0.24204634130001068
vt 0.37697631120681763 0.44008424878120422
vt 0.39899855852127075 0.099018953740596771
vt 0.39899855852127075 0.24058149755001068
vt 0.53102385997772217 0.099018953740596771
vt 0.53102385997772217 0.24058149755001068
vt 0.97500592470169067 0
vt 0.89296877384185791 0
vt 0.97500592470169067 0.14302738010883331
vt 0.89296877384185791 0.14302738010883331
vt 0.71490257978439331 0
vt 0.57187515497207642 0
vt 0.71490257978439331 0.13202527165412903
vt 0.57187515497207642 0.13202527165412903
vt 0.86797469854354858 0
vt 0.7859376072883606 0
vt 0.7859376072883606 0.13265819847583771
vt 0.86797469854354858 0.13265819847583771
vt 0.35999676585197449 0.099018953740596771
vt 0.23394893109798431 0.099018953740596771
vt 0.35999676585197449 0.24058149755001068
vt 0.23394893109798431 0.24058149755001068
vt 0.35094007849693298 0.45610874891281128
vt 0.35094007849693298 0.72969657182693481
vt 0.4939674437046051 0.45610874891281128
vt 0.4939674437046051 0.72969657182693481
vt 0.13202527165412903 0.73116141557693481
vt 0.57041031122207642 0.92773449420928955
vt 0.43819394707679749 0.73116141557693481
vt 0.43819394707679749 0.82944792509078979
vt 0.37871032953262329 0.82944792509078979
vt 0.37871032953262329 0.73116141557693481
vt 0.274576336145401 0.82944792509078979
vt 0.57041031122207642 0.82944792509078979
vt 0.274576336145401 0.92773449420928955
vt 0.274576336145401 0.87906408309936523
vt 0.13202527165412903 0.87906408309936523
vt 0.274576336145401 0.73116141557693481
vt 0.13056042790412903 0.45610874891281128
vt 0.095327578485012054 0.5991361141204834
vt 0.014200654812157154 0.89595866203308105
vt 0.014200654812157154 0.5991361141204834
vt 0.13056042790412903 0.5991361141204834
vt 0.065280213952064514 0.67603367567062378
vt 0.081600271165370941 0.67603367567062378
vt 0.065280213952064514 0.56607121229171753
vt 0.081600271165370941 0.56607121229171753
vt 0.032640106976032257 0.67603367567062378
vt 0 0.5991361141204834
vt 0 0.45610874891281128
vt 0.016320053488016129 0.67603367567062378
vt 0.032640106976032257 0.56607121229171753
vt 0.016320053488016129 0.56607121229171753
vt 0.016320053488016129 0.62105244398117065
vt 0.032640106976032257 0.7859961986541748
vt 0.016320053488016129 0.7859961986541748
vt 0.095327578485012054 0.89595866203308105
vt 0.7859376072883606 0.45959478616714478
vt 0.7859376072883606 0.73464745283126831
vt 0.99853515625 0.73464745283126831
vt 0.91705942153930664 0.60859960317611694
vt 0.99853515625 0.60859960317611694
vt 0.91705942153930664 0.45959478616714478
vt 0.57187515497207642 0.73464745283126831
vt 0.7844727635383606 0.45959478616714478
vt 0.7844727635383606 0.73464745283126831
vt 0.73482668399810791 0.65763270854949951
vt 0.73482668399810791 0.55861371755599976
vt 0.65335094928741455 0.55861371755599976
vt 0.57187515497207642 0.60859960317611694
vt 0.65335094928741455 0.60859960317611694
vt 0.65335094928741455 0.45959478616714478
vt 0.65335094928741455 0.65763270854949951
vn 0 0 1
vn 0 0 1
vn 0 0 1
vn 0 0 1
vn -0.81915205717086792 0.57357645034790039 0
vn -0.81915205717086792 0.57357645034790039 0
vn -0.81915205717086792 0.57357645034790039 0
vn -0.81915205717086792 0.57357645034790039 0
vn 0.57357645034790039 0.81915205717086792 0
vn 0.57357645034790039 0.81915205717086792 0
vn 0.57357645034790039 0.81915205717086792 0
vn 0.57357645034790039 0.81915205717086792 0
vn 0.57357645034790039 0.81915205717086792 0
vn -0.57357645034790039 -0.81915205717086792 0
vn -0.57357645034790039 -0.81915205717086792 0
vn -0.57357645034790039 -0.81915205717086792 0
vn -0.57357645034790039 -0.81915205717086792 0
vn -0.57357645034790039 -0.81915205717086792 0
vn 0 0 1
vn 0 0 1
vn 0 0 1
vn 0 0 1
vn 0 0 -1
vn 0 0 -1
vn 0 0 -1
vn 0 0 -1
vn -0.81915205717086792 0.57357645034790039 0
vn -0.81915205717086792 0.57357645034790039 0
vn -0.81915205717086792 0.57357645034790039 0
vn -0.81915205717086792 0.57357645034790039 0
vn -0.81915205717086792 0.57357645034790039 0
vn -0.81915205717086792 0.57357645034790039 0
vn 0 0 -1
vn 0 0 -1
vn 0 0 -1
vn 0 0 -1
vn -0.57357645034790039 -0.81915205717086792 0
vn -0.57357645034790039 -0.81915205717086792 0
vn -0.57357645034790039 -0.81915205717086792 0
vn -0.57357645034790039 -0.81915205717086792 0
vn -0.57357645034790039 -0.81915205717086792 0
vn -0.57357645034790039 -0.81915205717086792 0
vn -0.57357645034790039 -0.81915205717086792 0
vn -0.57357645034790039 -0.81915205717086792 0
vn 0.81915205717086792 -0.57357645034790039 0
vn 0.81915205717086792 -0.57357645034790039 0
vn 0.81915205717086792 -0.57357645034790039 0
vn 0.81915205717086792 -0.57357645034790039 0
vn 0.57357645034790039 0.81915205717086792 0
vn 0.57357645034790039 0.81915205717086792 0
vn 0.57357645034790039 0.81915205717086792 0
vn 0.57357645034790039 0.81915205717086792 0
vn -0.81915205717086792 0.57357645034790039 0
vn -0.81915205717086792 0.57357645034790039 0
vn -0.81915205717086792 0.57357645034790039 0
vn -0.81915205717086792 0.57357645034790039 0
vn 0 0 -1
vn 0 0 -1
vn 0 0 -1
vn 0 0 -1
vn 0 0 -1
vn 0 0 -1
vn 0 0 -1
vn 0 0 -1
vn 0 0 -1
vn 0 0 -1
vn 0 0 -1
vn 0 0 -1
vn 0 0 -1
vn 0 0 -1
vn 0 0 -1
vn 0 0 -1
vn 0.81915205717086792 -0.57357645034790039 0
vn 0.81915205717086792 -0.57357645034790039 0
vn 0.81915205717086792 -0.57357645034790039 0
vn 0.81915205717086792 -0.57357645034790039 0
vn -0.81915205717086792 0.57357645034790039 0
vn -0.81915205717086792 0.57357645034790039 0
vn -0.81915205717086792 0.57357645034790039 0
vn -0.81915205717086792 0.57357645034790039 0
vn 0.81915205717086792 -0.57357645034790039 0
vn 0.81915205717086792 -0.57357645034790039 0
vn 0.81915205717086792 -0.57357645034790039 0
vn 0.81915205717086792 -0.57357645034790039 0
vn 0.81915205717086792 -0.57357645034790039 0
vn 0.81915205717086792 -0.57357645034790039 0
vn 0.81915205717086792 -0.57357645034790039 0
vn 0.81915205717086792 -0.57357645034790039 0
vn 0.81915205717086792 -0.57357645034790039 0
vn 0.81915205717086792 -0.57357645034790039 0
vn 0.81915205717086792 -0.57357645034790039 0
vn 0.81915205717086792 -0.57357645034790039 0
vn 0 0 1
vn 0 0 1
vn 0 0 1
vn 0 0 1
vn 0 0 1
vn 0 0 1
vn 0 0 1
vn 0 0 1
vn 0 0 1
vn 0 0 1
vn 0 0 1
vn 0 0 1
vn 0 0 1
vn 0 0 1
vn 0 0 1
vn 0 0 1
vn 0 0 1
vn 0 0 1
vn 0 0 1
vn -0.57357645034790039 -0.81915205717086792 0
vn -0.57357645034790039 -0.81915205717086792 0
vn -0.57357645034790039 -0.81915205717086792 0
vn -0.57357645034790039 -0.81915205717086792 0
vn -0.57357645034790039 -0.81915205717086792 0
vn -0.57357645034790039 -0.81915205717086792 0
vn 0.57357645034790039 0.81915205717086792 0
vn 0.57357645034790039 0.81915205717086792 0
vn 0.57357645034790039 0.81915205717086792 0
vn 0.57357645034790039 0.81915205717086792 0
vn 0.57357645034790039 0.81915205717086792 0
vn 0.57357645034790039 0.81915205717086792 0
vn 0.57357645034790039 0.81915205717086792 0
vn 0.57357645034790039 0.81915205717086792 0
vn 0.57357645034790039 0.81915205717086792 0
vn 0.57357645034790039 0.81915205717086792 0
f 2/2/2 1/1/1 4/4/4
f 6/6/6 5/5/5 7/7/7
f 13/13/13 10/10/10 9/9/9
f 12/12/12 13/13/13 11/11/11
f 10/10/10 13/13/13 12/12/12
f 18/18/18 15/15/15 14/14/14
f 17/17/17 18/18/18 16/16/16
f 15/15/15 18/18/18 17/17/17
f 22/22/22 21/21/21 19/19/19
f 24/24/24 23/23/23 26/26/26
f 28/28/28 27/27/27 31/31/31
f 30/30/30 28/28/28 31/31/31
f 30/30/30 32/32/32 29/29/29
f 36/36/36 35/35/35 34/34/34
f 38/38/38 37/37/37 41/41/41
f 37/37/37 39/39/39 41/41/41
f 41/41/41 42/42/42 38/38/38
f 40/40/40 44/44/44 39/39/39
f 44/44/44 40/40/40 43/43/43
f 46/46/46 45/45/45 47/47/47
f 50/50/50 49/49/49 51/51/51
f 54/54/54 53/53/53 55/55/55
f 58/58/58 60/60/60 59/59/59
f 62/62/62 64/64/64 63/63/63
f 66/66/66 68/68/68 65/65/65
f 70/70/70 71/71/71 69/69/69
f 74/74/74 73/73/73 75/75/75
f 78/78/78 77/77/77 79/79/79
f 87/87/87 81/81/81 92/92/92
f 91/91/91 81/81/81 87/87/87
f 87/87/87 90/90/90 91/91/91
f 82/82/82 89/89/89 90/90/90
f 90/90/90 87/87/87 85/85/85
f 85/85/85 86/86/86 83/83/83
f 82/82/82 84/84/84 88/88/88
f 84/84/84 82/82/82 90/90/90
f 85/85/85 84/84/84 90/90/90
f 98/98/98 100/100/100 99/99/99
f 110/110/110 105/105/105 109/109/109
f 108/108/108 107/107/107 106/106/106
f 102/102/102 105/105/105 108/108/108
f 106/106/106 102/102/102 108/108/108
f 100/100/100 93/93/93 101/101/101
f 94/94/94 101/101/101 93/93/93
f 93/93/93 97/97/97 94/94/94
f 106/106/106 104/104/104 100/100/100
f 93/93/93 100/100/100 104/104/104
f 96/96/96 107/107/107 108/108/108
f 103/103/103 104/104/104 107/107/107
f 104/104/104 106/106/106 107/107/107
f 106/106/106 100/100/100 102/102/102
f 96/96/96 103/103/103 107/107/107
f 94/94/94 99/99/99 101/101/101
f 111/111/111 98/98/98 99/99/99
f 102/102/102 98/98/98 109/109/109
f 111/111/111 109/109/109 98/98/98
f 95/95/95 109/109/109 111/111/111
f 111/111/111 99/99/99 94/94/94
f 105/105/105 110/110/110 96/96/96
f 96/96/96 108/108/108 105/105/105
f 109/109/109 95/95/95 110/110/110
f 95/95/95 96/96/96 110/110/110
f 113/113/113 112/112/112 115/115/115
f 114/114/114 115/115/115 116/116/116
f 113/113/113 115/115/115 114/114/114
f 122/122/122 123/123/123 126/126/126
f 118/118/118 124/124/124 127/127/127
f 124/124/124 125/125/125 127/127/127
f 120/120/120 118/118/118 127/127/127
f 120/120/120 122/122/122 119/119/119
f 122/122/122 120/120/120 121/121/121
f 119/119/119 122/122/122 126/126/126
f 1/1/1 3/3/3 4/4/4
f 6/6/6 7/7/7 8/8/8
f 21/21/21 20/20/20 19/19/19
f 23/23/23 25/25/25 26/26/26
f 30/30/30 31/31/31 32/32/32
f 36/36/36 34/34/34 33/33/33
f 39/39/39 44/44/44 41/41/41
f 46/46/46 47/47/47 48/48/48
f 50/50/50 51/51/51 52/52/52
f 54/54/54 55/55/55 56/56/56
f 58/58/58 59/59/59 57/57/57
f 62/62/62 63/63/63 61/61/61
f 68/68/68 67/67/67 65/65/65
f 71/71/71 72/72/72 69/69/69
f 74/74/74 75/75/75 76/76/76
f 78/78/78 79/79/79 80/80/80
f 85/85/85 83/83/83 84/84/84
f 100/100/100 101/101/101 99/99/99
f 105/105/105 102/102/102 109/109/109
f 100/100/100 98/98/98 102/102/102
f 112/112/112 117/117/117 115/115/115
f 120/120/120 127/127/127 121/121/121
