# Rhino

mtllib water.mtl
usemtl Default
v 133.59700012207031 59.046001434326172 0
v 160.14924621582031 32.198070526123047 0
v 166.95309448242188 37.75 0
v 149.96292114257812 50.371604919433594 0
v 157.26559448242188 48.218799591064453 0
v 158.5625 48.906299591064453 0
v 152.0115966796875 52.397705078125 0
v 157.46575927734375 42.785224914550781 0
v 159.51441955566406 44.811328887939453 0
v 155.76300048828125 48.604515075683594 0
v 142.46009826660156 57.957981109619141 0
v 144.50875854492188 59.984085083007812 0
v 147.38279724121094 59.5625 0
v 153.95309448242188 65.843803405761719 0
v 151.39840698242188 70 0
v 147.38279724121094 77.244552612304688 0
v 133.61528015136719 59.0692138671875 0
v 147.91426086425781 48.345504760742188 0
v 140.41143798828125 55.931880950927734 0
v 139.38710021972656 54.918830871582031 0
v 136.66001892089844 59.725070953369141 0
v 135.63569641113281 58.712020874023438 0
v 135.12351989746094 58.205493927001953 0
v 134.86744689941406 57.952232360839844 0
v 134.1856689453125 59.153789520263672 0
v 133.92958068847656 58.900527954101562 0
v 138.87493896484375 54.412303924560547 0
v 137.51139831542969 56.815425872802734 0
v 136.99923706054688 56.30889892578125 0
v 146.88993835449219 47.332450866699219 0
v 144.16285705566406 52.138690948486328 0
v 143.13851928710938 51.125640869140625 0
v 155.41709899902344 40.759124755859375 0
v 133.86557006835938 58.837211608886719 0
v 133.69512939453125 59.137603759765625 0
v 133.631103515625 59.074287414550781 0
v 134.39851379394531 58.426380157470703 0
v 136.74314880371094 56.055637359619141 0
v 136.06137084960938 57.257198333740234 0
v 135.8052978515625 57.003932952880859 0
v 134.05763244628906 59.02716064453125 0
v 135.37960815429688 58.458755493164062 0
v 134.69783020019531 59.660316467285156 0
v 134.44175720214844 59.407054901123047 0
v 136.14785766601562 59.218544006347656 0
v 141.43576049804688 56.944931030273438 0
v 138.70867919921875 61.751171112060547 0
v 137.68435668945312 60.738121032714844 0
v 133.74833679199219 58.95574951171875 0
v 134.33448791503906 58.363063812255859 0
v 134.16404724121094 58.663455963134766 0
v 134.10003662109375 58.600139617919922 0
v 134.9954833984375 58.078861236572266 0
v 134.65460205078125 58.679641723632812 0
v 134.52655029296875 58.553012847900391 0
v 133.66311645507812 59.105945587158203 0
v 133.99360656738281 58.963844299316406 0
v 133.82316589355469 59.264232635498047 0
v 133.75914001464844 59.200920104980469 0
vt 0.085846878588199615 0.0098039219155907631
vt 0.97058820724487305 0.0098039219155907631
vt 0.99019604921340942 0.38903835415840149
vt 0.5 0.25
vt 0.65618234872817993 0.40958169102668762
vt 0.66609662771224976 0.47055801749229431
vt 0.5 0.375
vt 0.75 0.25
vt 0.75 0.375
vt 0.625 0.375
vt 0.25 0.25
vt 0.25 0.375
vt 0.30437564849853516 0.45079043507575989
vt 0.30798476934432983 0.84507101774215698
vt 0.19665415585041046 0.89305824041366577
vt 0.0098039219155907631 0.99019604921340942
vt 0.085761353373527527 0.011075977236032486
vt 0.5 0.125
vt 0.25 0.125
vt 0.25 0.0625
vt 0.125 0.125
vt 0.125 0.0625
vt 0.125 0.03125
vt 0.125 0.015625
vt 0.09375 0.03125
vt 0.09375 0.015625
vt 0.25 0.03125
vt 0.1875 0.0625
vt 0.1875 0.03125
vt 0.5 0.0625
vt 0.375 0.125
vt 0.375 0.0625
vt 0.75 0.125
vt 0.09375 0.01171875
vt 0.0859375 0.015625
vt 0.0859375 0.01171875
vt 0.109375 0.015625
vt 0.1875 0.015625
vt 0.15625 0.03125
vt 0.15625 0.015625
vt 0.09375 0.0234375
vt 0.125 0.046875
vt 0.09375 0.0625
vt 0.09375 0.046875
vt 0.125 0.09375
vt 0.25 0.1875
vt 0.125 0.25
vt 0.125 0.1875
vt 0.08984375 0.01171875
vt 0.109375 0.01171875
vt 0.1015625 0.015625
vt 0.1015625 0.01171875
vt 0.125 0.0234375
vt 0.109375 0.03125
vt 0.109375 0.0234375
vt 0.0859375 0.013671875
vt 0.09375 0.01953125
vt 0.0859375 0.0234375
vt 0.0859375 0.01953125
vn 0 0 1
vn 0 0 1
vn 0 0 1
vn 0 0 1
vn 0 0 1
vn 0 0 1
vn 0 0 1
vn 0 0 1
vn 0 0 1
vn 0 0 1
vn 0 0 1
vn 0 0 1
vn 0 0 1
vn 0 0 1
vn 0 0 1
vn 0 0 1
vn 0 0 1
vn 0 0 1
vn 0 0 1
vn 0 0 1
vn 0 0 1
vn 0 0 1
vn 0 0 1
vn 0 0 1
vn 0 0 1
vn 0 0 1
vn 0 0 1
vn 0 0 1
vn 0 0 1
vn 0 0 1
vn 0 0 1
vn 0 0 1
vn 0 0 1
vn 0 0 1
vn 0 0 1
vn 0 0 1
vn 0 0 1
vn 0 0 1
vn 0 0 1
vn 0 0 1
vn 0 0 1
vn 0 0 1
vn 0 0 1
vn 0 0 1
vn 0 0 1
vn 0 0 1
vn 0 0 1
vn 0 0 1
vn 0 0 1
vn 0 0 1
vn 0 0 1
vn 0 0 1
vn 0 0 1
vn 0 0 1
vn 0 0 1
vn 0 0 1
vn 0 0 1
vn 0 0 1
vn 0 0 1
f 10/10/10 7/7/7 4/4/4
f 8/8/8 9/9/9 10/10/10
f 4/4/4 8/8/8 10/10/10
f 7/7/7 12/12/12 4/4/4
f 46/46/46 19/19/19 31/31/31
f 31/31/31 18/18/18 4/4/4
f 4/4/4 11/11/11 46/46/46
f 46/46/46 31/31/31 4/4/4
f 11/11/11 47/47/47 48/48/48
f 46/46/46 48/48/48 21/21/21
f 45/45/45 22/22/22 28/28/28
f 28/28/28 20/20/20 19/19/19
f 19/19/19 21/21/21 45/45/45
f 45/45/45 28/28/28 19/19/19
f 22/22/22 43/43/43 44/44/44
f 54/54/54 23/23/23 42/42/42
f 44/44/44 25/25/25 54/54/54
f 42/42/42 44/44/44 54/54/54
f 23/23/23 54/54/54 53/53/53
f 54/54/54 25/25/25 55/55/55
f 57/57/57 26/26/26 51/51/51
f 51/51/51 37/37/37 55/55/55
f 55/55/55 41/41/41 57/57/57
f 57/57/57 51/51/51 55/55/55
f 53/53/53 55/55/55 37/37/37
f 41/41/41 58/58/58 57/57/57
f 57/57/57 59/59/59 35/35/35
f 56/56/56 36/36/36 49/49/49
f 49/49/49 34/34/34 26/26/26
f 26/26/26 35/35/35 56/56/56
f 56/56/56 49/49/49 26/26/26
f 37/37/37 51/51/51 52/52/52
f 51/51/51 26/26/26 34/34/34
f 20/20/20 28/28/28 29/29/29
f 42/42/42 23/23/23 39/39/39
f 39/39/39 29/29/29 28/28/28
f 28/28/28 22/22/22 42/42/42
f 42/42/42 39/39/39 28/28/28
f 29/29/29 39/39/39 40/40/40
f 53/53/53 24/24/24 40/40/40
f 39/39/39 23/23/23 53/53/53
f 40/40/40 39/39/39 53/53/53
f 18/18/18 31/31/31 32/32/32
f 31/31/31 19/19/19 32/32/32
f 8/8/8 4/4/4 33/33/33
f 49/49/49 36/36/36 17/17/17
f 17/17/17 36/36/36 56/56/56
f 17/17/17 56/56/56 35/35/35
f 49/49/49 17/17/17 1/1/1
f 59/59/59 17/17/17 35/35/35
f 1/1/1 34/34/34 49/49/49
f 1/1/1 52/52/52 34/34/34
f 37/37/37 50/50/50 24/24/24
f 40/40/40 24/24/24 50/50/50
f 50/50/50 52/52/52 1/1/1
f 50/50/50 1/1/1 38/38/38
f 17/17/17 58/58/58 16/16/16
f 43/43/43 16/16/16 58/58/58
f 41/41/41 25/25/25 58/58/58
f 25/25/25 44/44/44 58/58/58
f 59/59/59 58/58/58 17/17/17
f 45/45/45 43/43/43 22/22/22
f 58/58/58 44/44/44 43/43/43
f 43/43/43 45/45/45 21/21/21
f 43/43/43 21/21/21 48/48/48
f 47/47/47 16/16/16 43/43/43
f 48/48/48 47/47/47 43/43/43
f 38/38/38 40/40/40 50/50/50
f 38/38/38 27/27/27 29/29/29
f 27/27/27 38/38/38 30/30/30
f 20/20/20 27/27/27 32/32/32
f 30/30/30 38/38/38 2/2/2
f 32/32/32 27/27/27 30/30/30
f 18/18/18 30/30/30 33/33/33
f 2/2/2 33/33/33 30/30/30
f 33/33/33 2/2/2 8/8/8
f 38/38/38 1/1/1 2/2/2
f 13/13/13 12/12/12 7/7/7
f 13/13/13 16/16/16 12/12/12
f 14/14/14 15/15/15 13/13/13
f 13/13/13 15/15/15 16/16/16
f 6/6/6 13/13/13 7/7/7
f 11/11/11 12/12/12 47/47/47
f 3/3/3 9/9/9 8/8/8
f 5/5/5 10/10/10 9/9/9
f 9/9/9 3/3/3 5/5/5
f 5/5/5 6/6/6 7/7/7
f 3/3/3 8/8/8 2/2/2
f 10/10/10 5/5/5 7/7/7
f 47/47/47 12/12/12 16/16/16
f 12/12/12 11/11/11 4/4/4
f 11/11/11 48/48/48 46/46/46
f 46/46/46 21/21/21 19/19/19
f 22/22/22 44/44/44 42/42/42
f 54/54/54 55/55/55 53/53/53
f 25/25/25 41/41/41 55/55/55
f 53/53/53 37/37/37 24/24/24
f 58/58/58 59/59/59 57/57/57
f 57/57/57 35/35/35 26/26/26
f 37/37/37 52/52/52 50/50/50
f 51/51/51 34/34/34 52/52/52
f 20/20/20 29/29/29 27/27/27
f 29/29/29 40/40/40 38/38/38
f 18/18/18 32/32/32 30/30/30
f 19/19/19 20/20/20 32/32/32
f 4/4/4 18/18/18 33/33/33
